<svg width="104" height="104" viewBox="0 0 104 104" xmlns="http://www.w3.org/2000/svg"><title>career-cluster-Agriculture-Food-and-Natural-Resources</title><g transform="translate(2 2)" fill="none" fill-rule="evenodd"><rect stroke="#2F9929" stroke-width="3" fill="#FFF" width="100" height="100" rx="6"/><path d="M50.501 22v.0763l-3.5692 5.4596c-.516.8393-.7064 1.839-.535 2.8093.1492.9727.6016 1.8735 1.2928 2.574l.2288.1553 2.5826 2.266h.0772l2.7312-2.4157c.7414-.6728 1.225-1.583 1.367-2.574.146-.9794-.0706-1.9784-.609-2.8094L50.578 22.082 50.501 22zm-1.367 23.0148v-4.4462c-.0247-.9328-.344-1.834-.9124-2.574-.5638-.776-1.3617-1.351-2.2765-1.6396l-6.0744-1.716v4.4462c.08 1.9316 1.3512 3.6104 3.1888 4.2108l6.0745 1.7188zm3.7178-7.02c-.6186.7168-.9675 1.627-.9867 2.5738v4.4462l6.0746-1.716c.9476-.265 1.7775-.8428 2.3547-1.6396.5667-.741.8858-1.6415.9123-2.574V34.638l-6.0745 1.716c-.915.2894-1.7138.864-2.2792 1.6397l-.001.001zm13.2882 5.693l-9.2633 2.6512c-1.4015.4385-2.626 1.3136-3.4948 2.4977-.9465 1.1134-1.4816 2.5182-1.516 3.979v6.7857l9.2634-2.6502c1.423-.4346 2.6715-1.309 3.5664-2.4976.9288-1.117 1.4395-2.5226 1.4442-3.9753V43.6878zm-31.2038 6.7895c.0055 1.4532.515 2.8596 1.4415 3.979.8445 1.2065 2.077 2.087 3.492 2.495l9.2633 2.65V52.816c-.0043-1.4534-.514-2.8602-1.4415-3.979-.8677-1.184-2.0913-2.059-3.492-2.4978l-9.2633-2.6502v6.7885zM30 65.999c.031 1.9902.7254 3.913 1.9734 5.4635 1.1895 1.556 2.8353 2.7014 4.7074 3.2766l12.4522 3.5083v-9.127c-.0458-1.963-.7397-3.8558-1.9734-5.3834-1.1712-1.5744-2.824-2.7237-4.7075-3.2738L30 56.8722v9.127zm41 0v-9.127l-12.452 3.5912c-1.8737.571-3.5204 1.716-4.7076 3.2737-1.2337 1.5275-1.9276 3.4202-1.9734 5.3833v9.128L64.3936 74.74c1.872-.575 3.518-1.7206 4.7074-3.2765 1.2276-1.557 1.8964-3.4816 1.899-5.4644z" fill="#2F9929"/></g></svg>