<svg width="104" height="104" viewBox="0 0 104 104" xmlns="http://www.w3.org/2000/svg"><title>career-cluster-architecture-and-construction</title><g transform="translate(2 2)" fill="none" fill-rule="evenodd"><rect stroke="#0F5C87" stroke-width="3" fill="#FFF" width="100" height="100" rx="6"/><path d="M69.7596 76.36c-.2297-.2198-.3292-.543-.2628-.8537V29.59c.0053-.463-.3634-.8442-.8265-.8544H52.0196c-.4632.0102-.8318.3913-.8266.8545v6.8568c.0427.1848-.039.376-.2018.473-.163.097-.37.0776-.512-.048l-2.094-1.2683c-.425-.2946-.689-.7703-.7137-1.287v-11.462c.0042-.223-.0806-.4386-.2358-.599-.155-.1604-.3677-.2523-.5908-.2555H30.194c-.223.0032-.4357.095-.591.2555-.155.1604-.2398.376-.2356.599v52.6508c.0508.2967-.0124.6016-.177.8536-.1607.232-.2233.518-.1743.7957.0097.4477.379.8036.8266.7968h17.6244c.4477.0068.817-.349.8265-.7968.0683-.304-.0548-.619-.3113-.7958-.2612-.1996-.3827-.5328-.3112-.8537V43.065c-.042-.1845.0403-.375.2032-.471.163-.096.3693-.076.5106.0498l2.094 1.2645c.424.2943.6877.7686.7137 1.284V75.51c.0605.304-.0228.619-.2255.8536-.203.2112-.2884.509-.2283.7958.0097.4476.379.8035.8266.7967H69.194c.4477.007.817-.349.8266-.7966.0648-.294-.035-.6003-.261-.7995zm-30.256-44.102c-.0063-.464.3627-.846.8266-.8563h3.951c.464.0102.833.3924.8267.8564v3.0063c.004.223-.0807.4386-.2358.599-.1552.1604-.3678.2523-.591.2555h-3.951c-.223-.0032-.4358-.095-.591-.2555-.155-.1604-.2398-.376-.2356-.599V32.258zm0 5.8224c-.0052-.463.3636-.844.8266-.8536h3.951c.463.0097.832.3905.8267.8536v3.007c.005.4634-.3635.8445-.8267.8547h-3.951c-.4633-.01-.832-.3912-.8267-.8545v-3.007zm0 5.825c-.0068-.4642.3623-.847.8266-.8572h3.951c.4644.0102.8334.393.8267.8573v3.0072c.006.464-.3628.8462-.8267.8564h-3.951c-.464-.01-.833-.3924-.8267-.8563v-3.0072zm0 5.8253c-.004-.223.081-.4383.236-.5985.155-.16.3676-.252.5906-.255h3.951c.223.003.4355.095.5906.255.155.1602.24.3755.236.5985v3.0043c.0053.463-.3635.844-.8265.8536h-3.951c-.463-.0097-.832-.3905-.8267-.8536v-3.0043zm0 5.8223c-.0052-.463.3636-.844.8266-.8536h3.951c.463.0097.832.3905.8267.8536v3.008c.005.4633-.3635.8444-.8267.8546h-3.951c-.4633-.0102-.832-.3913-.8267-.8545v-3.008zm0 5.825c-.0052-.463.3634-.8442.8266-.8544h3.951c.4633.0102.832.3913.8267.8545v3.0017c.0066.4643-.3624.847-.8267.8573h-3.951c-.4644-.0102-.8335-.393-.8267-.8573v-3.0025.001zm-7.5752-29.12c-.0062-.464.3627-.846.8266-.8563h3.951c.4644.009.834.392.8267.8564v3.0063c.0042.223-.0806.4386-.2357.599-.1552.1604-.3678.2523-.591.2555h-3.951c-.223-.0032-.4358-.095-.591-.2555-.155-.1604-.2398-.376-.2356-.599V32.258zm0 5.8224c-.0052-.463.3636-.844.8266-.8536h3.951c.223.0032.4355.095.5906.2552.155.16.24.3755.236.5984v3.007c.0043.2232-.0805.4388-.2356.5992-.1552.1603-.3678.2523-.591.2555h-3.951c-.4632-.01-.8318-.3912-.8266-.8545v-3.007zm0 5.825c-.0068-.4642.3623-.847.8266-.8572h3.951c.4648.0092.8345.3926.8267.8573v3.0072c.0073.4643-.3623.8472-.8266.8564h-3.951c-.464-.01-.8328-.3924-.8266-.8563v-3.0072zm0 5.8253c-.004-.223.081-.4383.236-.5985.1552-.16.3676-.252.5906-.255h3.951c.223.003.4355.095.5906.255.155.1602.24.3755.236.5985v3.0043c.004.223-.081.4383-.236.5984-.155.1602-.3676.252-.5905.2552h-3.951c-.463-.0097-.8318-.3905-.8266-.8536v-3.0043zm0 5.8223c-.0052-.463.3636-.844.8266-.8536h3.951c.223.0032.4355.095.5906.2552.155.16.24.3755.236.5984v3.008c.0043.2232-.0805.4387-.2356.599-.1552.1605-.3678.2524-.591.2556h-3.951c-.4632-.0102-.8318-.3913-.8266-.8545v-3.008zm0 5.825c-.0052-.463.3634-.8442.8266-.8544h3.951c.2232.0032.4358.095.591.2555.155.1605.24.376.2357.599v3.0017c.0073.4645-.362.8476-.8266.8573h-3.951c-.4643-.0102-.8334-.393-.8266-.8573v-3.0025.001zm0 5.8225c-.0042-.223.0806-.4387.2357-.599.1552-.1604.368-.2524.591-.2555h3.951c.2232.003.4358.095.591.2555.155.1603.24.376.2357.599v3.009c.004.223-.081.4382-.236.5984-.1552.16-.3677.252-.5906.255h-3.951c-.463-.0096-.8318-.3904-.8266-.8535v-3.01.001zm8.4018 9.1594c-.463-.0098-.8318-.3907-.8266-.8537v-8.3068c-.0042-.223.0806-.4386.2357-.599.155-.1604.3678-.2523.591-.2555h3.951c.223.0032.4357.095.591.2555.155.1604.2398.376.2356.599V75.51c.005.463-.3637.844-.8267.8536h-3.951V76.36zm20.996-38.2796c-.0047-.464.3655-.845.8294-.8536h3.951c.463.0097.832.3905.8267.8536v3.007c.0052.4634-.3635.8445-.8266.8547h-3.951c-.4644-.0086-.8347-.3902-.8295-.8545v-3.007zm0 5.825c-.0063-.465.3642-.848.8294-.8572h3.951c.4643.0102.8334.393.8267.8573v3.0072c.0062.464-.3627.8462-.8266.8564h-3.951c-.465-.0086-.8357-.3913-.8295-.8563v-3.0072zm0 5.8253c-.0057-.4644.365-.846.8294-.8536h3.951c.223.0033.4355.095.5906.2552.155.1602.24.3755.236.5985v3.0043c.0053.463-.3635.844-.8265.8536h-3.951c-.464-.0087-.8342-.3896-.8295-.8536v-3.0043zm0 5.8223c-.0047-.464.3655-.845.8294-.8536h3.951c.463.0097.832.3905.8267.8536v3.008c.0052.4633-.3635.8444-.8266.8546h-3.951c-.4644-.0087-.8347-.3902-.8295-.8545v-3.008zm0 5.825c-.0052-.4642.365-.8457.8294-.8544h3.951c.4632.0102.832.3913.8267.8545v3.0017c.0067.4643-.3624.847-.8266.8573h-3.951c-.4653-.0092-.8358-.392-.8295-.8573v-3.0025.001zm0 5.8225c-.0062-.4647.3647-.847.8294-.8546h3.951c.2232.003.4358.095.591.2555.155.1603.24.376.2357.599v3.009c.0052.463-.3636.844-.8266.8536h-3.951c-.464-.0086-.8342-.3896-.8295-.8535v-3.01.001zm-7.5696-29.12c-.0052-.4632.3636-.844.8266-.8537h3.9474c.463.0097.8318.3905.8265.8536v3.007c.0054.4634-.3633.8445-.8264.8547h-3.9512c-.463-.01-.8318-.3912-.8265-.8545v-3.007h.0036zm0 5.825c-.0068-.4643.3623-.847.8266-.8573h3.9474c.4642.0102.8333.393.8265.8573v3.0072c.0064.464-.3625.8462-.8264.8564h-3.9512c-.464-.01-.8328-.3924-.8265-.8563v-3.0072h.0036zm0 5.8252c-.004-.223.081-.4383.236-.5985.155-.16.3676-.252.5906-.255h3.9474c.223.003.4354.095.5905.255.1552.1602.24.3755.236.5985v3.0043c.0054.463-.3634.844-.8264.8536h-3.9512c-.463-.0097-.8318-.3905-.8265-.8536v-3.0043h.0036zm0 5.8223c-.0052-.463.3636-.844.8266-.8536h3.9474c.463.0097.8318.3905.8265.8536v3.008c.0054.4633-.3633.8444-.8264.8546h-3.9512c-.463-.0102-.8318-.3913-.8265-.8545v-3.008h.0036zm0 5.825c-.0052-.463.3634-.8442.8266-.8544h3.9474c.463.0102.8318.3913.8265.8545v3.0017c.007.4643-.3622.847-.8264.8573h-3.9512c-.4642-.0102-.8333-.393-.8265-.8573v-3.0025l.0036.001zm0 5.8225c-.0043-.223.0806-.4387.2357-.599.155-.1604.3678-.2524.591-.2555h3.9473c.223.003.4357.095.5908.2555.155.1603.24.376.2357.599v8.3104c.0054.463-.3634.8438-.8264.8535h-3.9512c-.463-.0097-.8318-.3905-.8265-.8536v-8.3115l.0036.001z" fill="#0F5C87"/></g></svg>