<svg width="104" height="104" viewBox="0 0 104 104" xmlns="http://www.w3.org/2000/svg"><title>career-cluster-arts-audio-video-technology-and-communication</title><g transform="translate(2 2)" fill="none" fill-rule="evenodd"><rect stroke="#7C6BB2" stroke-width="3" fill="#FFF" width="100" height="100" rx="6"/><path d="M42.5 37.375c0-5.1787 4.1962-9.375 9.375-9.375s9.375 4.1963 9.375 9.375c0 5.1788-4.1962 9.375-9.375 9.375S42.5 42.5538 42.5 37.375zm-22.5 0C20 32.1963 24.1963 28 29.375 28c5.1788 0 9.375 4.1963 9.375 9.375 0 5.1788-4.1962 9.375-9.375 9.375-5.1787 0-9.375-4.1962-9.375-9.375zm45 18.75V50.5c0-2.0625-1.6875-3.75-3.75-3.75h-37.5c-2.0625 0-3.75 1.6875-3.75 3.75v18.75c0 2.0625 1.6875 3.75 3.75 3.75h37.5c2.0625 0 3.75-1.6875 3.75-3.75v-5.625L80 73V46.75l-15 9.375zM57.5 65.5h-30V54.25h30V65.5z" fill="#7C6BB2"/></g></svg>