<svg width="104" height="104" viewBox="0 0 104 104" xmlns="http://www.w3.org/2000/svg"><title>career-cluster-business-management-and-administration</title><g transform="translate(2 2)" fill="none" fill-rule="evenodd"><rect stroke="#DE8537" stroke-width="3" fill="#FFF" width="100" height="100" rx="6"/><path d="M79 70.5634c0 2.0545-1.665 3.7203-3.7195 3.7214h-49.565c-2.053-.0027-3.716-1.6682-3.7155-3.7214V39.7467c-.0005-.986.3908-1.932 1.088-2.6293.697-.6974 1.6426-1.0893 2.6286-1.0893h49.5668c.986 0 1.9317.392 2.6287 1.0894.6972.6974 1.0885 1.6432 1.088 2.6293v30.8186-.002zM45.4086 34.58v-2.8984c.0016-.967.7856-1.75 1.7526-1.7505h6.6796c.4657.0003.9122.1858 1.241.5157.3287.33.5128.777.5115 1.2427v2.8983h3.934v-2.8983c-.006-3.1386-2.548-5.682-5.6865-5.6894h-6.6796c-3.1386.0074-5.6807 2.5508-5.6865 5.6894v2.8983h3.934V34.58zm6.2932 17.3898v-4.1156c1.3242-.0166 2.424 1.018 2.4877 2.341H59.31c0-4.56-3.7283-6.159-7.609-6.3677V41.992h-2.457v1.8355c-3.789.5632-7.3694 1.9254-7.3694 6.5125 0 4.1204 3.2848 5.3048 7.3695 6.4584v4.647c-1.4856-.242-2.5388-1.581-2.424-3.082h-5.357c0 4.62 3.5196 6.931 7.781 7.0816v2.8703h2.4578V65.448c4.2915-.1508 7.9056-1.7768 7.9056-6.6373 0-3.9687-3.4383-5.6256-7.9056-6.84v-.001zm-2.4577-.4435c-.9438-.3864-2.222-.6202-2.222-2.0433 0-1.1226 1.1536-1.6288 2.222-1.6288V51.5264zM51.702 61.627v-4.33c1.4492.3032 2.5757 1.0693 2.5757 2.3736 0 1.2414-1.3622 1.9563-2.5757 1.9563z" fill="#DE8537"/></g></svg>