<svg width="104" height="104" viewBox="0 0 104 104" xmlns="http://www.w3.org/2000/svg"><title>career-cluster-education-and-training</title><g transform="translate(2 2)" fill="none" fill-rule="evenodd"><rect stroke="#DBB923" stroke-width="3" fill="#FFF" width="100" height="100" rx="6"/><path d="M30 56.197c1.417 5.7382 3.2188 8.2485 9.2288 10.878 6.0132 2.6262 8.8686 5.497 11.2262 5.497 2.3545 0 5.0328-2.5104 11.043-5.143 6.013-2.6293 4.4067-3.4294 5.8237-9.1677L50.455 66.464 30 56.197zm49.5006-14.9704L54.077 26.9894c-1.9912-1.1147-5.2528-1.1147-7.244 0L21.4064 41.2266c-1.9912 1.1147-1.9912 2.941 0 4.0556L46.83 59.5195c1.991 1.1147 5.2527 1.1147 7.244 0L70.51 50.315l-17.8226-4.1746c-.687.168-1.4415.2626-2.2324.2626-3.2127 0-5.8146-1.5453-5.8146-3.454 0-1.9147 2.605-3.46 5.8146-3.46 2.492 0 4.6114.9375 5.436 2.2415L74.77 47.927l4.7306-2.6478c1.988-1.1116 1.988-2.938 0-4.0526zm-7.769 26.9782c-.1986 1.1758 3.918 3.109 4.309-.3268C77.8088 52.3887 74.77 47.933 74.77 47.933l-4.26 2.385c0-.003 3.6127 3.4358 1.2215 17.8868z" fill="#DBB923"/></g></svg>