<svg width="104" height="104" viewBox="0 0 104 104" xmlns="http://www.w3.org/2000/svg"><title>career-cluster-finance</title><g transform="translate(2 2)" fill="none" fill-rule="evenodd"><rect stroke="#C44D4D" stroke-width="3" fill="#FFF" width="100" height="100" rx="6"/><path d="M49.7272 59.075c-1.1186-.0157-2.2162-.3054-3.197-.8438L45.952 60.47c1.0183.51 2.136.7906 3.2746.8222v1.817h1.888v-1.9473c2.2145-.3836 3.4285-1.8367 3.4285-3.54 0-1.7233-.9252-2.775-3.2164-3.5786-1.637-.612-2.312-1.0143-2.312-1.6453 0-.536.405-1.0714 1.6557-1.0714.9618.0065 1.91.2292 2.774.6515l.5626-2.1618c-.8773-.4015-1.8283-.6164-2.793-.631V47.498h-1.8918v1.8178c-2.0625.4022-3.256 1.7213-3.256 3.406 0 1.8553 1.4063 2.8125 3.4688 3.5006 1.425.478 2.042.9375 2.042 1.666-.001.7668-.752 1.1868-1.8498 1.1868zM20 42.801h60L50 23 20 42.801zm2.5097 34.574h54.9806V67.293H22.5097v10.082zm6.043-31.768h5.5745v18.9243h-5.5744V45.607zm8.5182 0h5.5743v18.9243H37.071V45.607zm20.2846 0H62.93v18.9243h-5.5753V45.607h.001zm8.518 0h5.5745v18.9243H65.873V45.607h.001z" fill="#C44D4D"/></g></svg>