<svg width="104" height="104" viewBox="0 0 104 104" xmlns="http://www.w3.org/2000/svg"><title>career-cluster-government-and-public-administration</title><g transform="translate(2 2)" fill="none" fill-rule="evenodd"><rect stroke="#B8539D" stroke-width="3" fill="#FFF" width="100" height="100" rx="6"/><path d="M35.0374 43.98h30.9052c.4564 0 .878-.2435 1.1063-.6388.228-.3952.228-.8822 0-1.2775-.2283-.3953-.65-.6387-1.1064-.6387h-.0658c-.6136-6.9917-5.8866-12.679-12.812-13.8188V25.777h-2.256v-4.472c-.0094-.171-.1508-.305-.322-.305-.1714 0-.3128.134-.322.305v4.471h-2.2562v1.8264c-6.9254 1.14-12.1985 6.827-12.813 13.8188h-.0582c-.7066 0-1.2794.5728-1.2794 1.2794 0 .7066.5728 1.2794 1.2794 1.2794zM72.382 76.0358h-1.6104V61.3465h1.6094c.571 0 1.0985-.3046 1.384-.799.2854-.4945.2854-1.1037 0-1.598-.2855-.4946-.813-.7992-1.384-.7992H28.598c-.8825 0-1.598.7155-1.598 1.598 0 .8827.7155 1.5982 1.598 1.5982h1.6095v14.6902H28.598c-.8825 0-1.598.7155-1.598 1.598 0 .8827.7155 1.5982 1.598 1.5982h43.784c.8825 0 1.598-.7156 1.598-1.5982s-.7155-1.598-1.598-1.598v-.001zm-6.117 0h-2.7083V61.3465h2.7036v14.6902l.0047-.001zM49.1382 61.3465h2.7055v14.6902h-2.7055V61.3465zm-4.5075 14.6902H41.926V61.3465h2.7056v14.6902h-.001zm11.7196-14.6902h2.7036v14.6902h-2.7037V61.3465zm-21.6353 0h2.7083v14.6902H34.715V61.3465zM33.1056 49.408h1.6226c0 .0243-.0123.046-.0123.0638v6.8934h3.2196v-6.8925c0-.0225-.0122-.046-.0122-.064h1.5295c0 .0245-.0133.0462-.0133.064v6.8934h3.2197v-6.8933c0-.0225-.0122-.046-.0122-.064h1.5294c0 .0245-.0122.0462-.0122.064v6.8934h3.2197v-6.8933c0-.0225-.013-.046-.013-.064h1.5294c0 .0245-.0122.0462-.0122.064v6.8934h3.2196v-6.8933c0-.0225-.0122-.046-.0122-.064h1.5295c0 .0245-.013.0462-.013.064v6.8934h3.2196v-6.8933c0-.0225-.0122-.046-.0122-.064h1.5294c0 .0245-.0122.0462-.0122.064v6.8934h3.2197v-6.8933c0-.0225-.0122-.046-.0122-.064h1.524c0 .0245-.0133.0462-.0133.064v6.8934h3.2197v-6.8933c0-.0225-.0122-.046-.0122-.064h1.6187c.8825 0 1.598-.7154 1.598-1.598s-.7155-1.598-1.598-1.598H33.116c-.571-.002-1.0995.301-1.3866.7945-.287.4935-.289 1.1027-.0052 1.598.284.4955.8105.8018 1.3814.8036v-.001z" fill="#B8539D"/></g></svg>