<svg width="104" height="104" viewBox="0 0 104 104" xmlns="http://www.w3.org/2000/svg"><title>career-cluster-health-science</title><g transform="translate(2 2)" fill="none" fill-rule="evenodd"><rect stroke="#C44D4D" stroke-width="3" fill="#FFF" width="100" height="100" rx="6"/><path d="M50 22c15.464 0 28 12.536 28 28S65.464 78 50 78 22 65.464 22 50s12.536-28 28-28zm0 4c13.2548 0 24 10.7452 24 24S63.2548 74 50 74 26 63.2548 26 50s10.7452-24 24-24zM32.515 55.92h11.556v11.552c.1157 1.506 1.422 2.6382 2.929 2.539h5.183c1.509.101 2.8183-1.0312 2.936-2.539V55.92h11.55c1.5077-.1146 2.6404-1.4245 2.536-2.933v-5.182c.1055-1.5083-1.0282-2.818-2.536-2.93h-11.55V33.318c-.1177-1.5078-1.427-2.64-2.936-2.539H47c-1.5075-.0998-2.8143 1.0326-2.93 2.539v11.558H32.515c-1.5068.114-2.6392 1.4225-2.536 2.93v5.182c-.102 1.5077 1.0293 2.8163 2.536 2.933v-.001z" fill="#C44D4D"/></g></svg>