<svg width="104" height="104" viewBox="0 0 104 104" xmlns="http://www.w3.org/2000/svg"><title>career-cluster-hospitality-and-tourism</title><g transform="translate(2 2)" fill="none" fill-rule="evenodd"><rect stroke="#D7B100" stroke-width="3" fill="#FFF" width="100" height="100" rx="6"/><path d="M79.9996 49.0083c.0614 13.713-9.8548 25.436-23.388 27.65.1163-.6312.1392-1.276.068-1.914l-.18-1.582c4.6098-.803 8.8836-2.9383 12.294-6.142-.2307-.199-.4326-.4293-.6-.684-.892-1.321.275-2.632.275-3.788 0-1.133-2.252-1.04-2.334-1.791-.284-2.6 1.572-2.635 2.562-3.639.99-1.004-.978-3.288-2.249-3.141-1.271.147-4.883-.6-4.553-3.4.4-3.407-4.277-3.106-4.947-4.7-.8188-2.3654.4117-4.9502 2.764-5.806 3-.915 5.954-3.4 5.723-6.162-.1563-2.9952-1.5988-5.7768-3.957-7.63-2.4444-1.0037-5.0396-1.591-7.678-1.738-2.41.1-4.528.64-4.431 1.759.237 2.743 7.924 3.456 6.634 6.02-.673 1.337-5.72 3.224-4.777 5.213.613 1.294 2.122.185 1.559 2.669-.259 1.143-1.247 3.29-2.766 3.429-1.553.147-2.846-4.028-7.073-4.165-2-.065-4.814 3.164-2.423 5.455 1.448 1.387 4.164-1.667 4.966.719.565 1.681-.076 5.214 2.561 6.69.961.538 2.435 1.007 3.892 1.759-2.7172.6195-5.3794 1.4596-7.96 2.512l-2.645-.708c1.107-.935 2.906-1.593 2.453-3.637-.665-3-5.8-1.87-9.343-5.464-2.1603-2.5668-3.3602-5.8053-3.394-9.16-1.824 3.5146-2.7743 7.4172-2.77 11.377 0 1.2445.0928 2.4873.278 3.718-.042 0-.083-.008-.124-.008-1.1105.001-2.2085.235-3.223.687-.228-1.4556-.3427-2.9267-.343-4.4-.1582-9.9526 5.061-19.2175 13.6548-24.2398 8.5938-5.0223 19.2277-5.022 27.8212.001 8.5935 5.023 13.812 14.2882 13.653 24.2408zm-20.677 8.153l-6.732 3.14.1-1.489 4.361-2c-.622-.045-1.267-.062-1.91-.062-2.41 0-6.481 1.238-10.984 3.051l-14.437-3.865c-1.3503-.361-2.7902-.1378-3.968.615l-.71.453c-.3247.2094-.522.5683-.5248.9547-.003.3864.1892.748.5108.9623l8.681 5.715c-2.074 1.076-4.041 2.169-5.776 3.213l-4.455-2.393c-.7258-.391-1.5883-.4374-2.352-.127l-.422.171c-.301.1252-.5344.373-.6413.681-.107.308-.0774.647.0813.932l2.455 4.423c-.6983.4558-1.2132 1.1436-1.454 1.942 0 1.388 1.684 1.736 3.168 1.736 2.647 0 37.6-8.122 37.6-15.48.005-1.453-.977-2.182-2.591-2.573zm-14.739 14.367l7.692-2.75c.1617-.057.3406-.0367.4854.055.145.0915.2398.2445.2576.415l.674 5.851c.1728 1.455-.6 2.8582-1.922 3.49l-.721.34c-.4508.2122-.988.0977-1.313-.28l-5.387-6.213c-.1215-.142-.1662-.334-.1196-.515.0466-.181.1787-.3276.3536-.393z" fill="#D7B100"/></g></svg>