<svg width="104" height="104" viewBox="0 0 104 104" xmlns="http://www.w3.org/2000/svg"><title>career-cluster-human-services</title><g transform="translate(2 2)" fill="none" fill-rule="evenodd"><rect stroke="#DE8537" stroke-width="3" fill="#FFF" width="100" height="100" rx="6"/><path d="M38.698 80.0104L20 63.0794c14.077-13.447 6.732-11.893 12.255-29.8.77-2.5-5.054-8.447-.138-7.961 10.209 1 6.085 11.622 4.355 17.076-.049.151-.086.3-.126.441l-3.993 9.88c-.2195.64-.17 1.3418.137 1.945.307.603.8453 1.0558 1.492 1.255 1.3162.3467 2.6766-.3828 3.116-1.671l3.343-7.763.015-.009-.015.028c-.0812.293-.1225.5958-.123.9l-5.279 14.487c-.3152.9138-.112 1.9266.531 2.648.6433.7217 1.6262 1.0395 2.57.831.944-.2085 1.7016-.9107 1.981-1.836l5.278-14.478c-.0574.2318-.0833.4702-.077.709l-4.75 16.563c-.4324 1.4272.3353 2.942 1.742 3.437.6804.215 1.419.1458 2.0475-.192.6285-.338 1.0936-.9158 1.2895-1.602l4.855-16.894c.086-.1595.156-.327.209-.5l.48-1.578.031.013-3.2 14.324c-.4 1.819.236 3.632 1.733 4.121.8055.2017 1.6585.0643 2.36-.3802.7013-.4445 1.1897-1.1573 1.351-1.9718l3.644-15.806c.12.672.291 1.567.558 2.51.7296 2.0566 2.4344 3.6157 4.548 4.159 1.0098.2118 2.0618-.0254 2.883-.65 2.291-1.513-.389-2.683-1.659-3.966l6.928-6.331c.9275-1.0225 2.3324-1.4685 3.6798-1.1685 1.3474.3 2.4302 1.3 2.8362 2.6195.406 1.3194.0727 2.7552-.873 3.761l-11.632 11.129c-.132.17-.273.35-.435.53-11.146 12.482-18.169 8.175-25.25 18.122zm25.752-56.69c-2.239 5.994-3.742 11.426-3.613 17.061l12.135-14.4c1.4824-1.7356 1.3475-4.3277-.307-5.9-.7905-.7453-1.852-1.134-2.9367-1.0757-1.0848.0584-2.0984.559-2.8043 1.3847l-2.474 2.93zm-3.567 18.127c.1998 3.1426.8877 6.235 2.039 9.166.043.1296.111.2495.2.353l14.81-15.226c1.5337-1.7166 1.4-4.348-.3-5.9-1.6767-1.4907-4.2415-1.3514-5.747.312l-11.002 11.295z" fill="#DE8537"/></g></svg>