<svg width="104" height="104" viewBox="0 0 104 104" xmlns="http://www.w3.org/2000/svg"><title>career-cluster-information-technology</title><g transform="translate(2 2)" fill="none" fill-rule="evenodd"><rect stroke="#0F5C87" stroke-width="3" fill="#FFF" width="100" height="100" rx="6"/><path d="M78.2866 66.53C77.5703 65.454 73.2 58.9 73.2 58.9V32.8c0-3.1958-2.61-5.8-5.8-5.8H32.6c-3.193 0-5.8 2.6042-5.8 5.8v26.1s-4.3703 6.554-5.0866 7.63C21 67.6 21 68.2176 21 69.05v1.45c0 1.45 1.45 2.9 2.897 2.9h52.206C77.55 73.4 79 71.95 79 70.5v-1.45c0-.8323 0-1.45-.7134-2.52zM41.3 67.6l1.74-2.9h13.92l1.74 2.9H41.3zM67.4 56H32.6V32.8h34.8V56z" fill="#0F5C87"/></g></svg>