<svg width="104" height="104" viewBox="0 0 104 104" xmlns="http://www.w3.org/2000/svg"><title>career-cluster-law-public-safety-corrections-and-security</title><g transform="translate(2 2)" fill="none" fill-rule="evenodd"><rect stroke="#B8539D" stroke-width="3" fill="#FFF" width="100" height="100" rx="6"/><path d="M70.626 47.907v-1.165c.004-1.705-1.37-3.0933-3.075-3.107H66.7v-5.014C66.7 28.906 59.426 21 50.484 21s-16.215 7.906-16.215 17.621v5.014h-.855c-1.7058.0137-3.08 1.403-3.075 3.109v1.165c-.2214.6692-.3358 1.369-.339 2.074V72.35c.0024.7048.1165 1.405.338 2.074v1.171c-.005 1.706 1.3692 3.0953 3.075 3.109h1.137c.665.2277 1.363.3442 2.066.345h27.733c.704-.001 1.403-.1175 2.069-.345h1.134c1.7058-.0137 3.08-1.403 3.075-3.109v-1.172c.2223-.669.3374-1.369.341-2.074V49.983c-.004-.706-.1192-1.4068-.341-2.077M50.483 27.217c5.555 0 10.07 5.116 10.07 11.4v4.668H40.412v-4.664c0-6.287 4.518-11.4 10.07-11.4M48.4 59.819l-2.748 9.721c-.119.314-.07.667.13.9365.2003.2696.524.4187.859.3955h7.234c.335.0232.6587-.126.859-.3955.2-.2695.249-.6225.13-.9365m0 0l-2.748-9.721c1.9927-.8787 3.0976-3.033 2.6485-5.164-.449-2.131-2.3292-3.6564-4.507-3.6564-2.1778 0-4.058 1.5253-4.507 3.6563-.449 2.131.6558 4.2853 2.6485 5.164" fill="#B8539D"/></g></svg>