<svg width="104" height="104" viewBox="0 0 104 104" xmlns="http://www.w3.org/2000/svg"><title>career-cluster-manufacturing</title><g transform="translate(2 2)" fill="none" fill-rule="evenodd"><rect stroke="#715EAB" stroke-width="3" fill="#FFF" width="100" height="100" rx="6"/><path d="M55.088 25.186c-.1338-.201-.2423-.4177-.323-.6452l.1177-.1095.6233.2615.6786.2714c.275.1095.556.2034.8414.2814.147.051.2985.0884.4524.1113.0787.0107.1547.0324.2316.047.077.0144.1548.008.2317.018.3038.0267.6095.024.913-.008.1446-.0553.3075-.0707.4658-.1395.1626-.0713.3196-.1547.4696-.2497.0725-.0506.1458-.1022.2254-.1538.096-.0444.1834-.1057.2578-.181l.5547-.475c-.0057.007-.0106.0147-.0146.0227l.01-.0082.018-.0162.037-.0335.0725-.066.1456-.1304.2714-.265c.1728-.181.39-.323.5646-.4977.1746-.1746.4017-.2913.5844-.4668.1964-.1576.4262-.2716.648-.428.4576-.2464.976-.357 1.4945-.3186.1222.0127.2398.0326.3565.0552.1167.0227.219.0706.323.1113.2005.0716.3928.1644.5736.2768.3113.1845.596.4106.846.6722.1907.198.3597.4157.504.6496.0963.1508.1792.3098.2478.475.0426.1195.0652.181.0652.181l-.1167.1104s-.25-.0905-.6335-.2497c-.1873-.076-.4135-.172-.674-.2787-.2606-.1068-.5275-.2217-.8206-.322-.1463-.0587-.296-.1086-.448-.1494-.077-.019-.153-.0498-.2307-.0733-.0784-.0158-.1558-.0363-.2316-.0616-.3355-.122-.6836-.2057-1.0378-.2497-.202.006-.4023.039-.5954.0986-.201.077-.3853.1918-.543.3384-.1652.1504-.308.3238-.4242.5148l-.152.3103-.0697.1565-.0344.077-.0172.0398v.0363l-.0207.0325-.2994.6732c-.1408.2456-.311.4732-.5068.6776-.1994.2077-.4206.3933-.6596.5537-.2467.1516-.5068.28-.7772.3837-.525.1643-1.0844.184-1.6195.057-.236-.0484-.4645-.1278-.6796-.2362-.1965-.089-.3853-.194-.5645-.314-.3036-.2022-.5808-.4414-.8253-.712-.1907-.2008-.3605-.4206-.5067-.656zM79 63.337v13.851H22V63.337h3.8832V47.775l10.9413-7.8243v7.8244l10.9395-7.8243v7.8244l10.9413-7.8243v15.381h3.7756l2.05-27.2054h6.2574l1.795 27.2053h4.21v8.0045H79v.001zm-39.1328-5.9814h-8.6015v8.094h8.6024v-8.094h-.0008zm14.8228 0h-8.6016v8.094h8.6025v-8.094h-.001zm15.009 0h-8.6015v8.094h8.6015v-8.094z" fill="#7C6BB2"/></g></svg>