<svg width="104" height="104" viewBox="0 0 104 104" xmlns="http://www.w3.org/2000/svg"><title>career-cluster-stem-science-technology-engineering-and-mathematics</title><g transform="translate(2 2)" fill="none" fill-rule="evenodd"><rect stroke="#2F9929" stroke-width="3" fill="#FFF" width="100" height="100" rx="6"/><path d="M51.5405 36.6563l.071-.374.36.133c.9007.358 1.9195.2537 2.7288-.2797.8093-.5334 1.307-1.4284 1.3332-2.3973.049-1.1454-.564-2.2173-1.576-2.756l-.335-.183.237-.3c.923-1.178 2.0248-2.2043 3.265-3.042l.317-.216.154.349c.6375 1.4464 2.292 2.1452 3.7733 1.5935 1.4812-.5517 2.2756-2.1624 1.8117-3.6735l-.111-.364.378-.047c1.485-.1755 2.9885-.118 4.456.17l.372.071-.135.355c-.5836 1.4722.0845 3.144 1.522 3.8084 1.4376.6644 3.1438.09 3.887-1.3084l.182-.337.3.238c1.175.929 2.1976 2.0356 3.031 3.28l.212.315-.351.158c-1.2755.566-1.9925 1.9365-1.7298 3.307.2626 1.3704 1.4354 2.3788 2.8298 2.433.3315.0114.6625-.0336.979-.133l.369-.108.04.383c.0896.7434.1194 1.493.089 2.241-.0255.7482-.1097 1.493-.252 2.228l-.083.382-.354-.136c-.3093-.1212-.637-.1888-.969-.2-1.3928-.0464-2.6342.8723-2.9967 2.2178-.3626 1.3457.249 2.7637 1.4767 3.4233l.335.179-.234.3c-.925 1.178-2.0276 2.2053-3.268 3.045l-.314.213-.157-.352c-.5582-1.277-1.9267-1.997-3.2953-1.7333-1.3686.2636-2.3718 1.4403-2.4157 2.8333-.0148.3305.028.661.126.977l.114.371-.379.043c-.7413.0864-1.488.1175-2.234.093-.745-.0324-1.4867-.1193-2.219-.26l-.375-.074.139-.359c.119-.3092.1866-.636.2-.967.0643-1.6528-1.2214-3.0457-2.874-3.114-1.1434-.0475-2.2115.569-2.742 1.583l-.182.34-.3-.241c-1.1745-.9274-2.1945-2.035-3.022-3.282l-.222-.318.354-.158c1.0504-.4572 1.743-1.479 1.779-2.624.0654-1.6535-1.2206-3.0478-2.874-3.116-.331-.009-.6614.0358-.978.133l-.363.111-.049-.38c-.1676-1.492-.1107-3.0008.169-4.476m7.449 2.528c-.1232 3.6694 2.749 6.7452 6.418 6.8733 3.6693.128 6.749-2.74 6.882-6.409.1328-3.669-2.731-6.7525-6.4-6.8903-3.6766-.122-6.7606 2.75-6.9 6.426m-39.772 14.5l.077-.485.462.158c.4002.1398.821.211 1.245.211 1.7828-.0068 3.326-1.2404 3.7257-2.9778.3995-1.7375-.45-3.5213-2.0507-4.3062l-.437-.213.283-.4c1.127-1.5475 2.4855-2.9122 4.028-4.046l.4-.293.212.445c.776 1.606 2.5613 2.4602 4.2987 2.0563 1.7374-.4038 2.963-1.9576 2.9513-3.7413-.0012-.425-.0718-.8468-.209-1.249l-.16-.461.483-.077c1.8886-.294 3.8114-.294 5.7 0l.475.079-.16.461c-.1373.4022-.208.824-.209 1.249-.012 1.7837 1.2138 3.3375 2.9513 3.7413 1.7374.404 3.5227-.4502 4.2987-2.0563l.212-.445.394.293c1.5453 1.135 2.9042 2.5037 4.028 4.057l.286.393-.434.207c-1.5996.7845-2.4488 2.5668-2.0504 4.3032.3986 1.7365 1.94 2.9703 3.7215 2.9788.4244-.0003.8456-.0723 1.246-.213l.462-.158.074.489c.2954 1.8966.2954 3.8275 0 5.724l-.074.476-.462-.157c-.4002-.142-.8215-.215-1.246-.216-1.7816.0086-3.323 1.2424-3.7214 2.9788-.3983 1.7366.451 3.519 2.0505 4.3033l.434.213-.286.4c-1.1252 1.549-2.484 2.914-4.028 4.046l-.394.287-.212-.439c-.631-1.3212-1.9667-2.161-3.431-2.157-1.2365.0055-2.3945.6068-3.1103 1.615-.7158 1.0084-.9014 2.3-.4987 3.469l.16.47-.48.071c-1.8884.2966-3.8116.2966-5.7 0l-.483-.071.16-.47c.403-1.1696.217-2.4617-.4996-3.47-.7166-1.0086-1.8755-1.6095-3.1125-1.614-1.4626-.0006-2.7957.8383-3.428 2.157l-.212.439-.4-.287c-1.5426-1.1337-2.9012-2.4984-4.028-4.046l-.283-.4.437-.213c1.5932-.788 2.4368-2.567 2.0388-4.2994-.398-1.7325-1.9334-2.965-3.7108-2.9787-.4235.0016-.8438.0746-1.243.216l-.464.153-.077-.482c-.2913-1.8968-.2913-3.827 0-5.724m9.641 2.859c.0182 4.6972 3.8374 8.492 8.5346 8.48 4.6972-.012 8.497-3.826 8.4914-8.5233-.0057-4.697-3.8147-8.502-8.512-8.5027-4.7075.017-8.5145 3.8385-8.514 8.546" fill="#2F9929"/></g></svg>