<svg width="104" height="104" viewBox="0 0 104 104" xmlns="http://www.w3.org/2000/svg"><title>career-cluster-transportation-distribution-and-logistics</title><g transform="translate(2 2)" fill="none" fill-rule="evenodd"><rect stroke="#0F5C87" stroke-width="3" fill="#FFF" width="100" height="100" rx="6"/><path d="M75.7446 39.3738h-9.3738v-6.2492c0-1.7185-1.406-3.1246-3.1246-3.1246l-40.1606-.5493c-1.7186 0-3.1247 1.406-3.1247 3.1246v24.997l3.1246 3.1246 11.598.5492c-.5312.9186-.8374 1.9872-.8374 3.1246 0 3.4527 2.7965 6.2492 6.2492 6.2492s6.2493-2.7965 6.2493-6.2492c0-1.1374-.3063-2.206-.8374-3.1246h21.701c-.5313.9186-.8375 1.9872-.8375 3.1246 0 3.4527 2.7965 6.2492 6.2492 6.2492s6.2492-2.7965 6.2492-6.2492c0-1.1374-.3062-2.206-.8374-3.1246h3.962v-9.374L75.7446 39.374zm-9.3738 3.1247h6.4773l4.687 9.3738H66.3708v-9.3738z" fill="#0F5C87"/></g></svg>