<?xml version="1.0" encoding="UTF-8" standalone="no"?>
<svg width="96px" height="110px" viewBox="0 0 96 110" version="1.1" xmlns="http://www.w3.org/2000/svg" xmlns:xlink="http://www.w3.org/1999/xlink">
    <!-- Generator: Sketch 39.1 (31720) - http://www.bohemiancoding.com/sketch -->
    <title>stem-areas-science</title>
    <desc>Created with Sketch.</desc>
    <defs>
        <polygon id="path-1" points="55 5 98.3012702 30 98.3012702 80 55 105 11.6987298 80 11.6987298 30"></polygon>
        <mask id="mask-2" maskContentUnits="userSpaceOnUse" maskUnits="objectBoundingBox" x="0" y="0" width="100" height="100" fill="white">
            <use xlink:href="#path-1"></use>
        </mask>
    </defs>
    <g id="STEM-areas,-featured,-prep" stroke="none" stroke-width="1" fill="none" fill-rule="evenodd">
        <g id="icon-stem-areas-science" transform="translate(-16.000000, -9.000000)">
            <g id="stem-areas-science" transform="translate(9.000000, 9.000000)">
                <polygon id="Polygon" fill="#2F9929" points="55 0 102.631397 27.5 102.631397 82.5 55 110 7.36860279 82.5 7.36860279 27.5"></polygon>
                <use id="Polygon-line" stroke="#9DDE99" mask="url(#mask-2)" stroke-width="2" xlink:href="#path-1"></use>
                <g id="science-art" transform="translate(31.000000, 28.000000)" fill="#FFFFFF">
                    <g id="Asset-1">
                        <g id="Layer_2">
                            <g id="Layer_1-2">
                                <path d="M22.1254797,12.6774198 L22.1254797,12.5683198 L22.1254797,12.5683198 L22.1254797,12.6774198 Z M41.2834394,28.5623796 L41.0215994,27.7550396 C40.6070194,26.5985796 40.2360794,25.5730396 39.9305994,24.8747997 C44.0327594,19.7907397 45.8219994,15.2739998 43.9454794,12.6992398 C42.0689594,10.1244799 38.2068195,10.5172399 33.0354795,12.1755598 C32.5117995,11.4773198 31.9881196,10.8008998 31.4426196,10.1681199 L31.0062196,9.66625986 L30.3297996,8.94619987 C37.2903795,6.9823999 43.2254194,7.63699989 45.9092794,11.2809398 C48.9422593,15.4703798 46.9784593,22.4745997 41.5452794,29.3697196 L41.2834394,28.5623796 Z M16.8013998,27.1004396 C17.0334791,23.325545 20.2716664,20.4473761 24.0477206,20.6597576 C27.8237747,20.8721391 30.7187989,24.0952661 30.5261211,27.8723768 C30.3334433,31.6494876 27.1254643,34.5612885 23.3473997,34.3883195 C21.5098714,34.2982827 19.7845236,33.4776451 18.5551662,32.1089606 C17.3258089,30.740276 16.6944003,28.9370582 16.8013998,27.1004396 L16.8013998,27.1004396 Z M34.3883195,36.6139595 L34.3883195,36.6139595 L34.3883195,36.6139595 C34.3883195,36.6139595 34.3010395,36.4393995 34.3446795,36.6139595 L34.3883195,36.6139595 Z M11.3463998,33.6682595 C10.8445398,32.6645395 10.3863199,31.6826396 9.94991986,30.6789196 C10.2553999,30.3297996 10.5826999,29.9588596 10.3863199,30.1988796 L11.2809398,29.2169796 L11.9573598,28.5187396 L12.9610798,27.5150196 L13.3974798,27.1004396 C14.0084398,28.5841996 14.6848598,30.0897796 15.4485598,31.6171796 C16.2122598,33.1445795 16.6704798,33.9737395 19.2670597,38.2940995 L18.6560997,38.5995795 L17.4559998,39.2759995 L16.6268398,39.6469394 L15.5358398,40.1051594 L15.1430798,40.2578994 C13.7167605,38.1579784 12.4477377,35.9554216 11.3463998,33.6682595 L11.3463998,33.6682595 Z M1.44011998,43.6399994 C-3.03297996,37.5085795 3.27299995,25.2675596 15.5358398,16.2995398 C17.5371175,14.8594667 19.6369964,13.5616249 21.8199997,12.4155798 L21.8199997,12.4155798 L21.8199997,12.4155798 L21.8199997,12.4155798 L22.8018997,13.5720398 L23.1946597,14.0738998 L23.1946597,14.0738998 L23.1946597,14.0738998 L23.1946597,14.2048198 L23.1946597,14.2048198 L24.2856597,15.6449398 L24.5038597,15.9285998 C22.2261737,17.1614702 20.0386974,18.5541635 17.9578597,20.0962197 C7.0478599,28.3659996 0.392759995,38.2504595 3.38209995,42.3307994 C6.37143991,46.4111394 17.8705798,43.1163194 29.0860596,34.9338195 C30.4825396,33.9082795 31.8135596,32.7518195 32.9481995,31.8790196 C32.4463395,30.4607196 32.6863595,31.1371396 32.9481995,31.8790196 L32.9481995,31.8790196 L33.5591595,33.7773595 C33.0791195,32.1626796 33.4064195,33.2318595 33.7337195,34.3228595 C33.5809795,33.7337195 33.7337195,34.4974195 34.1919395,35.9811795 C34.1919395,35.9811795 34.1919395,36.1120995 34.3446795,36.6357795 L34.3446795,36.6357795 C35.5229595,35.6538795 34.9338195,36.1557395 34.3446795,36.6357795 L34.3446795,36.6357795 L34.2137595,36.0902795 L34.3446795,36.6357795 C33.5373395,37.3340195 32.6645395,37.9886195 31.7699196,38.6432195 C19.5070797,47.5894193 5.93503992,49.8805193 1.44011998,43.6399994 L1.44011998,43.6399994 Z M21.0781197,47.0002793 L22.5400597,46.4111394 L21.0999397,46.9784593 L22.5400597,46.4111394 C23.2134604,46.1560576 23.86946,45.8572133 24.5038597,45.5165194 L24.9184397,45.3419594 C28.7587596,49.2695593 32.4463395,51.1242593 34.8901795,49.9023393 C37.3340195,48.6804193 38.1413595,44.2727794 37.0721795,38.4904795 L37.0721795,38.4904795 L36.7448795,36.5703195 C36.0640893,33.5893674 35.137198,30.6700245 33.9737395,27.8423196 L31.7917396,23.1946597 C31.1807796,21.9945597 30.5698196,20.8380997 29.9370396,19.7252797 L28.3659996,17.3468998 L27.9950596,16.7577598 C26.267321,14.1442734 24.3181691,11.684108 22.1691197,9.40441987 L22.1691197,9.40441987 L20.4889797,7.85519989 L20.0743997,7.4406199 L18.3724397,6.19687991 L18.3724397,6.19687991 L16.6922998,5.30225993 L16.4522798,5.30225993 L15.8849598,5.14951993 L15.8849598,5.14951993 C14.8034243,4.69490578 13.5843953,4.69490578 12.5028598,5.14951993 C9.77535986,6.50235991 9.16439987,11.3463998 10.4735999,17.6741998 L10.2553999,17.8705798 C9.18784312,18.7384565 8.1680825,19.663525 7.2005999,20.6417197 C9.18621987,18.6342797 8.02975989,19.7470997 6.9387599,20.9035597 C5.28043993,12.3064798 6.76419991,5.21497993 11.3027598,2.90205996 C12.8489184,2.15145607 14.6091595,1.96616754 16.2777198,2.37837997 L17.1505198,2.37837997 C20.4275552,3.41043468 23.4169107,5.19657458 25.8785196,7.59335989 L26.2276396,7.87701989 C25.2457396,6.9823999 25.3766596,7.0914999 26.2276396,7.87701989 L26.2276396,7.87701989 L26.2276396,7.87701989 C26.0530796,7.72427989 25.9003396,7.57153989 26.2276396,7.87701989 L26.2276396,7.87701989 L26.2276396,7.87701989 C28.5029132,9.93483696 30.498296,12.2823461 32.1626796,14.8594198 L32.1626796,14.8594198 C32.5117995,15.3612798 32.8390995,15.8631398 33.8428195,17.4778198 C32.5336195,15.2958198 33.2536795,16.4740998 34.0173795,17.7614798 C34.1482995,17.9360397 35.0865595,19.5943597 35.9593595,21.3399597 L37.3340195,24.3074797 L37.3340195,24.3074797 C38.6695869,27.4693647 39.6785477,30.7594542 40.3451794,34.1264795 L40.3451794,34.1264795 C40.3451794,34.6719795 40.5415594,35.1956595 40.6506594,36.0029995 C40.3015394,33.8209995 40.5197394,35.0429195 40.6506594,36.1775595 L40.6506594,36.1775595 C41.6761994,43.7927394 40.0833394,49.9677993 35.8502595,52.0625193 C31.6171796,54.1572392 26.3149196,52.0406993 21.0562997,47.1093793 L21.0781197,47.0002793 Z" id="Shape"></path>
                            </g>
                        </g>
                    </g>
                </g>
            </g>
        </g>
    </g>
</svg>