<?xml version="1.0" encoding="UTF-8" standalone="no"?>
<svg width="96px" height="110px" viewBox="0 0 96 110" version="1.1" xmlns="http://www.w3.org/2000/svg" xmlns:xlink="http://www.w3.org/1999/xlink">
    <!-- Generator: Sketch 39.1 (31720) - http://www.bohemiancoding.com/sketch -->
    <title>stem-areas-engineering</title>
    <desc>Created with Sketch.</desc>
    <defs>
        <polygon id="path-1" points="55 5 98.3012702 30 98.3012702 80 55 105 11.6987298 80 11.6987298 30"></polygon>
        <mask id="mask-2" maskContentUnits="userSpaceOnUse" maskUnits="objectBoundingBox" x="0" y="0" width="100" height="100" fill="white">
            <use xlink:href="#path-1"></use>
        </mask>
    </defs>
    <g id="STEM-areas,-featured,-prep" stroke="none" stroke-width="1" fill="none" fill-rule="evenodd">
        <g id="icon-stem-areas-engineering" transform="translate(-16.000000, -9.000000)">
            <g id="stem-areas-engineering" transform="translate(9.000000, 9.000000)">
                <polygon id="Polygon" fill="#166890" points="55 0 102.631397 27.5 102.631397 82.5 55 110 7.36860279 82.5 7.36860279 27.5"></polygon>
                <use id="Polygon-line" stroke="#C9D8E0" mask="url(#mask-2)" stroke-width="2" xlink:href="#path-1"></use>
                <g id="engineering-art" transform="translate(31.000000, 32.000000)" fill="#FFFFFF">
                    <g id="gears">
                        <g id="Layer_2">
                            <g id="Layer_1-2">
                                <path d="M22.5839992,31.5839989 C23.6284669,28.8930231 22.2962232,25.8645554 19.6067777,24.8161535 C16.9173321,23.7677516 13.8869194,25.095565 12.8345855,27.7834745 C11.7822516,30.4713839 13.1056318,33.5037352 15.7919995,34.5599988 C18.4892024,35.6062984 21.5248613,34.2761864 22.5839992,31.5839989 L22.5839992,31.5839989 Z M13.6319995,44.9519985 L10.4639996,43.7279985 C9.93599967,43.5119985 9.76799967,42.7439986 10.0559997,41.9759986 L11.1359996,39.1439987 C10.1510697,38.485405 9.27629974,37.6754328 8.54399971,36.7439988 L5.78399981,37.9679987 C5.03999983,38.2799987 4.24799986,38.1359987 4.00799987,37.6319987 L2.63999991,34.4879988 C2.42399992,33.9599989 2.83199991,33.2879989 3.57599988,32.9519989 L6.33599979,31.7279989 C6.15159111,30.5511794 6.15159111,29.3528186 6.33599979,28.1759991 L3.45599988,27.0719991 C2.68799991,26.7839991 2.23199993,26.1119991 2.44799992,25.5839991 L3.67199988,22.4159992 C3.86399987,21.8879993 4.65599984,21.7199993 5.42399982,22.0079993 L8.23199972,23.0879992 C8.89503621,22.1135575 9.70457586,21.2473501 10.6319996,20.5199993 L9.59999968,17.7599994 C9.26399969,17.0159994 9.40799969,16.2239995 9.93599967,15.9839995 L13.0319996,14.6159995 C13.5359995,14.3999995 14.2319995,14.8079995 14.5679995,15.5519995 L15.7919995,18.3359994 C16.9181094,18.1427752 18.0667335,18.1185085 19.1999994,18.2639994 L20.3039993,15.4319995 C20.4123717,15.1484486 20.5848683,14.8938107 20.8079993,14.6879995 C21.3548308,15.6600245 22.4063843,16.236983 23.5199992,16.1759995 L24.5759992,16.1759995 L24.5759992,16.4159995 L24.5759992,16.6319994 L23.9999992,17.3759994 C22.9790336,18.4431309 22.9790336,20.1248678 23.9999992,21.1919993 L25.8959991,22.9919992 C27.0356807,23.9190793 28.7063339,23.7701039 29.663999,22.6559992 L30.407999,21.8639993 L30.623999,21.8639993 L30.887999,21.8639993 L30.887999,22.9439992 C30.8659503,24.1143759 31.5603211,25.179712 32.6399989,25.6319991 C32.4371584,25.9076704 32.1634805,26.1232954 31.8479989,26.2559991 L29.039999,27.4799991 C29.2211421,28.6490235 29.2211421,29.8389745 29.039999,31.007999 L31.8959989,32.1119989 C32.6639989,32.3999989 33.1199989,33.0719989 32.9039989,33.5999989 L31.6799989,36.7679988 C31.4639989,37.2959988 30.695999,37.4879987 29.927999,37.1999988 L27.0719991,36.0959988 C26.4080664,37.0697235 25.5986471,37.9358022 24.6719992,38.6639987 L25.8959991,41.4479986 C26.2319991,42.1919986 26.0879991,42.9839986 25.5599991,43.2239986 L22.4639992,44.5919985 C21.9599993,44.8319985 21.2639993,44.3999985 20.9279993,43.6559985 L19.7039993,40.8719986 C18.5352163,41.0562496 17.3447825,41.0562496 16.1759995,40.8719986 L15.0719995,43.7039985 C14.8079995,44.7119985 14.1359995,45.1439985 13.6319995,44.9519985 L13.6319995,44.9519985 Z" id="Shape"></path>
                                <path d="M38.3999987,11.9999996 C38.3463706,9.77413104 36.4986936,8.01305898 34.2728149,8.06626652 C32.0469363,8.11947405 30.2855151,9.96681821 30.338302,12.1927069 C30.391089,14.4185955 32.2381002,16.1803658 34.4639988,16.1279995 C35.5334518,16.1028396 36.549071,15.653716 37.2872783,14.8794986 C38.0254856,14.1052811 38.4257648,13.0694381 38.3999987,11.9999996 L38.3999987,11.9999996 Z M32.5679989,23.0639992 L32.5679989,20.6639993 C31.6733625,20.4723813 30.814724,20.1402664 30.023999,19.6799993 L28.415999,21.3599993 C27.9839991,21.8159993 27.3839991,21.9359993 27.0719991,21.6479993 L25.1999992,19.8479993 C24.8879992,19.5599993 24.9839992,18.9359994 25.4159991,18.4799994 L27.0239991,16.7999994 C26.5358122,16.0609522 26.1635093,15.2515981 25.9199991,14.3999995 L23.5199992,14.3999995 C22.8959992,14.3999995 22.3679993,14.0639995 22.3679993,13.6319995 L22.3679993,11.0159996 C22.3679993,10.5839996 22.8479992,10.2239997 23.4959992,10.1999997 L25.8959991,10.1999997 C26.0910243,9.30638375 26.4229391,8.44826257 26.8799991,7.65599974 L25.1999992,6.0479998 C24.756535,5.80522052 24.561518,5.2714899 24.7439992,4.79999984 L26.5439991,2.9039999 C26.8319991,2.59199991 27.4559991,2.68799991 27.9119991,3.1199999 L29.591999,4.72799984 C30.3324792,4.24239513 31.1414287,3.87027835 31.9919989,3.62399988 L31.9919989,1.22399996 C31.9919989,0.59999998 32.3039989,0.0719999976 32.7359989,0.0719999976 L35.3519988,0.0719999976 C35.7839988,0.0719999976 36.1439988,0.551999982 36.1679988,1.19999996 L36.1679988,3.59999988 C37.0539973,3.79515846 37.904189,4.12713808 38.6879987,4.58399985 L40.2959987,2.8799999 C40.7999986,2.39999992 41.4479986,2.15999993 41.7599986,2.39999992 L43.6559985,4.19999986 C43.9679985,4.51199985 43.8719985,5.11199983 43.4399985,5.56799981 L41.8079986,7.27199976 C42.2920453,8.01334178 42.6640519,8.82205163 42.9119986,9.67199968 L45.3119985,9.67199968 C45.9359985,9.67199968 46.4639984,9.98399967 46.4639984,10.4159997 L46.4639984,13.0079996 C46.4639984,13.4399996 45.9839985,13.7999995 45.3359985,13.8239995 L42.9359986,13.8239995 C42.7375496,14.7089965 42.4057619,15.5586967 41.9519986,16.3439995 L43.6559985,17.9519994 C44.1119985,18.3839994 44.2319985,18.9839994 43.9439985,19.3199994 L42.1439986,21.1919993 C41.8559986,21.5039993 41.2319986,21.4079993 40.7759986,20.9759993 L39.0719987,19.3679994 C38.3327686,19.8558573 37.5234665,20.2281362 36.6719988,20.4719993 L36.6719988,22.8719992 C36.6719988,23.4959992 36.3359988,24.0239992 35.9279988,24.0239992 L33.3119989,24.0239992 C32.9519989,24.1919992 32.5919989,23.7119992 32.5679989,23.0639992 L32.5679989,23.0639992 Z" id="Shape"></path>
                            </g>
                        </g>
                    </g>
                </g>
            </g>
        </g>
    </g>
</svg>