<?xml version="1.0" encoding="UTF-8" standalone="no"?>
<svg width="96px" height="110px" viewBox="0 0 96 110" version="1.1" xmlns="http://www.w3.org/2000/svg" xmlns:xlink="http://www.w3.org/1999/xlink">
    <!-- Generator: Sketch 39.1 (31720) - http://www.bohemiancoding.com/sketch -->
    <title>stem-areas-math</title>
    <desc>Created with Sketch.</desc>
    <defs>
        <polygon id="path-1" points="55 5 98.3012702 30 98.3012702 80 55 105 11.6987298 80 11.6987298 30"></polygon>
        <mask id="mask-2" maskContentUnits="userSpaceOnUse" maskUnits="objectBoundingBox" x="0" y="0" width="100" height="100" fill="white">
            <use xlink:href="#path-1"></use>
        </mask>
    </defs>
    <g id="STEM-areas,-featured,-prep" stroke="none" stroke-width="1" fill="none" fill-rule="evenodd">
        <g id="icon-stem-areas-math" transform="translate(-16.000000, -9.000000)">
            <g id="stem-areas-math" transform="translate(9.000000, 9.000000)">
                <polygon id="Polygon" fill="#7C6BB2" points="55 0 102.631397 27.5 102.631397 82.5 55 110 7.36860279 82.5 7.36860279 27.5"></polygon>
                <use id="Polygon-line" stroke="#D0C7EF" mask="url(#mask-2)" stroke-width="2" xlink:href="#path-1"></use>
                <g id="math-art" transform="translate(29.000000, 30.000000)" fill="#FFFFFF">
                    <g id="Asset-1">
                        <g id="Layer_2">
                            <g id="Layer_1-2">
                                <path d="M17.9788951,16.2551904 L15.5569808,27.0119808 C14.8154067,30.7872297 13.6970377,34.4785784 12.2186666,38.0305997 C11.3777349,39.9981649 10.0755541,41.7344061 8.42215232,43.0926188 C6.99181517,44.1757352 5.24142748,44.7515206 3.4474095,44.7290473 C2.51727892,44.8041852 1.59228373,44.5321278 0.850942851,43.9653807 C0.319152796,43.5316772 0.0074135806,42.8842188 -2.56847495e-16,42.1980378 C-0.0166100747,41.5705919 0.23779361,40.9663831 0.698209519,40.5397902 C1.1795973,40.067028 1.83502739,39.814332 2.50919046,39.8415807 C3.04224999,39.8004043 3.56714736,39.9912761 3.94924759,40.3652378 C4.28806129,40.7325354 4.46838155,41.2186161 4.45108568,41.7180188 C4.48576783,42.1135511 4.37737831,42.5083986 4.14561902,42.8307902 C3.94924759,43.0707997 3.84015236,43.223533 3.84015236,43.3108092 L3.84015236,43.4853616 C3.92417532,43.559624 4.03356175,43.5986906 4.14561902,43.5944569 C4.54678117,43.6018789 4.93336058,43.4440913 5.21475235,43.1580759 C5.95515724,42.414929 6.51502056,41.5116829 6.85118091,40.5179712 C7.09846344,39.8052156 7.57848249,37.9215045 8.29123804,34.8668379 L12.5895904,16.2551904 L9.70947613,16.2551904 L10.3858666,13.5278094 C11.1392765,13.5827897 11.8934623,13.4319526 12.5677713,13.0914285 C13.2448435,12.5020664 13.762601,11.7516932 14.0732856,10.9095237 C15.2161238,8.36008771 16.8898177,6.08386402 18.9825713,4.23289521 C20.5696723,2.89668852 22.5808705,2.16956303 24.6555236,2.18190475 C25.6954749,2.09003316 26.7318008,2.3939182 27.557457,3.0328476 C28.1442474,3.60534994 28.468046,4.39510259 28.4520379,5.21475235 C28.4862193,5.90745967 28.2692899,6.5892379 27.8411046,7.13482852 C27.4729676,7.58622116 26.917972,7.84361042 26.3355903,7.83303804 C25.8133571,7.8467673 25.3112093,7.63156109 24.9609903,7.24392376 C24.6016478,6.86890499 24.4055125,6.36679853 24.4155141,5.84750472 C24.4297588,5.41083651 24.5495409,4.98411297 24.7646189,4.60381902 C24.9384941,4.33138809 25.0571118,4.02743028 25.1137236,3.70923807 C25.1209243,3.55608933 25.0658297,3.406547 24.9609903,3.29467617 C24.8610841,3.18297438 24.7181076,3.11942927 24.5682475,3.12012379 C23.5138912,3.26943788 22.5877148,3.8976271 22.059057,4.82200949 C20.3011651,7.44212663 19.1324392,10.4123281 18.6334665,13.5278094 L21.6444951,13.5278094 L20.9244665,16.2551904 L17.9788951,16.2551904 Z" id="Shape"></path>
                                <path d="M26.182857,43.3544473 L23.6736665,43.3544473 C22.3834478,41.4173961 21.3699891,39.3096958 20.662638,37.0923807 C20.0067379,35.1062525 19.6608464,33.0309036 19.6371427,30.9394093 C19.6247722,28.5235659 20.061285,26.1264444 20.9244665,23.8700379 C21.6428174,21.9876198 22.5880108,20.1998122 23.7391237,18.5461904 L26.182857,18.5461904 C25.1743555,20.6507043 24.3565059,22.8413728 23.7391237,25.0919046 C23.2900259,27.0008575 23.0702825,28.9565736 23.0845522,30.9175903 C23.0870763,32.3809038 23.2184985,33.8411507 23.4772951,35.2813998 C23.7254878,36.7103611 24.0829138,38.1181818 24.5464284,39.4924759 C24.8664411,40.423422 25.4119173,41.7107458 26.182857,43.3544473 L26.182857,43.3544473 Z" id="Shape"></path>
                                <path d="M28.3647617,26.5974189 L32.7285712,25.8337522 C33.5497629,27.1312561 34.1334352,28.5645779 34.452276,30.0666474 C35.0458349,29.1607431 35.6867501,28.2867678 36.3723521,27.4483617 C36.7690188,26.9361594 37.2483417,26.4937075 37.7905902,26.1392189 C38.1584591,25.9378605 38.5712672,25.8327821 38.9906378,25.8337522 C39.392879,25.8086886 39.7876234,25.9507966 40.0815902,26.2264951 C40.3425225,26.5106248 40.476455,26.888787 40.452514,27.2738093 C40.4670415,27.6443472 40.3335914,28.0054474 40.0815902,28.2774855 C39.837536,28.5338461 39.497273,28.6762817 39.1433712,28.6702284 C38.825304,28.6605036 38.5098809,28.6091557 38.2051521,28.517495 C37.9646649,28.4378543 37.7156932,28.3865954 37.4633045,28.3647617 C37.0867884,28.3754072 36.7251149,28.5139205 36.4378093,28.7575046 C35.7666333,29.3866859 35.2060646,30.1242764 34.7795617,30.9394093 C35.1381379,32.5912208 35.7256541,34.1848584 36.5250855,35.6741426 C36.6939418,35.9551379 36.984631,36.140856 37.3105712,36.1759807 C37.5203616,36.1808125 37.72639,36.119767 37.8996855,36.0014283 C38.3428724,35.6032245 38.7316854,35.1483867 39.056095,34.6486474 L39.514295,34.910476 C38.9614301,35.9024755 38.2202746,36.7770389 37.3323902,37.4851236 C36.8680652,37.8437519 36.303958,38.0495748 35.7177807,38.0742378 C35.232921,38.089774 34.7544079,37.9606514 34.3431807,37.703314 C33.9188064,37.3936866 33.5807853,36.9805496 33.3613236,36.5032664 C32.9611787,35.6420916 32.625693,34.7523254 32.3576474,33.8413426 C31.3539712,35.1213934 30.5612125,36.0596125 29.9793712,36.6559998 C29.5725903,37.1159599 29.0935652,37.5065496 28.5611331,37.8124093 C28.1786076,37.9901357 27.7610289,38.0796169 27.3392665,38.0742378 C26.9440597,38.0958103 26.5573958,37.9537704 26.2701332,37.681495 C26.0058429,37.4157818 25.8636251,37.0523362 25.8773903,36.6778188 C25.8651724,36.2749102 26.0198619,35.8848368 26.3048923,35.5998065 C26.5899226,35.3147761 26.979996,35.1600867 27.3829046,35.1723045 C27.6558085,35.1805116 27.9237306,35.2474921 28.1683903,35.368676 C28.4580621,35.531062 28.7768586,35.6348562 29.1066093,35.6741426 C29.3411476,35.6790847 29.5733423,35.6266536 29.7829998,35.5214093 C30.1550205,35.293914 30.4867952,35.0063759 30.7648569,34.6704664 C31.0048665,34.4086379 31.4412474,33.8413426 32.0958188,32.9685807 C31.7007996,31.056216 31.0475138,29.2064629 30.1539236,27.4701808 C29.90521,27.0996849 29.4873797,26.8784806 29.0411522,26.8810665 C28.7581819,26.8533448 28.4731796,26.8533448 28.1902093,26.8810665 L28.3647617,26.5974189 Z" id="Shape"></path>
                                <path d="M41.1725426,43.3544473 C41.8852981,41.827114 42.3871362,40.6561585 42.6780569,39.8415807 C42.9995384,38.9117872 43.2690562,37.9648327 43.4853616,37.0051045 C43.7197456,36.0043168 43.9018179,34.991995 44.0308378,33.9722569 C44.1499343,32.9949592 44.2082306,32.0112091 44.2053902,31.0266855 C44.2173956,29.065788 43.9976822,27.110339 43.5508188,25.2009998 C42.9421629,22.9506506 42.1315675,20.7598522 41.1289045,18.6552856 L43.6380949,18.6552856 C44.9184916,20.4681595 45.9393093,22.4510429 46.6709425,24.5464284 C47.3765444,26.5739824 47.7379115,28.7053112 47.7400759,30.8521331 C47.7170042,32.8089215 47.4307897,34.7537124 46.889133,36.6341807 C46.1579757,39.028315 45.0613653,41.2951339 43.6380949,43.3544473 L41.1725426,43.3544473 Z" id="Shape"></path>
                            </g>
                        </g>
                    </g>
                </g>
            </g>
        </g>
    </g>
</svg>