<?xml version="1.0" encoding="UTF-8" standalone="no"?>
<svg width="96px" height="110px" viewBox="0 0 96 110" version="1.1" xmlns="http://www.w3.org/2000/svg" xmlns:xlink="http://www.w3.org/1999/xlink">
    <!-- Generator: Sketch 39.1 (31720) - http://www.bohemiancoding.com/sketch -->
    <title>stem-areas-multi</title>
    <desc>Created with Sketch.</desc>
    <defs>
        <polygon id="path-1" points="55 5 98.3012702 30 98.3012702 80 55 105 11.6987298 80 11.6987298 30"></polygon>
        <mask id="mask-2" maskContentUnits="userSpaceOnUse" maskUnits="objectBoundingBox" x="0" y="0" width="100" height="100" fill="white">
            <use xlink:href="#path-1"></use>
        </mask>
    </defs>
    <g id="STEM-areas,-featured,-prep" stroke="none" stroke-width="1" fill="none" fill-rule="evenodd">
        <g id="icon-stem-areas-multi" transform="translate(-16.000000, -9.000000)">
            <g id="stem-areas-multi" transform="translate(9.000000, 9.000000)">
                <polygon id="Polygon" fill="#C44D4D" points="55 0 102.631397 27.5 102.631397 82.5 55 110 7.36860279 82.5 7.36860279 27.5"></polygon>
                <use id="Polygon-line" stroke="#EAB4B4" mask="url(#mask-2)" stroke-width="2" xlink:href="#path-1"></use>
                <g id="multi-art" transform="translate(23.000000, 29.000000)" fill="#FFFFFF">
                    <g id="engineering-art" transform="translate(0.000000, 1.000000)">
                        <g id="gears">
                            <g id="Layer_2">
                                <g id="Layer_1-2">
                                    <path d="M13.174,18.424 C13.7832728,16.854264 13.0061306,15.0876578 11.4372874,14.47609 C9.86844406,13.8645222 8.10070324,14.6390801 7.4868418,16.2070273 C6.87298036,17.7749746 7.64495216,19.5438462 9.212,20.16 C10.7853685,20.7703414 12.5561695,19.9944428 13.174,18.424 L13.174,18.424 Z M7.952,26.222 L6.104,25.508 C5.796,25.382 5.698,24.934 5.866,24.486 L6.496,22.834 C5.9214575,22.4498203 5.41117503,21.9773366 4.984,21.434 L3.374,22.148 C2.94,22.33 2.478,22.246 2.338,21.952 L1.54,20.118 C1.414,19.81 1.652,19.418 2.086,19.222 L3.696,18.508 C3.58842827,17.8215219 3.58842827,17.1224781 3.696,16.436 L2.016,15.792 C1.568,15.624 1.302,15.232 1.428,14.924 L2.142,13.076 C2.254,12.768 2.716,12.67 3.164,12.838 L4.802,13.468 C5.18877129,12.8995756 5.66100277,12.394288 6.202,11.97 L5.6,10.36 C5.404,9.926 5.488,9.464 5.796,9.324 L7.602,8.526 C7.896,8.4 8.302,8.638 8.498,9.072 L9.212,10.696 C9.86889748,10.5832859 10.5389282,10.5691303 11.2,10.654 L11.844,9.002 C11.9072172,8.8365953 12.0078402,8.68805653 12.138,8.568 C12.4569851,9.13501458 13.0703913,9.47157372 13.72,9.436 L14.336,9.436 L14.336,9.576 L14.336,9.702 L14,10.136 C13.4044367,10.7584934 13.4044367,11.7395066 14,12.362 L15.106,13.412 C15.7708143,13.9527967 16.745362,13.8658944 17.304,13.216 L17.738,12.754 L17.864,12.754 L18.018,12.754 L18.018,13.384 C18.0051383,14.0667198 18.4101879,14.6881658 19.04,14.952 C18.9216764,15.1128082 18.7620309,15.2385895 18.578,15.316 L16.94,16.03 C17.0456668,16.7119309 17.0456668,17.4060691 16.94,18.088 L18.606,18.732 C19.054,18.9 19.32,19.292 19.194,19.6 L18.48,21.448 C18.354,21.756 17.906,21.868 17.458,21.7 L15.792,21.056 C15.4047059,21.6240061 14.9325446,22.1292187 14.392,22.554 L15.106,24.178 C15.302,24.612 15.218,25.074 14.91,25.214 L13.104,26.012 C12.81,26.152 12.404,25.9 12.208,25.466 L11.494,23.842 C10.8122099,23.9494797 10.1177901,23.9494797 9.436,23.842 L8.792,25.494 C8.638,26.082 8.246,26.334 7.952,26.222 L7.952,26.222 Z" id="Shape"></path>
                                    <path d="M22.4,7 C22.3687169,5.70157663 21.2909053,4.67428456 19.9924761,4.70532229 C18.6940468,4.73636002 17.6665511,5.81397748 17.6973435,7.11241258 C17.7281358,8.41084768 18.8055591,9.43854701 20.104,9.408 C20.7278476,9.39332341 21.3202921,9.13133464 21.7509131,8.67970779 C22.181534,8.22808094 22.4150302,7.62383917 22.4,7 L22.4,7 Z M18.998,13.454 L18.998,12.054 C18.4761288,11.9422228 17.9752563,11.7484891 17.514,11.48 L16.576,12.46 C16.324,12.726 15.974,12.796 15.792,12.628 L14.7,11.578 C14.518,11.41 14.574,11.046 14.826,10.78 L15.764,9.8 C15.4792243,9.3688891 15.2620476,8.89676583 15.12,8.4 L13.72,8.4 C13.356,8.4 13.048,8.204 13.048,7.952 L13.048,6.426 C13.048,6.174 13.328,5.964 13.706,5.95 L15.106,5.95 C15.2197647,5.42872403 15.4133817,4.92815333 15.68,4.466 L14.7,3.528 C14.4413126,3.38637875 14.3275527,3.07503588 14.434,2.8 L15.484,1.694 C15.652,1.512 16.016,1.568 16.282,1.82 L17.262,2.758 C17.6939468,2.47473057 18.165834,2.25766245 18.662,2.114 L18.662,0.714 C18.662,0.35 18.844,0.042 19.096,0.042 L20.622,0.042 C20.874,0.042 21.084,0.322 21.098,0.7 L21.098,2.1 C21.6148325,2.21384251 22.1107777,2.4074973 22.568,2.674 L23.506,1.68 C23.8,1.4 24.178,1.26 24.36,1.4 L25.466,2.45 C25.648,2.632 25.592,2.982 25.34,3.248 L24.388,4.242 C24.6703606,4.67444953 24.8873644,5.14619696 25.032,5.642 L26.432,5.642 C26.796,5.642 27.104,5.824 27.104,6.076 L27.104,7.588 C27.104,7.84 26.824,8.05 26.446,8.064 L25.046,8.064 C24.9302381,8.58024824 24.7366953,9.0759067 24.472,9.534 L25.466,10.472 C25.732,10.724 25.802,11.074 25.634,11.27 L24.584,12.362 C24.416,12.544 24.052,12.488 23.786,12.236 L22.792,11.298 C22.3607824,11.5825838 21.8886895,11.7997465 21.392,11.942 L21.392,13.342 C21.392,13.706 21.196,14.014 20.958,14.014 L19.432,14.014 C19.222,14.112 19.012,13.832 18.998,13.454 L18.998,13.454 Z" id="Shape"></path>
                                </g>
                            </g>
                        </g>
                    </g>
                    <g id="tech-art" transform="translate(21.000000, 30.000000)">
                        <g id="tablet">
                            <g id="Group">
                                <path d="M19.9375,27.5 L2.0625,27.5 C0.925375,27.5 0,26.574625 0,25.4375 L0,2.0625 C0,0.925375 0.925375,0 2.0625,0 L19.9375,0 C21.074625,0 22,0.925375 22,2.0625 L22,25.4375 C22,26.574625 21.074625,27.5 19.9375,27.5 L19.9375,27.5 Z M2.0625,1.375 C1.683,1.375 1.375,1.683 1.375,2.0625 L1.375,25.4375 C1.375,25.817 1.683,26.125 2.0625,26.125 L19.9375,26.125 C20.317,26.125 20.625,25.817 20.625,25.4375 L20.625,2.0625 C20.625,1.683 20.317,1.375 19.9375,1.375 L2.0625,1.375 L2.0625,1.375 Z" id="Shape"></path>
                                <path d="M11.6875,24.75 L10.3125,24.75 C9.933,24.75 9.625,24.442 9.625,24.0625 C9.625,23.683 9.933,23.375 10.3125,23.375 L11.6875,23.375 C12.067,23.375 12.375,23.683 12.375,24.0625 C12.375,24.442 12.067,24.75 11.6875,24.75 L11.6875,24.75 Z" id="Shape"></path>
                                <path d="M18.5625,22 L3.4375,22 C3.058,22 2.75,21.692 2.75,21.3125 L2.75,3.4375 C2.75,3.058 3.058,2.75 3.4375,2.75 L18.5625,2.75 C18.942,2.75 19.25,3.058 19.25,3.4375 L19.25,21.3125 C19.25,21.692 18.942,22 18.5625,22 L18.5625,22 Z M4.125,20.625 L17.875,20.625 L17.875,4.125 L4.125,4.125 L4.125,20.625 L4.125,20.625 Z" id="Shape"></path>
                            </g>
                        </g>
                        <g id="volume-high" transform="translate(11.305556, 12.489583) rotate(270.000000) translate(-11.305556, -12.489583) translate(8.555556, 7.333333)">
                            <g id="Group">
                                <path d="M1.8239375,8.1681875 C1.72425,8.1681875 1.62525,8.124875 1.5571875,8.0416875 C1.4375625,7.8945625 1.4595625,7.678 1.6066875,7.558375 C2.333375,6.9678125 2.75,6.0919375 2.75,5.1569375 C2.75,4.2219375 2.333375,3.34675 1.607375,2.7555 C1.46025,2.635875 1.4375625,2.4193125 1.557875,2.2721875 C1.6781875,2.1250625 1.8940625,2.102375 2.0411875,2.2226875 C2.92875,2.9445625 3.4375,4.0143125 3.4375,5.157625 C3.4375,6.3009375 2.92875,7.37 2.0411875,8.0925625 C1.97725,8.144125 1.9009375,8.1695625 1.824625,8.1695625 L1.8239375,8.1681875 Z" id="Shape"></path>
                                <path d="M3.1246875,9.7686875 C3.025,9.7686875 2.926,9.725375 2.8579375,9.6421875 C2.7383125,9.4950625 2.7603125,9.2785 2.9074375,9.158875 C4.118125,8.174375 4.8125,6.7155 4.8125,5.1569375 C4.8125,3.598375 4.118125,2.1395 2.9074375,1.155 C2.7603125,1.035375 2.737625,0.8188125 2.8579375,0.6716875 C2.97825,0.5245625 3.194125,0.501875 3.34125,0.6221875 C4.7128125,1.738 5.5,3.3914375 5.5,5.157625 C5.5,6.9238125 4.7135,8.57725 3.34125,9.6930625 C3.2773125,9.744625 3.201,9.7700625 3.1246875,9.7700625 L3.1246875,9.7686875 Z" id="Shape"></path>
                                <path d="M0.523875,6.567 C0.4241875,6.567 0.3251875,6.5236875 0.257125,6.4405 C0.1375,6.293375 0.1595,6.0768125 0.306625,5.9571875 C0.548625,5.759875 0.6875,5.468375 0.6875,5.1569375 C0.6875,4.8455 0.548625,4.5533125 0.306625,4.3566875 C0.1595,4.2370625 0.1368125,4.0205 0.257125,3.873375 C0.3774375,3.72625 0.5933125,3.7035625 0.7404375,3.823875 C1.144,4.1518125 1.375,4.637875 1.375,5.157625 C1.375,5.677375 1.1433125,6.1634375 0.7404375,6.491375 C0.6765,6.5429375 0.6001875,6.568375 0.523875,6.568375 L0.523875,6.567 Z" id="Shape"></path>
                            </g>
                        </g>
                    </g>
                    <g id="science-art" transform="translate(39.000000, 0.000000)">
                        <g id="Asset-1">
                            <g id="Layer_2">
                                <g id="Layer_1-2">
                                    <path d="M11.5227273,6.60227273 L11.5227273,6.54545455 L11.5227273,6.54545455 L11.5227273,6.60227273 Z M21.5,14.875 L21.3636364,14.4545455 C21.1477273,13.8522727 20.9545455,13.3181818 20.7954545,12.9545455 C22.9318182,10.3068182 23.8636364,7.95454545 22.8863636,6.61363636 C21.9090909,5.27272727 19.8977273,5.47727273 17.2045455,6.34090909 C16.9318182,5.97727273 16.6590909,5.625 16.375,5.29545455 L16.1477273,5.03409091 L15.7954545,4.65909091 C19.4204545,3.63636364 22.5113636,3.97727273 23.9090909,5.875 C25.4886364,8.05681818 24.4659091,11.7045455 21.6363636,15.2954545 L21.5,14.875 Z M8.75,14.1136364 C8.8708646,12.1477092 10.55728,10.6487878 12.523811,10.7593939 C14.490342,10.8700001 15.9980415,12.5485722 15.8976968,14.5156535 C15.7973521,16.4827348 14.126669,17.9991714 12.1590909,17.9090909 C11.2021247,17.8622006 10.3035809,17.4348208 9.66334393,16.7220237 C9.02310699,16.0092266 8.69427577,15.0701289 8.75,14.1136364 L8.75,14.1136364 Z M17.9090909,19.0681818 L17.9090909,19.0681818 L17.9090909,19.0681818 C17.9090909,19.0681818 17.8636364,18.9772727 17.8863636,19.0681818 L17.9090909,19.0681818 Z M5.90909091,17.5340909 C5.64772727,17.0113636 5.40909091,16.5 5.18181818,15.9772727 C5.34090909,15.7954545 5.51136364,15.6022727 5.40909091,15.7272727 L5.875,15.2159091 L6.22727273,14.8522727 L6.75,14.3295455 L6.97727273,14.1136364 C7.29545455,14.8863636 7.64772727,15.6704545 8.04545455,16.4659091 C8.44318182,17.2613636 8.68181818,17.6931818 10.0340909,19.9431818 L9.71590909,20.1022727 L9.09090909,20.4545455 L8.65909091,20.6477273 L8.09090909,20.8863636 L7.88636364,20.9659091 C7.14355088,19.8722913 6.48265657,18.7252219 5.90909091,17.5340909 L5.90909091,17.5340909 Z M0.75,22.7272727 C-1.57954545,19.5340909 1.70454545,13.1590909 8.09090909,8.48863636 C9.13315438,7.73866081 10.2267502,7.06275783 11.3636364,6.46590909 L11.3636364,6.46590909 L11.3636364,6.46590909 L11.3636364,6.46590909 L11.875,7.06818182 L12.0795455,7.32954545 L12.0795455,7.32954545 L12.0795455,7.32954545 L12.0795455,7.39772727 L12.0795455,7.39772727 L12.6477273,8.14772727 L12.7613636,8.29545455 C11.5751677,8.93752106 10.435952,9.66282172 9.35227273,10.4659091 C3.67045455,14.7727273 0.204545455,19.9204545 1.76136364,22.0454545 C3.31818182,24.1704545 9.30681818,22.4545455 15.1477273,18.1931818 C15.875,17.6590909 16.5681818,17.0568182 17.1590909,16.6022727 C16.8977273,15.8636364 17.0227273,16.2159091 17.1590909,16.6022727 L17.1590909,16.6022727 L17.4772727,17.5909091 C17.2272727,16.75 17.3977273,17.3068182 17.5681818,17.875 C17.4886364,17.5681818 17.5681818,17.9659091 17.8068182,18.7386364 C17.8068182,18.7386364 17.8068182,18.8068182 17.8863636,19.0795455 L17.8863636,19.0795455 C18.5,18.5681818 18.1931818,18.8295455 17.8863636,19.0795455 L17.8863636,19.0795455 L17.8181818,18.7954545 L17.8863636,19.0795455 C17.4659091,19.4431818 17.0113636,19.7840909 16.5454545,20.125 C10.1590909,24.7840909 3.09090909,25.9772727 0.75,22.7272727 L0.75,22.7272727 Z M10.9772727,24.4772727 L11.7386364,24.1704545 L10.9886364,24.4659091 L11.7386364,24.1704545 C12.0893367,24.0376105 12.4309747,23.8819755 12.7613636,23.7045455 L12.9772727,23.6136364 C14.9772727,25.6590909 16.8977273,26.625 18.1704545,25.9886364 C19.4431818,25.3522727 19.8636364,23.0568182 19.3068182,20.0454545 L19.3068182,20.0454545 L19.1363636,19.0454545 C18.781815,17.4930047 18.2990993,15.9726403 17.6931818,14.5 L16.5568182,12.0795455 C16.2386364,11.4545455 15.9204545,10.8522727 15.5909091,10.2727273 L14.7727273,9.03409091 L14.5795455,8.72727273 C13.6797566,7.36619534 12.6646579,6.08496591 11.5454545,4.89772727 L11.5454545,4.89772727 L10.6704545,4.09090909 L10.4545455,3.875 L9.56818182,3.22727273 L9.56818182,3.22727273 L8.69318182,2.76136364 L8.56818182,2.76136364 L8.27272727,2.68181818 L8.27272727,2.68181818 C7.70947446,2.44505971 7.07461645,2.44505971 6.51136364,2.68181818 C5.09090909,3.38636364 4.77272727,5.90909091 5.45454545,9.20454545 L5.34090909,9.30681818 C4.78493628,9.75879965 4.25385521,10.2405661 3.75,10.75 C4.78409091,9.70454545 4.18181818,10.2840909 3.61363636,10.8863636 C2.75,6.40909091 3.52272727,2.71590909 5.88636364,1.51136364 C6.69158748,1.12045668 7.6083033,1.02396028 8.47727273,1.23863636 L8.93181818,1.23863636 C10.6384653,1.77612008 12.1952916,2.70632377 13.4772727,3.95454545 L13.6590909,4.10227273 C13.1477273,3.63636364 13.2159091,3.69318182 13.6590909,4.10227273 L13.6590909,4.10227273 L13.6590909,4.10227273 C13.5681818,4.02272727 13.4886364,3.94318182 13.6590909,4.10227273 L13.6590909,4.10227273 L13.6590909,4.10227273 C14.8440305,5.17396316 15.8832058,6.39652232 16.75,7.73863636 L16.75,7.73863636 C16.9318182,8 17.1022727,8.26136364 17.625,9.10227273 C16.9431818,7.96590909 17.3181818,8.57954545 17.7159091,9.25 C17.7840909,9.34090909 18.2727273,10.2045455 18.7272727,11.1136364 L19.4431818,12.6590909 L19.4431818,12.6590909 C20.1387319,14.3057688 20.6641885,16.0192144 21.0113636,17.7727273 L21.0113636,17.7727273 C21.0113636,18.0568182 21.1136364,18.3295455 21.1704545,18.75 C20.9886364,17.6136364 21.1022727,18.25 21.1704545,18.8409091 L21.1704545,18.8409091 C21.7045455,22.8068182 20.875,26.0227273 18.6704545,27.1136364 C16.4659091,28.2045455 13.7045455,27.1022727 10.9659091,24.5340909 L10.9772727,24.4772727 Z" id="Shape"></path>
                                </g>
                            </g>
                        </g>
                    </g>
                </g>
            </g>
        </g>
    </g>
</svg>