<?xml version="1.0" encoding="UTF-8" standalone="no"?>
<svg width="96px" height="110px" viewBox="0 0 96 110" version="1.1" xmlns="http://www.w3.org/2000/svg" xmlns:xlink="http://www.w3.org/1999/xlink">
    <!-- Generator: Sketch 39.1 (31720) - http://www.bohemiancoding.com/sketch -->
    <title>stem-areas-technology</title>
    <desc>Created with Sketch.</desc>
    <defs>
        <polygon id="path-1" points="55 5 98.3012702 30 98.3012702 80 55 105 11.6987298 80 11.6987298 30"></polygon>
        <mask id="mask-2" maskContentUnits="userSpaceOnUse" maskUnits="objectBoundingBox" x="0" y="0" width="100" height="100" fill="white">
            <use xlink:href="#path-1"></use>
        </mask>
    </defs>
    <g id="STEM-areas,-featured,-prep" stroke="none" stroke-width="1" fill="none" fill-rule="evenodd">
        <g id="icon-stem-areas-technology" transform="translate(-16.000000, -9.000000)">
            <g id="stem-areas-technology" transform="translate(9.000000, 9.000000)">
                <polygon id="Polygon" fill="#E6C81E" points="55 0 102.631397 27.5 102.631397 82.5 55 110 7.36860279 82.5 7.36860279 27.5"></polygon>
                <use id="Polygon-line" stroke="#F4E177" mask="url(#mask-2)" stroke-width="2" xlink:href="#path-1"></use>
                <g id="tech-art" transform="translate(37.000000, 33.000000)" fill="#FFFFFF">
                    <g id="tablet">
                        <g id="Group">
                            <path d="M32.625,45 L3.375,45 C1.51425,45 0,43.48575 0,41.625 L0,3.375 C0,1.51425 1.51425,0 3.375,0 L32.625,0 C34.48575,0 36,1.51425 36,3.375 L36,41.625 C36,43.48575 34.48575,45 32.625,45 L32.625,45 Z M3.375,2.25 C2.754,2.25 2.25,2.754 2.25,3.375 L2.25,41.625 C2.25,42.246 2.754,42.75 3.375,42.75 L32.625,42.75 C33.246,42.75 33.75,42.246 33.75,41.625 L33.75,3.375 C33.75,2.754 33.246,2.25 32.625,2.25 L3.375,2.25 L3.375,2.25 Z" id="Shape"></path>
                            <path d="M19.125,40.5 L16.875,40.5 C16.254,40.5 15.75,39.996 15.75,39.375 C15.75,38.754 16.254,38.25 16.875,38.25 L19.125,38.25 C19.746,38.25 20.25,38.754 20.25,39.375 C20.25,39.996 19.746,40.5 19.125,40.5 L19.125,40.5 Z" id="Shape"></path>
                            <path d="M30.375,36 L5.625,36 C5.004,36 4.5,35.496 4.5,34.875 L4.5,5.625 C4.5,5.004 5.004,4.5 5.625,4.5 L30.375,4.5 C30.996,4.5 31.5,5.004 31.5,5.625 L31.5,34.875 C31.5,35.496 30.996,36 30.375,36 L30.375,36 Z M6.75,33.75 L29.25,33.75 L29.25,6.75 L6.75,6.75 L6.75,33.75 L6.75,33.75 Z" id="Shape"></path>
                        </g>
                    </g>
                    <g id="volume-high" transform="translate(18.500000, 20.437500) rotate(270.000000) translate(-18.500000, -20.437500) translate(14.000000, 12.000000)">
                        <g id="Group">
                            <path d="M2.984625,13.366125 C2.8215,13.366125 2.6595,13.29525 2.548125,13.159125 C2.352375,12.918375 2.388375,12.564 2.629125,12.36825 C3.81825,11.401875 4.5,9.968625 4.5,8.438625 C4.5,6.908625 3.81825,5.4765 2.63025,4.509 C2.3895,4.31325 2.352375,3.958875 2.54925,3.718125 C2.746125,3.477375 3.099375,3.44025 3.340125,3.637125 C4.7925,4.818375 5.625,6.568875 5.625,8.43975 C5.625,10.310625 4.7925,12.06 3.340125,13.242375 C3.2355,13.32675 3.110625,13.368375 2.98575,13.368375 L2.984625,13.366125 Z" id="Shape"></path>
                            <path d="M5.113125,15.985125 C4.95,15.985125 4.788,15.91425 4.676625,15.778125 C4.480875,15.537375 4.516875,15.183 4.757625,14.98725 C6.73875,13.37625 7.875,10.989 7.875,8.438625 C7.875,5.88825 6.73875,3.501 4.757625,1.89 C4.516875,1.69425 4.47975,1.339875 4.676625,1.099125 C4.8735,0.858375 5.22675,0.82125 5.4675,1.018125 C7.711875,2.844 9,5.549625 9,8.43975 C9,11.329875 7.713,14.0355 5.4675,15.861375 C5.362875,15.94575 5.238,15.987375 5.113125,15.987375 L5.113125,15.985125 Z" id="Shape"></path>
                            <path d="M0.85725,10.746 C0.694125,10.746 0.532125,10.675125 0.42075,10.539 C0.225,10.29825 0.261,9.943875 0.50175,9.748125 C0.89775,9.42525 1.125,8.94825 1.125,8.438625 C1.125,7.929 0.89775,7.450875 0.50175,7.129125 C0.261,6.933375 0.223875,6.579 0.42075,6.33825 C0.617625,6.0975 0.970875,6.060375 1.211625,6.25725 C1.872,6.793875 2.25,7.58925 2.25,8.43975 C2.25,9.29025 1.870875,10.085625 1.211625,10.62225 C1.107,10.706625 0.982125,10.74825 0.85725,10.74825 L0.85725,10.746 Z" id="Shape"></path>
                        </g>
                    </g>
                </g>
            </g>
        </g>
    </g>
</svg>