<svg width="100" height="114" viewBox="0 0 100 114" xmlns="http://www.w3.org/2000/svg" xmlns:xlink="http://www.w3.org/1999/xlink"><title>Green Jobs</title><defs><path id="a" d="M55 5l43.3 25v50L55 105 11.7 80V30z"/><mask id="b" x="0" y="0" width="100" height="100" fill="#fff">
<use xlink:href="#a"/></mask></defs><g transform="translate(-5 2)" fill="none" fill-rule="evenodd"><path stroke="#2F9929" stroke-width="3" fill="#FFF" d="M55 0l47.63 27.5v55L55 110 7.37 82.5v-55z"/><use stroke="#9DDE99" mask="url(#b)" stroke-width="2" xlink:href="#a"/>
<path d="M80.804 40.92c-11.49 6.743-10.666 20.59-18.715 26.837-6.06 4.702-14.607 2.32-19.55.298 0 0-3.35 4.227-5.75 9.863-.806 1.89-4.337-.192-3.717-1.793 7.854-20.268 34.575-30.38 34.575-30.38s-18.854-.8-31.455 15.666c-.338-3.76-.897-13.935 8.86-20.175 13.23-8.468 38.433-1.885 35.75-.314z" fill="#2F9929"/></g></svg>
