<svg width="100" height="114" viewBox="0 0 100 114" xmlns="http://www.w3.org/2000/svg" xmlns:xlink="http://www.w3.org/1999/xlink"><title>New and Emerging</title><defs><path id="a" d="M55 5l43.3 25v50L55 105 11.7 80V30z"/><mask id="b" x="0" y="0" width="100" height="100" fill="#fff">
<use xlink:href="#a"/></mask></defs><g transform="translate(-5 2)" fill="none" fill-rule="evenodd"><path stroke="#E6C81E" stroke-width="3" fill="#FFF" d="M55 0l47.63 27.5v55L55 110 7.37 82.5v-55z"/><g fill="#E4C200"><path d="M55.5 72.063c1.83 0 3.313 1.483 3.313 3.312v3.313c0 1.83-1.484 3.312-3.313 3.312-1.83 0-3.313-1.483-3.313-3.313v-3.312c0-1.83 1.484-3.313 3.313-3.313zm0-33.126c-1.83 0-3.313-1.483-3.313-3.312v-3.313c0-1.83 1.484-3.312 3.313-3.312 1.83 0 3.313 1.483 3.313 3.313v3.312c0 1.83-1.484 3.313-3.313 3.313zm23.188 13.25c1.83 0 3.312 1.484 3.312 3.313 0 1.83-1.483 3.313-3.313 3.313h-3.312c-1.83 0-3.313-1.484-3.313-3.313 0-1.83 1.484-3.313 3.313-3.313h3.313zM38.938 55.5c0 1.83-1.484 3.313-3.313 3.313h-3.313c-1.83 0-3.312-1.484-3.312-3.313 0-1.83 1.483-3.313 3.313-3.313h3.312c1.83 0 3.313 1.484 3.313 3.313zm32.958 11.71l2.342 2.344c1.294 1.294 1.294 3.39 0 4.685-1.294 1.292-3.39 1.292-4.685 0l-2.342-2.343c-1.292-1.294-1.292-3.39 0-4.685 1.295-1.293 3.393-1.293 4.686 0zM39.104 43.79l-2.343-2.344c-1.292-1.294-1.292-3.39 0-4.685 1.295-1.292 3.392-1.292 4.686 0l2.342 2.344c1.293 1.293 1.293 3.39 0 4.685-1.294 1.292-3.39 1.292-4.685 0zm32.792 0c-1.293 1.292-3.39 1.292-4.685 0-1.292-1.295-1.292-3.393 0-4.686l2.343-2.342c1.294-1.294 3.39-1.294 4.685 0 1.294 1.294 1.294 3.39 0 4.685l-2.342 2.342zM39.104 67.21c1.293-1.292 3.39-1.292 4.685 0 1.292 1.295 1.292 3.393 0 4.686l-2.343 2.342c-1.294 1.294-3.39 1.294-4.685 0-1.294-1.294-1.294-3.39 0-4.685l2.343-2.342zM55.5 42.25c-7.318 0-13.25 5.932-13.25 13.25s5.932 13.25 13.25 13.25c7.317 0 13.25-5.933 13.25-13.25S62.818 42.25 55.5 42.25zm0 21.53c-4.574 0-8.28-3.706-8.28-8.28s3.706-8.28 8.28-8.28 8.28 3.706 8.28 8.28-3.706 8.28-8.28 8.28z"/></g>
<use stroke="#F4E177" mask="url(#b)" stroke-width="2" xlink:href="#a"/>
</g></svg>
