<svg width="100" height="114" viewBox="0 0 100 114" xmlns="http://www.w3.org/2000/svg" xmlns:xlink="http://www.w3.org/1999/xlink"><title>Numerous Job Openings</title><defs><path id="a" d="M55 5l43.3 25v50L55 105 11.7 80V30z"/><mask id="b" x="0" y="0" width="100" height="100" fill="#fff">
<use xlink:href="#a"/>
</mask></defs><g transform="translate(-5 2)" fill="none" fill-rule="evenodd"><path stroke="#166890" stroke-width="3" fill="#FFF" d="M55 0l47.63 27.5v55L55 110 7.37 82.5v-55z"/><path d="M54.25 33.25h2.5v2.5H68s-.186-5.574-.25-7.317c-.063-1.658-.656-2.683-2.5-2.683h-4.01c-.62-1.172-1.29-2.43-1.496-2.82-.414-.78-.555-.93-1.474-.93h-5.54c-.92 0-1.06.15-1.475.93-.206.39-.875 1.647-1.495 2.82h-4.01c-1.846 0-2.433 1.025-2.5 2.683-.07 1.658-.25 7.317-.25 7.317h11.25v-2.5zm-1.69-8.855c.29-.54.386-.645 1.022-.645h3.834c.637 0 .735.105 1.02.645.108.2.398.75.72 1.355h-7.313c.32-.605.61-1.155.718-1.355zM56.75 39.5h-2.5V37H43.625s.155 2.246.25 4.152c.038.792.27 2.098 2.25 2.098h18.75c1.977 0 2.206-1.31 2.25-2.098.11-1.96.25-4.152.25-4.152H56.75v2.5zM54.25 77.25h2.5v2.5H68s-.186-5.574-.25-7.317c-.063-1.658-.656-2.683-2.5-2.683h-4.01c-.62-1.172-1.29-2.43-1.496-2.82-.414-.78-.555-.93-1.474-.93h-5.54c-.92 0-1.06.15-1.475.93-.206.39-.875 1.647-1.495 2.82h-4.01c-1.846 0-2.433 1.025-2.5 2.683-.07 1.658-.25 7.317-.25 7.317h11.25v-2.5zm-1.69-8.855c.29-.54.386-.645 1.022-.645h3.834c.637 0 .735.105 1.02.645.108.2.398.75.72 1.355h-7.313c.32-.605.61-1.155.718-1.355zM56.75 83.5h-2.5V81H43.625s.155 2.246.25 4.152c.038.792.27 2.098 2.25 2.098h18.75c1.977 0 2.206-1.31 2.25-2.098.11-1.96.25-4.152.25-4.152H56.75v2.5zM30.25 55.25h2.5v2.5H44s-.186-5.574-.25-7.317c-.063-1.658-.656-2.683-2.5-2.683h-4.01c-.62-1.172-1.29-2.43-1.496-2.82-.414-.78-.555-.93-1.474-.93h-5.54c-.92 0-1.06.15-1.475.93-.206.39-.875 1.647-1.495 2.82h-4.01c-1.846 0-2.433 1.025-2.5 2.683-.07 1.658-.25 7.317-.25 7.317h11.25v-2.5zm-1.69-8.855c.29-.54.386-.645 1.023-.645h3.833c.637 0 .735.105 1.02.645.108.2.398.75.72 1.355h-7.313c.32-.605.61-1.155.718-1.355zM32.75 61.5h-2.5V59H19.625s.155 2.246.25 4.152c.038.792.27 2.098 2.25 2.098h18.75c1.977 0 2.206-1.31 2.25-2.098.11-1.96.25-4.152.25-4.152H32.75v2.5zM78.25 55.25h2.5v2.5H92s-.186-5.574-.25-7.317c-.063-1.658-.656-2.683-2.5-2.683h-4.01c-.62-1.172-1.29-2.43-1.496-2.82-.414-.78-.555-.93-1.474-.93h-5.54c-.92 0-1.06.15-1.475.93-.206.39-.875 1.647-1.495 2.82h-4.01c-1.846 0-2.433 1.025-2.5 2.683-.07 1.658-.25 7.317-.25 7.317h11.25v-2.5zm-1.69-8.855c.29-.54.386-.645 1.022-.645h3.834c.636 0 .735.105 1.02.645.108.2.398.75.72 1.355H75.84c.322-.605.612-1.155.72-1.355zM80.75 61.5h-2.5V59H67.625s.155 2.246.25 4.152c.038.792.27 2.098 2.25 2.098h18.75c1.977 0 2.206-1.31 2.25-2.098.11-1.96.25-4.152.25-4.152H80.75v2.5z" fill="#0F5C87"/><use stroke="#C9D8E0" mask="url(#b)" stroke-width="2" xlink:href="#a"/></g>
</svg>
