<svg width="100" height="114" viewBox="0 0 100 114" xmlns="http://www.w3.org/2000/svg" xmlns:xlink="http://www.w3.org/1999/xlink"><title>Rapid Growth</title><defs><path id="a" d="M55 5l43.3 25v50L55 105 11.7 80V30z"/><mask id="b" x="0" y="0" width="100" height="100" fill="#fff">
<use xlink:href="#a"/></mask></defs><g transform="translate(-5 2)" fill="none" fill-rule="evenodd"><path stroke="#7C6BB2" stroke-width="3" fill="#FFF" d="M55 0l47.63 27.5v55L55 110 7.37 82.5v-55z"/><path d="M71.03 26.136l-6.645 12.588-2.372-3.388-25.688 17.987-2.71-3.873L59.3 31.464l-2.37-3.39" fill="#715EAB"/><path d="M80 74.8H29.816c-.81 0-1.06-.533-.55-1.186L40.66 58.957c.51-.653 1.41-.722 2.013-.158l3.62 3.4c.598.564 1.457.454 1.903-.244l7.77-12.087c.446-.698 1.298-.797 1.89-.23l5.536 5.344c.59.574 1.425.46 1.846-.255l13.09-19.853C78.75 34.157 79.36 34 80 34v40.8z" fill="#D0C7EF"/>
<use stroke="#D0C7EF" mask="url(#b)" stroke-width="2" xlink:href="#a"/></g></svg>
