<?xml version="1.0" encoding="UTF-8" standalone="no"?>
<svg width="19px" height="17px" viewBox="0 0 19 17" version="1.1" xmlns="http://www.w3.org/2000/svg" xmlns:xlink="http://www.w3.org/1999/xlink">
    <!-- Generator: Sketch 39.1 (31720) - http://www.bohemiancoding.com/sketch -->
    <title>Page 1</title>
    <desc>Created with Sketch.</desc>
    <defs></defs>
    <g id="Page-1" stroke="none" stroke-width="1" fill="none" fill-rule="evenodd">
        <path d="M0,8.201 L2.372,8.201 L2.372,7.996 C2.48,3.562 6.096,0 10.541,0 C15.056,0 18.715,3.672 18.715,8.201 C18.715,12.73 15.056,16.4 10.541,16.4 C8.643,16.4 6.896,15.75 5.508,14.662 L6.914,13.158 C7.93,13.906 9.184,14.351 10.541,14.351 C13.927,14.351 16.672,11.597 16.672,8.201 C16.672,4.805 13.927,2.051 10.541,2.051 C7.224,2.051 4.523,4.694 4.416,7.996 L4.416,8.201 L7.088,8.201 L3.594,12.095 L0,8.201 Z" fill="#008CD1"></path>
    </g>
</svg>