<?xml version="1.0" encoding="UTF-8" standalone="no"?>
<svg width="19px" height="17px" viewBox="0 0 19 17" version="1.1" xmlns="http://www.w3.org/2000/svg" xmlns:xlink="http://www.w3.org/1999/xlink">
    <!-- Generator: Sketch 39.1 (31720) - http://www.bohemiancoding.com/sketch -->
    <title>Page 1</title>
    <desc>Created with Sketch.</desc>
    <defs></defs>
    <g id="Page-1" stroke="none" stroke-width="1" fill="none" fill-rule="evenodd">
        <path d="M18.715,8.201 L16.343,8.201 L16.343,7.996 C16.235,3.562 12.619,0 8.174,0 C3.659,0 0,3.672 0,8.201 C0,12.73 3.659,16.4 8.174,16.4 C10.072,16.4 11.819,15.75 13.207,14.662 L11.801,13.158 C10.785,13.906 9.531,14.351 8.174,14.351 C4.788,14.351 2.043,11.597 2.043,8.201 C2.043,4.805 4.788,2.051 8.174,2.051 C11.491,2.051 14.192,4.694 14.299,7.996 L14.299,8.201 L11.627,8.201 L15.121,12.095 L18.715,8.201 Z" fill="#008CD1"></path>
    </g>
</svg>