<?xml version="1.0" encoding="UTF-8" standalone="no"?>
<svg width="20px" height="18px" viewBox="0 0 20 18" version="1.1" xmlns="http://www.w3.org/2000/svg" xmlns:xlink="http://www.w3.org/1999/xlink">
    <!-- Generator: Sketch 39.1 (31720) - http://www.bohemiancoding.com/sketch -->
    <title>cw</title>
    <desc>Created with Sketch.</desc>
    <defs></defs>
    <g id="Utility-Entypo" stroke="none" stroke-width="1" fill="none" fill-rule="evenodd">
        <g id="entypo-modified" transform="translate(-760.000000, -792.000000)" fill="#777777">
            <g id="cw" transform="translate(760.157895, 792.000000)">
                <g id="CW">
                    <path d="M19.315,9 L16.943,9 L16.943,8.795 C16.835,4.361 13.219,0.799 8.774,0.799 C4.259,0.799 0.6,4.471 0.6,9 C0.6,13.529 4.259,17.199 8.774,17.199 C10.672,17.199 12.419,16.549 13.807,15.461 L12.401,13.957 C11.385,14.705 10.131,15.15 8.774,15.15 C5.388,15.15 2.643,12.396 2.643,9 C2.643,5.604 5.388,2.85 8.774,2.85 C12.091,2.85 14.792,5.493 14.899,8.795 L14.899,9 L12.227,9 L15.721,12.894 L19.315,9 L19.315,9 Z" id="Shape"></path>
                </g>
            </g>
        </g>
    </g>
</svg>