<?xml version="1.0" encoding="UTF-8" standalone="no"?>
<svg width="100px" height="85px" viewBox="0 0 100 85" version="1.1" xmlns="http://www.w3.org/2000/svg" xmlns:xlink="http://www.w3.org/1999/xlink">
    <!-- Generator: Sketch 40.3 (33839) - http://www.bohemiancoding.com/sketch -->
    <title>jobs</title>
    <desc>Created with Sketch.</desc>
    <defs></defs>
    <g id="Utility-design" stroke="none" stroke-width="1" fill="none" fill-rule="evenodd">
        <g id="SMOJ-white" transform="translate(-359.000000, -271.000000)" fill="#FFFFFF">
            <g id="jobs" transform="translate(359.000000, 271.000000)">
                <g id="Briefcase">
                    <path d="M45,45 L55,45 L55,55 L100,55 C100,55 99.255,32.705 99,25.73 C98.75,19.1 96.375,15 89,15 L72.96,15 C70.475,10.31 67.8,5.275 66.975,3.72 C65.32,0.605 64.755,0 61.08,0 L38.915,0 C35.24,0 34.68,0.605 33.02,3.72 C32.195,5.275 29.52,10.31 27.04,15 L10.995,15 C3.615,15 1.27,19.1 0.995,25.73 C0.725,32.365 0,55 0,55 L45,55 L45,45 L45,45 Z M38.245,9.58 C39.395,7.42 39.785,7 42.33,7 L57.665,7 C60.21,7 60.605,7.42 61.745,9.58 C62.175,10.38 63.335,12.58 64.62,15 L35.37,15 C36.655,12.58 37.815,10.38 38.245,9.58 L38.245,9.58 Z M55,70 L45,70 L45,60 L2.5,60 C2.5,60 3.12,68.985 3.495,76.61 C3.65,79.775 4.585,85 12.495,85 L87.5,85 C95.41,85 96.325,79.765 96.5,76.61 C96.935,68.77 97.5,60 97.5,60 L55,60 L55,70 L55,70 Z" id="Shape"></path>
                </g>
            </g>
        </g>
    </g>
</svg>