<?xml version="1.0" encoding="UTF-8" standalone="no"?>
<svg width="110px" height="84px" viewBox="0 0 110 84" version="1.1" xmlns="http://www.w3.org/2000/svg" xmlns:xlink="http://www.w3.org/1999/xlink">
    <!-- Generator: Sketch 40.3 (33839) - http://www.bohemiancoding.com/sketch -->
    <title>majors</title>
    <desc>Created with Sketch.</desc>
    <defs></defs>
    <g id="Utility-design" stroke="none" stroke-width="1" fill="none" fill-rule="evenodd">
        <g id="SMOJ-white" transform="translate(-349.000000, -73.000000)" fill="#FFFFFF">
            <g id="majors" transform="translate(349.000000, 73.000000)">
                <g id="Graduation_cap">
                    <path d="M18.5588282,54.0658493 C21.0998083,64.3557233 24.3307959,68.857201 35.1080563,73.5722524 C45.8907928,78.2818275 51.0110868,83.4295027 55.2387519,83.4295027 C59.4609408,83.4295027 64.2636122,78.928025 75.0408725,74.2074974 C85.8236091,69.492446 82.9431015,68.0576684 85.4840816,57.7677944 L55.2387519,72.4770023 L18.5588282,54.0658493 L18.5588282,54.0658493 Z M107.323367,27.2212709 L61.7335846,1.69099262 C58.1630695,-0.307838697 52.3144343,-0.307838697 48.7439192,1.69099262 L3.14866026,27.2212709 C-0.421854856,29.2201022 -0.421854856,32.4948998 3.14866026,34.4937311 L48.7384429,60.0240094 C52.308958,62.0228408 58.1575932,62.0228408 61.7281083,60.0240094 L91.2012868,43.5185914 L59.2418908,36.0325574 C58.0097345,36.3337512 56.6571007,36.503515 55.2387519,36.503515 C49.4777367,36.503515 44.8119716,33.7325324 44.8119716,30.309876 C44.8119716,26.8762672 49.483213,24.1052846 55.2387519,24.1052846 C59.707372,24.1052846 63.5078896,25.7864934 64.9864772,28.1248522 L98.8406558,39.2361638 L107.323367,34.4882549 C110.888406,32.4948998 110.888406,29.2201022 107.323367,27.2212709 L107.323367,27.2212709 Z M93.3917868,75.5984649 C93.0358306,77.7068212 100.417816,81.1732876 101.118776,75.0125062 C104.289525,47.2369653 98.8406558,39.2471163 98.8406558,39.2471163 L91.2012868,43.5240677 C91.2012868,43.5185914 97.6796907,49.6848491 93.3917868,75.5984649 L93.3917868,75.5984649 Z" id="Shape"></path>
                </g>
            </g>
        </g>
    </g>
</svg>