<?xml version="1.0" encoding="UTF-8" standalone="no"?>
<svg width="116px" height="95px" viewBox="0 0 116 95" version="1.1" xmlns="http://www.w3.org/2000/svg" xmlns:xlink="http://www.w3.org/1999/xlink">
    <!-- Generator: Sketch 39.1 (31720) - http://www.bohemiancoding.com/sketch -->
    <title>majors</title>
    <desc>Created with Sketch.</desc>
    <defs></defs>
    <g id="Utility" stroke="none" stroke-width="1" fill="none" fill-rule="evenodd">
        <g id="navigation" transform="translate(-1365.000000, -902.000000)">
            <g id="majors" transform="translate(1368.000000, 905.000000)">
                <polygon id="Fill-1" fill="#FFFFFF" points="0.689570668 71.6373623 109.846966 71.6373623 109.846966 0.578746811 0.689570668 0.578746811"></polygon>
                <polygon id="Stroke-2" stroke="#008CD1" stroke-width="5.41" points="0.689570668 71.6373623 109.846966 71.6373623 109.846966 0.578746811 0.689570668 0.578746811"></polygon>
                <polygon id="Fill-4" fill="#FFFFFF" points="88.7329685 63.9204919 9.2517398 63.9204919 9.2517398 8.30333385 101.284796 8.30333385 101.284796 51.2373171"></polygon>
                <polygon id="Stroke-5" stroke="#008CD1" stroke-width="2.72" points="88.7329685 63.9204919 9.2517398 63.9204919 9.2517398 8.30333385 101.284796 8.30333385 101.284796 51.2373171"></polygon>
                <path d="M37.0726326,19.2051177 L77.3140066,19.2051177" id="Stroke-6" stroke="#008CD1" stroke-width="2.72"></path>
                <path d="M25.9409918,27.9725162 L88.4374382,27.9725162" id="Stroke-7" stroke="#008CD1" stroke-width="2.72"></path>
                <path d="M25.9409918,36.5428945 L88.4374382,36.5428945" id="Stroke-8" stroke="#008CD1" stroke-width="2.72"></path>
                <path d="M25.9409918,45.0968545 L88.4374382,45.0968545" id="Stroke-9" stroke="#008CD1" stroke-width="2.72"></path>
                <polygon id="Fill-10" fill="#FFFFFF" points="59.1471031 88.6136892 62.7180941 84.6732853 67.9637567 85.5352487 61.8397124 67.9594058 53.0148497 71.0378463"></polygon>
                <polygon id="Stroke-11" stroke="#008CD1" stroke-width="2.63" points="59.1471031 88.6136892 62.7180941 84.6732853 67.9637567 85.5352487 61.8397124 67.9594058 53.0148497 71.0378463"></polygon>
                <polygon id="Fill-13" fill="#FFFFFF" points="52.3499066 88.6136892 48.7789156 84.6732853 43.5250438 85.5352487 49.6572973 67.9594058 58.4739508 71.0378463"></polygon>
                <g id="Group-24" transform="translate(42.687708, 54.565563)">
                    <polygon id="Stroke-14" stroke="#008CD1" stroke-width="2.63" points="9.66219853 34.0481264 6.09120757 30.1077226 0.837335811 30.9696859 6.96958925 13.393843 15.7862428 16.4722835"></polygon>
                    <path d="M22.3125366,22.2679608 L19.3408154,23.0888783 C19.1799156,23.1323869 19.0346132,23.2202251 18.9221475,23.3433627 L16.8452263,25.6008857 C16.6129067,25.8504446 16.2582703,25.9432083 15.9340079,25.8389518 L13.0197509,24.8866875 C12.8588511,24.8398952 12.6881003,24.8398952 12.5272005,24.8866875 L9.55547926,25.707605 C9.22218677,25.7946222 8.87001318,25.6788729 8.65247005,25.4120747 L6.71510484,23.031414 C6.60756465,22.9008882 6.46554593,22.8040199 6.30464611,22.7523021 L3.39038912,21.8000378 C3.0653058,21.6941395 2.83134433,21.4084602 2.79111937,21.0694213 L2.46275239,18.0073992 C2.44387128,17.8423948 2.37819789,17.6855995 2.27394137,17.5558946 L0.336576159,15.1752339 C0.122316702,14.9100776 0.0812708287,14.5455902 0.229856889,14.239388 L1.5843707,11.4893145 C1.65743236,11.3390866 1.68534355,11.1707985 1.66646245,11.0049732 L1.30525876,7.82802264 C1.27816849,7.49719291 1.44071015,7.17949785 1.72392667,7.00710518 L4.35086255,5.42273448 C4.49534402,5.33735906 4.6119143,5.21175869 4.68743871,5.0615308 L6.04195252,2.3114573 C6.196285,2.00279233 6.51808465,1.8131604 6.86286998,1.827116 L9.93310129,1.91741692 C10.1005685,1.92234242 10.2655729,1.87965471 10.4092334,1.7942793 L13.0361693,0.209908595 C13.3243113,0.0260230835 13.6920823,0.0260230835 13.9802244,0.209908595 L16.5086502,1.94204444 C16.6465643,2.03727087 16.809106,2.09145142 16.9765731,2.09801876 L20.0468044,2.18831968 C20.4030826,2.18339417 20.7281659,2.39354904 20.8677219,2.72191603 L22.0580522,5.5458721 C22.1229047,5.70184642 22.2312658,5.83565596 22.3700008,5.93170331 L24.8984266,7.66383915 C25.1808222,7.85757567 25.3244828,8.19661458 25.2678395,8.53401166 L24.7424523,11.5549879 C24.7137202,11.7216342 24.7342431,11.892385 24.7999165,12.0475384 L25.9902468,14.8714945 C26.1199518,15.1867268 26.0559202,15.5479305 25.8260634,15.7991312 L23.7491422,18.0566542 C23.6342137,18.1797918 23.5570475,18.3341243 23.5274945,18.4999496 L22.9856889,21.5783901 C22.9183737,21.9215336 22.6540383,22.1924364 22.3125366,22.2679608" id="Fill-16" fill="#FFFFFF"></path>
                    <path d="M22.3125366,22.2679608 L19.3408154,23.0888783 C19.1799156,23.1323869 19.0346132,23.2202251 18.9221475,23.3433627 L16.8452263,25.6008857 C16.6129067,25.8504446 16.2582703,25.9432083 15.9340079,25.8389518 L13.0197509,24.8866875 C12.8588511,24.8398952 12.6881003,24.8398952 12.5272005,24.8866875 L9.55547926,25.707605 C9.22218677,25.7946222 8.87001318,25.6788729 8.65247005,25.4120747 L6.71510484,23.031414 C6.60756465,22.9008882 6.46554593,22.8040199 6.30464611,22.7523021 L3.39038912,21.8000378 C3.0653058,21.6941395 2.83134433,21.4084602 2.79111937,21.0694213 L2.46275239,18.0073992 C2.44387128,17.8423948 2.37819789,17.6855995 2.27394137,17.5558946 L0.336576159,15.1752339 C0.122316702,14.9100776 0.0812708287,14.5455902 0.229856889,14.239388 L1.5843707,11.4893145 C1.65743236,11.3390866 1.68534355,11.1707985 1.66646245,11.0049732 L1.30525876,7.82802264 C1.27816849,7.49719291 1.44071015,7.17949785 1.72392667,7.00710518 L4.35086255,5.42273448 C4.49534402,5.33735906 4.6119143,5.21175869 4.68743871,5.0615308 L6.04195252,2.3114573 C6.196285,2.00279233 6.51808465,1.8131604 6.86286998,1.827116 L9.93310129,1.91741692 C10.1005685,1.92234242 10.2655729,1.87965471 10.4092334,1.7942793 L13.0361693,0.209908595 C13.3243113,0.0260230835 13.6920823,0.0260230835 13.9802244,0.209908595 L16.5086502,1.94204444 C16.6465643,2.03727087 16.809106,2.09145142 16.9765731,2.09801876 L20.0468044,2.18831968 C20.4030826,2.18339417 20.7281659,2.39354904 20.8677219,2.72191603 L22.0580522,5.5458721 C22.1229047,5.70184642 22.2312658,5.83565596 22.3700008,5.93170331 L24.8984266,7.66383915 C25.1808222,7.85757567 25.3244828,8.19661458 25.2678395,8.53401166 L24.7424523,11.5549879 C24.7137202,11.7216342 24.7342431,11.892385 24.7999165,12.0475384 L25.9902468,14.8714945 C26.1199518,15.1867268 26.0559202,15.5479305 25.8260634,15.7991312 L23.7491422,18.0566542 C23.6342137,18.1797918 23.5570475,18.3341243 23.5274945,18.4999496 L22.9856889,21.5783901 C22.9183737,21.9215336 22.6540383,22.1924364 22.3125366,22.2679608 L22.3125366,22.2679608 Z" id="Stroke-18" stroke="#008CD1" stroke-width="2.72"></path>
                    <path d="M12.8309399,7.32726299 C16.3264065,7.32726299 19.1602136,10.1610701 19.1602136,13.6565366 C19.1602136,17.1520032 16.3264065,19.9858103 12.8309399,19.9858103 C9.33547338,19.9858103 6.5016663,17.1520032 6.5016663,13.6565366 C6.5016663,10.1610701 9.33547338,7.32726299 12.8309399,7.32726299" id="Fill-20" fill="#FFFFFF"></path>
                    <path d="M12.8309399,7.32726299 C16.3264065,7.32726299 19.1602136,10.1610701 19.1602136,13.6565366 C19.1602136,17.1520032 16.3264065,19.9858103 12.8309399,19.9858103 C9.33547338,19.9858103 6.5016663,17.1520032 6.5016663,13.6565366 C6.5016663,10.1610701 9.33547338,7.32726299 12.8309399,7.32726299 L12.8309399,7.32726299 Z" id="Stroke-22" stroke="#008CD1" stroke-width="2.72"></path>
                </g>
            </g>
        </g>
    </g>
</svg>