<?xml version="1.0" encoding="UTF-8" standalone="no"?>
<svg width="100px" height="90px" viewBox="0 0 100 90" version="1.1" xmlns="http://www.w3.org/2000/svg" xmlns:xlink="http://www.w3.org/1999/xlink">
    <!-- Generator: Sketch 40.3 (33839) - http://www.bohemiancoding.com/sketch -->
    <title>occupations</title>
    <desc>Created with Sketch.</desc>
    <defs></defs>
    <g id="Utility-design" stroke="none" stroke-width="1" fill="none" fill-rule="evenodd">
        <g id="SMOJ-white" transform="translate(-82.000000, -266.000000)" fill="#FFFFFF">
            <g id="occupations" transform="translate(82.000000, 266.000000)">
                <g id="Tools">
                    <path d="M15.675,29.45 C20.34,25.825 24.21,28.325 29.375,34.305 C29.955,34.98 30.735,34.19 31.18,33.805 C31.62,33.415 38.435,27.28 38.77,27 C39.1,26.705 39.5,26.155 38.975,25.54 C38.44,24.925 36.505,22.415 35.26,20.785 C26.22,8.96 59.99,0.94 54.805,0.815 C52.165,0.745 41.575,0.62 39.99,0.795 C33.575,1.47 25.52,7.465 21.465,10.26 C16.16,13.89 14.18,16.02 13.855,16.315 C12.355,17.625 13.615,20.65 10.895,23.035 C8.02,25.55 6.225,23.645 4.56,25.105 C3.735,25.835 1.425,27.565 0.765,28.14 C0.1,28.725 -0.02,29.71 0.66,30.495 C0.66,30.495 6.98,37.475 7.51,38.095 C8.035,38.705 9.465,39.235 10.345,38.45 C11.23,37.67 13.505,35.685 13.885,35.335 C14.275,35.005 13.635,31.03 15.675,29.45 L15.675,29.45 Z M44.215,32.035 C43.615,31.34 42.87,31.32 42.23,31.89 L35.06,38.15 C34.495,38.65 34.415,39.565 34.925,40.15 L76.395,87.345 C77.365,88.46 79.045,88.575 80.15,87.61 L85,83.545 C86.11,82.57 86.225,80.88 85.26,79.755 L44.215,32.035 L44.215,32.035 Z M99.51,11.95 C99.14,9.48 97.86,9.995 97.195,11.04 C96.53,12.095 93.59,16.55 92.38,18.57 C91.18,20.57 88.22,24.525 82.71,20.62 C76.97,16.565 78.965,13.735 79.965,11.83 C80.97,9.915 84.055,4.545 84.5,3.88 C84.945,3.205 84.425,1.245 82.645,2.065 C80.86,2.885 70.03,7.19 68.53,13.365 C66.995,19.645 69.815,25.26 64.28,30.835 L57.565,37.835 L64.31,45.665 L72.58,37.815 C74.55,35.835 78.76,33.91 82.57,34.78 C90.735,36.625 95.19,33.56 97.875,28.49 C100.285,23.96 99.885,14.42 99.51,11.95 L99.51,11.95 Z M13.695,80.265 C12.655,81.31 12.655,83.01 13.695,84.055 L18.45,88.705 C19.49,89.75 21.14,89.31 22.18,88.265 L46.715,64.145 L39.2,55.575 L13.695,80.265 L13.695,80.265 Z" id="Shape"></path>
                </g>
            </g>
        </g>
    </g>
</svg>