<?xml version="1.0" encoding="UTF-8"?>
<svg width="80px" height="80px" viewBox="0 0 80 80" version="1.1" xmlns="http://www.w3.org/2000/svg" xmlns:xlink="http://www.w3.org/1999/xlink">
    <!-- Generator: Sketch 41.2 (35397) - http://www.bohemiancoding.com/sketch -->
    <title>relate-white</title>
    <desc>Created with Sketch.</desc>
    <defs></defs>
    <g id="Utility-design" stroke="none" stroke-width="1" fill="none" fill-rule="evenodd">
        <g id="relate-final" transform="translate(-53.000000, -35.000000)" fill="#FFFFFF">
            <g id="relate" transform="translate(53.000000, 35.000000)">
                <g id="Relate">
                    <path d="M76.8979592,33.4693878 C74.4489796,31.0204082 70.8571429,30.3673469 67.755102,31.5102041 L48.1632653,11.9183673 C49.3061224,8.81632653 48.6530612,5.2244898 46.2040816,2.7755102 C44.4081633,0.979591837 42.122449,0.163265306 40,0.163265306 C37.7142857,0.163265306 35.4285714,0.979591837 33.7959184,2.7755102 C31.3469388,5.2244898 30.6938776,8.81632653 31.8367347,11.9183673 L12.244898,31.5102041 C9.14285714,30.3673469 5.55102041,31.0204082 3.10204082,33.4693878 C1.30612245,35.2653061 0.489795918,37.5510204 0.489795918,39.6734694 C0.489795918,41.9591837 1.30612245,44.244898 3.10204082,45.877551 C5.55102041,48.3265306 9.14285714,48.9795918 12.244898,47.8367347 L31.8367347,67.4285714 C30.6938776,70.5306122 31.3469388,74.122449 33.7959184,76.5714286 C35.5918367,78.3673469 37.877551,79.1836735 40,79.1836735 C42.2857143,79.1836735 44.5714286,78.3673469 46.2040816,76.5714286 C48.6530612,74.122449 49.3061224,70.5306122 48.1632653,67.4285714 L67.755102,47.8367347 C70.8571429,48.9795918 74.4489796,48.3265306 76.8979592,45.877551 C78.6938776,44.0816327 79.5102041,41.7959184 79.5102041,39.6734694 C79.3469388,37.5510204 78.5306122,35.2653061 76.8979592,33.4693878 L76.8979592,33.4693878 Z M74.2857143,43.2653061 C72.3265306,45.2244898 69.0612245,45.2244898 67.1020408,43.2653061 C66.122449,42.2857143 65.6326531,41.1428571 65.6326531,39.8367347 C65.6326531,38.5306122 66.122449,37.3877551 67.1020408,36.4081633 C69.0612245,34.4489796 72.1632653,34.4489796 74.2857143,36.4081633 C75.2653061,37.3877551 75.755102,38.5306122 75.755102,39.8367347 C75.5918367,40.9795918 75.1020408,42.2857143 74.2857143,43.2653061 L74.2857143,43.2653061 Z M36.4081633,12.4081633 C34.4489796,10.4489796 34.4489796,7.18367347 36.4081633,5.2244898 C37.3877551,4.24489796 38.5306122,3.75510204 39.8367347,3.75510204 C41.1428571,3.75510204 42.2857143,4.24489796 43.2653061,5.2244898 C45.2244898,7.18367347 45.2244898,10.2857143 43.2653061,12.4081633 C42.2857143,13.3877551 41.1428571,13.877551 39.8367347,13.877551 C38.5306122,13.877551 37.2244898,13.3877551 36.4081633,12.4081633 L36.4081633,12.4081633 Z M12.4081633,43.2653061 C10.4489796,45.2244898 7.18367347,45.2244898 5.2244898,43.2653061 C4.24489796,42.2857143 3.75510204,41.1428571 3.75510204,39.8367347 C3.75510204,38.5306122 4.24489796,37.3877551 5.2244898,36.4081633 C7.18367347,34.4489796 10.2857143,34.4489796 12.4081633,36.4081633 C13.3877551,37.3877551 13.877551,38.5306122 13.877551,39.8367347 C13.877551,40.9795918 13.3877551,42.2857143 12.4081633,43.2653061 L12.4081633,43.2653061 Z M43.2653061,67.1020408 C45.2244898,69.0612245 45.2244898,72.1632653 43.2653061,74.2857143 C42.2857143,75.2653061 41.1428571,75.755102 39.8367347,75.755102 C38.5306122,75.755102 37.3877551,75.2653061 36.4081633,74.2857143 C34.4489796,72.3265306 34.4489796,69.0612245 36.4081633,67.1020408 C37.3877551,66.122449 38.5306122,65.6326531 39.8367347,65.6326531 C40.9795918,65.6326531 42.2857143,66.122449 43.2653061,67.1020408 L43.2653061,67.1020408 Z M42.9387755,62.5306122 C42.122449,62.2040816 41.1428571,62.0408163 40.3265306,62.0408163 L39.8367347,62.0408163 L39.3469388,62.0408163 C38.5306122,62.0408163 37.5510204,62.2040816 36.7346939,62.5306122 L17.1428571,42.9387755 C17.4693878,42.122449 17.6326531,41.1428571 17.6326531,40.3265306 L17.6326531,39.6734694 L17.6326531,39.3469388 C17.6326531,38.5306122 17.4693878,37.5510204 17.1428571,36.7346939 L36.7346939,17.1428571 C37.5510204,17.4693878 38.5306122,17.6326531 39.3469388,17.6326531 L39.8367347,17.6326531 L40.3265306,17.6326531 C41.1428571,17.6326531 42.122449,17.4693878 42.9387755,17.1428571 L62.5306122,36.7346939 C62.2040816,37.5510204 62.0408163,38.3673469 62.0408163,39.1836735 L62.0408163,39.5102041 L62.0408163,40.1632653 C62.0408163,40.9795918 62.2040816,41.9591837 62.5306122,42.7755102 L42.9387755,62.5306122 L42.9387755,62.5306122 Z" id="Shape"></path>
                </g>
            </g>
        </g>
    </g>
</svg>