<svg id="Layer_4" data-name="Layer 4" xmlns="http://www.w3.org/2000/svg" viewBox="0 0 700 700"><defs><style>.cls-1{fill:#008cd1;}</style></defs><title>logo-white</title><path class="cls-1" d="M350,58.24c-154.64,0-280,125.36-280,280A279.25,279.25,0,0,0,171.79,554.09V472.19A221.79,221.79,0,0,1,127,338.24c0-123.18,99.86-223,223-223s223,99.86,223,223-99.86,223-223,223A222.15,222.15,0,0,1,259.28,542V399.69H440.67a86.56,86.56,0,0,0,0-173.13H210.53V641.76l48.75-38.62A279.46,279.46,0,0,0,350,618.24c154.64,0,280-125.36,280-280S504.64,58.24,350,58.24ZM259.28,287.71H440.67a25.65,25.65,0,0,1,0,51.3H259.28Z"/></svg>