<?xml version="1.0" encoding="UTF-8" standalone="no"?>
<svg width="600px" height="141px" viewBox="0 0 600 141" version="1.1" xmlns="http://www.w3.org/2000/svg" xmlns:xlink="http://www.w3.org/1999/xlink">
    <!-- Generator: Sketch 42 (36781) - http://www.bohemiancoding.com/sketch -->
    <title>pathevo-new-light-blue</title>
    <desc>Created with Sketch.</desc>
    <defs></defs>
    <g id="logos" stroke="none" stroke-width="1" fill="none" fill-rule="evenodd">
        <g id="Desktop-HD-Copy-3" transform="translate(-2016.000000, -670.000000)" fill="#008CD1">
            <g id="pathevo-logo-new-copy-2" transform="translate(2016.000000, 670.000000)">
                <g id="pathevo-logo-new">
                    <g id="Layer_2">
                        <g id="pathevo-new-light-blue">
                            <path d="M78.3672374,45.7765338 C78.3672374,58.3605212 74.093545,68.0082449 65.5461604,74.7197048 C56.9987757,81.4311647 44.8768091,84.7929739 29.1802606,84.8051324 L9.11883144,84.8051324 L9.11883144,138.606238 L0,138.606238 L0,8.37108726 L31.91591,8.37108726 C62.8834616,8.37108726 78.3672374,20.8395694 78.3672374,45.7765338 Z M9.11883144,76.9446997 L26.9826222,76.9446997 C41.6457032,76.9446997 52.2417853,74.5130113 58.7708686,69.6496345 C65.2999519,64.7862577 68.5675332,56.9471023 68.5736124,46.1321682 C68.5736124,36.1014537 65.4853682,28.6665664 59.3088797,23.8275065 C53.1323912,18.9884467 43.5728162,16.5567583 30.6301548,16.5324414 L9.11883144,16.5324414 L9.11883144,76.9446997 Z" id="Shape"></path>
                            <path d="M146.813186,138.606238 L144.588191,123.286601 L143.876922,123.286601 C139.013546,129.517803 134.010347,133.925238 128.867326,136.508907 C123.724305,139.092576 117.645084,140.38441 110.629663,140.38441 C101.127841,140.38441 93.7355079,137.952722 88.4526649,133.089345 C83.1698219,128.225968 80.5284004,121.487152 80.5284004,112.872896 C80.5284004,103.431865 84.4616564,96.1003249 92.3281683,90.8782741 C100.19468,85.6562233 111.578021,82.896257 126.478192,82.5983752 L144.98942,82.0147699 L144.98942,75.6315879 C144.98942,66.4276474 143.120059,59.4821375 139.381339,54.7950581 C135.642618,50.1079787 129.608991,47.7522806 121.280458,47.7279637 C112.313607,47.7279637 103.021518,50.2204443 93.4041904,55.2054055 L90.1122923,47.5455871 C100.73877,42.5606259 111.246704,40.0681453 121.636093,40.0681453 C132.262571,40.0681453 140.202033,42.8281116 145.45448,48.3480443 C150.706927,53.8679769 153.333151,62.4761538 153.333151,74.1725749 L153.333151,138.606238 L146.813186,138.606238 Z M111.195031,132.368957 C121.529706,132.368957 129.678902,129.414456 135.642618,123.505453 C141.606333,117.59645 144.588191,109.389502 144.588191,98.8846081 L144.588191,89.3189539 L127.66364,90.0302228 C114.070502,90.6867786 104.380224,92.814506 98.5928055,96.4134048 C92.8053871,100.012304 89.911678,105.602147 89.911678,113.182936 C89.911678,119.262157 91.7658404,123.967474 95.4741651,127.298887 C99.1824899,130.6303 104.422778,132.308165 111.195031,132.332482 L111.195031,132.368957 Z" id="Shape"></path>
                            <path d="M204.754241,132.50574 C209.655311,132.573811 214.548754,132.096701 219.344371,131.083202 L219.344371,138.205009 C214.563406,139.704067 209.572482,140.424533 204.562746,140.338816 C196.015361,140.338816 189.708169,138.053029 185.64117,133.481455 C181.574172,128.90988 179.540672,121.727281 179.540672,111.933656 L179.540672,49.4240664 L165.214988,49.4240664 L165.214988,44.2628078 L179.549791,40.2596408 L183.999781,18.3744453 L188.559196,18.3744453 L188.559196,41.764248 L216.964356,41.764248 L216.964356,49.4240664 L188.540959,49.4240664 L188.540959,110.693495 C188.540959,118.116224 189.847991,123.6088 192.462056,127.171223 C195.076121,130.733647 199.173516,132.511819 204.754241,132.50574 Z" id="Shape"></path>
                            <path d="M305.955032,138.606238 L305.955032,75.7866081 C305.955032,66.0598545 303.906335,58.9806017 299.80894,54.5488497 C295.711545,50.1170976 289.358759,47.9042611 280.750582,47.9103404 C269.200062,47.9103404 260.725628,50.8344456 255.32728,56.6826562 C249.928932,62.5308668 247.241916,72.0144515 247.266233,85.1334103 L247.266233,138.606238 L238.457442,138.606238 L238.457442,0 L247.275352,0 L247.275352,44.0804312 L246.828529,56.4546854 L247.44861,56.4546854 C250.679452,50.9748092 255.448295,46.5642641 261.163332,43.7703909 C266.683265,41.1563259 273.540626,39.8492934 281.735416,39.8492934 C303.699641,39.8492934 314.681754,51.6338632 314.681754,75.2030029 L314.681754,138.606238 L305.955032,138.606238 Z" id="Shape"></path>
                            <path d="M375.787043,140.347935 C361.361052,140.347935 349.977711,135.955697 341.63702,127.171223 C333.296329,118.386749 329.125983,106.185752 329.125983,90.5682338 C329.125983,74.83521 332.998447,62.3393713 340.743374,53.0807178 C348.488302,43.8220643 358.892888,39.1988167 371.957134,39.2109752 C384.176368,39.2109752 393.851449,43.223261 400.982375,51.2478327 C408.113301,59.2724043 411.675724,69.8836845 411.669645,83.0816732 L411.669645,92.4284754 L344.436501,92.4284754 C344.734383,103.887807 347.628092,112.584133 353.117629,118.517452 C358.607165,124.450772 366.339934,127.420471 376.315936,127.42655 C387.046427,127.379396 397.653636,125.135683 407.484102,120.833635 L407.484102,134.046822 C402.715747,136.154063 397.748631,137.77922 392.656882,138.89804 C387.097419,139.952885 381.444966,140.438691 375.787043,140.347935 L375.787043,140.347935 Z M371.774758,51.5578729 C363.938642,51.5578729 357.689203,54.1111457 353.02644,59.2176913 C348.363678,64.324237 345.628028,71.3882917 344.819492,80.4098556 L395.884948,80.4098556 C395.884948,71.0904099 393.805854,63.9503649 389.647667,58.9897206 C385.48948,54.0290763 379.531844,51.5517937 371.774758,51.5578729 Z" id="Shape"></path>
                            <path d="M452.768218,138.606238 L415.727525,41.0347415 L431.576054,41.0347415 L452.549367,98.9210834 C457.297238,112.459508 460.087601,121.247022 460.920454,125.283625 L461.631723,125.283625 C462.282199,122.134589 464.346095,115.617664 467.823409,105.732851 C471.300724,95.8480372 479.091245,74.2820009 491.194974,41.0347415 L507.043503,41.0347415 L470.048404,138.606238 L452.768218,138.606238 Z" id="Shape"></path>
                            <path d="M599.709068,89.6745883 C599.709068,105.58391 595.702862,118.006798 587.690448,126.943252 C579.678035,135.879707 568.604734,140.347935 554.470545,140.347935 C546.302174,140.49743 538.253555,138.369235 531.226644,134.201842 C524.368989,130.006927 518.912888,123.868416 515.551373,116.566022 C511.867365,108.906204 510.028401,99.9423925 510.03448,89.6745883 C510.03448,73.7652671 514.01333,61.3727752 521.97103,52.4971126 C529.92873,43.62145 540.971635,39.1927375 555.099745,39.2109752 C568.753675,39.2109752 579.602045,43.7521532 587.644854,52.8345093 C595.687664,61.9168655 599.709068,74.1968918 599.709068,89.6745883 Z M525.354117,89.6745883 C525.354117,102.143071 527.846597,111.641853 532.831558,118.170937 C537.81652,124.70002 545.14806,127.964562 554.82618,127.964562 C564.5043,127.964562 571.851038,124.715218 576.866395,118.216531 C581.881753,111.717844 584.389431,102.203863 584.389431,89.6745883 C584.389431,77.2668984 581.881753,67.8441059 576.866395,61.4062109 C571.851038,54.9683159 564.443507,51.7463288 554.643803,51.7402496 C544.965684,51.7402496 537.670618,54.9166425 532.758608,61.2694284 C527.846597,67.6222143 525.378434,77.090601 525.354117,89.6745883 Z" id="Shape"></path>
                        </g>
                    </g>
                </g>
            </g>
        </g>
    </g>
</svg>