<svg id="Layer_1" data-name="Layer 1" xmlns="http://www.w3.org/2000/svg" viewBox="0 0 103 103"><defs><style>.cls-1{fill:#fff;stroke:#d3a900;stroke-width:3px;}.cls-2{fill:#d3a900;}</style></defs><title>area-of-study-Agriculture-Agriculture-Operations-and-Related-Sciences</title><g id="Area-of-Study_-Career-Cluster" data-name="Area-of-Study,-Career-Cluster"><g id="area-of-study-Agriculture-Agriculture-Operations-and-Related-Sciences"><path id="Oval" class="cls-1" d="M51.5 101.5a50 50 0 1 0-50-50 50 50 0 0 0 50 50z"/><path id="agriculture-art" class="cls-2" d="M51.5 26.5v.07l-3.13 4.79a3.53 3.53 0 0 0-.47 2.47 4.1 4.1 0 0 0 1.14 2.26l.2.14 2.27 2h.07l2.4-2.12a3.78 3.78 0 0 0 1.2-2.26 3.57 3.57 0 0 0-.53-2.47l-3.06-4.79zm-1.2 20.21V42.8a3.88 3.88 0 0 0-.8-2.3 3.93 3.93 0 0 0-2-1.44l-5.33-1.46v3.9a4.07 4.07 0 0 0 2.8 3.7zm3.27-6.21a3.57 3.57 0 0 0-.87 2.26v3.9l5.33-1.51a3.83 3.83 0 0 0 2.07-1.44 3.9 3.9 0 0 0 .8-2.21v-3.9l-5.33 1.5a4 4 0 0 0-2 1.44zm11.67 5l-8.14 2.37a6 6 0 0 0-3.07 2.19 5.6 5.6 0 0 0-1.33 3.49v6l8.13-2.33a6.18 6.18 0 0 0 3.13-2.19 5.49 5.49 0 0 0 1.27-3.53v-6zm-27.4 6A5.51 5.51 0 0 0 39.1 55a5.66 5.66 0 0 0 3.07 2.19l8.13 2.31v-6a5.5 5.5 0 0 0-1.27-3.49 6 6 0 0 0-3.07-2.19l-8.13-2.32v6zM33.5 65.13a7.85 7.85 0 0 0 1.73 4.8 8.25 8.25 0 0 0 4.13 2.88l10.94 3.08v-8a7.81 7.81 0 0 0-1.73-4.73 7.92 7.92 0 0 0-4.13-2.87L33.5 57.12v8zm36 0v-8l-10.93 3.14a8.2 8.2 0 0 0-4.13 2.87 7.81 7.81 0 0 0-1.73 4.73v8l11-3.08a8.25 8.25 0 0 0 4.13-2.88 7.77 7.77 0 0 0 1.66-4.78z"/></g></g></svg>