<svg id="Layer_1" data-name="Layer 1" xmlns="http://www.w3.org/2000/svg" viewBox="0 0 103 103"><defs><style>.cls-1{fill:#fff;stroke:#2f9929;stroke-width:3px;}.cls-2{fill:#2f9929;}</style></defs><title>area-of-study-Biological-and-Biomedical-Sciences</title><g id="Area-of-Study_-Career-Cluster" data-name="Area-of-Study,-Career-Cluster"><g id="area-of-study-Biological-and-Biomedical-Sciences"><path id="Oval" class="cls-1" d="M51.5 101.5a50 50 0 1 0-50-50 50 50 0 0 0 50 50z"/><g id="microscope"><path id="Shape" class="cls-2" d="M47.13 47.63v-3.25a3.25 3.25 0 0 0 0-6.5V33H52v14.63zM45.5 36.5v1.78a3.25 3.25 0 0 0 0 5.63v3.1a9.16 9.16 0 0 0-1.34 8.95 8.13 8.13 0 0 0-8.66 3.54c-2.25-9.56 1.15-17.2 10-23z"/><path id="Shape-2" data-name="Shape" class="cls-2" d="M45.5 63.88a3.25 3.25 0 1 0-3.25 3.25 3.25 3.25 0 0 0 3.25-3.25zm3.25 6.5l-13-1.24v-5.26a6.5 6.5 0 0 1 13 0v6.5z"/><path id="Shape-3" data-name="Shape" class="cls-2" d="M32.5 70.38v4.87h34.13v-1.62L32.5 70.38z"/><path id="Shape-4" data-name="Shape" class="cls-2" d="M56.74 50.51l-3.44-.03-.5-.88 13.11-7.33.41.74-1.9 3.23-7.68 4.27z"/><path id="Shape-5" data-name="Shape" class="cls-2" d="M59.56 50.51l2.67 4.76 1.84.54 1.21-.67.52-1.86-2.66-4.77-3.58 2z"/><path id="Shape-6" data-name="Shape" class="cls-2" d="M54.12 51.85l-.04 5.46 1.37 1.39h1.36l1.36-1.35.07-5.46-4.12-.04z"/><path id="Shape-7" data-name="Shape" class="cls-2" d="M67.04 44.46l2.34 1.39.5 1.86-.7 1.19-1.86.48-2.36-1.36 2.08-3.56z"/><path id="Rectangle-path" class="cls-2" d="M50.38 62.25h14.63v3.25H50.38z"/><path id="Shape-8" data-name="Shape" class="cls-2" d="M53.63 31.38v17.87l6.5-1.62V31.38h-6.5z"/><path id="Rectangle-path-2" data-name="Rectangle-path" class="cls-2" d="M55.25 26.5h3.25v3.25h-3.25z"/><circle id="Oval-2" data-name="Oval" class="cls-2" cx="47.13" cy="41.13" r="1.63"/></g></g></g></svg>