<svg id="Layer_1" data-name="Layer 1" xmlns="http://www.w3.org/2000/svg" viewBox="0 0 103 103"><defs><style>.cls-1{fill:#fff;stroke:#db7a27;stroke-width:3px;}.cls-2{fill:#db7a27;}</style></defs><title>area-of-study-Computer-and-Information-Sciences-and-Support-Services</title><g id="Area-of-Study_-Career-Cluster" data-name="Area-of-Study,-Career-Cluster"><g id="area-of-study-Computer-and-Information-Sciences-and-Support-Services"><path id="Oval" class="cls-1" d="M51.5 101.5a50 50 0 1 0-50-50 50 50 0 0 0 50 50z"/><path id="art" class="cls-2" d="M76.87 66.26L72.4 59.5v-23a5.11 5.11 0 0 0-5.1-5H36.7a5.11 5.11 0 0 0-5.1 5.1v22.9l-4.47 6.71a3.29 3.29 0 0 0-.63 2.29v1.28a2.74 2.74 0 0 0 2.55 2.55h45.9a2.74 2.74 0 0 0 2.55-2.58V68.5a3.29 3.29 0 0 0-.63-2.22zm-32.52.94l1.53-2.55h12.24l1.53 2.55zm23-10.2H36.7V36.6h30.6V57z"/></g></g></svg>