<svg id="Layer_1" data-name="Layer 1" xmlns="http://www.w3.org/2000/svg" viewBox="0 0 103 103"><defs><style>.cls-1{fill:#fff;stroke:#06517d;stroke-width:3px;}.cls-2{fill:#166890;}</style></defs><title>area-of-study-engineering</title><g id="Area-of-Study_-Career-Cluster" data-name="Area-of-Study,-Career-Cluster"><g id="area-of-study-engineering"><path id="Oval" class="cls-1" d="M51.5 101.5a50 50 0 1 0-50-50 50 50 0 0 0 50 50z"/><path id="Shape" class="cls-2" d="M52.37 39.2l.07-.34.33.12a2.75 2.75 0 0 0 2.28-5l-.31-.17.22-.28a13.18 13.18 0 0 1 3-2.79l.29-.2.14.32a2.74 2.74 0 0 0 5.11-1.89l-.1-.33h.35a13.19 13.19 0 0 1 4.09.16l.34.07-.12.33a2.75 2.75 0 0 0 5 2.29l.17-.31.28.22a13.2 13.2 0 0 1 2.78 3l.19.29-.32.15a2.75 2.75 0 0 0 1 5.27 2.69 2.69 0 0 0 .9-.12l.34-.1v.35a12.83 12.83 0 0 1 .1 2 13.1 13.1 0 0 1-.23 2l-.08.35-.34-.09a2.68 2.68 0 0 0-.89-.18 2.75 2.75 0 0 0-1.39 5.18l.31.16-.21.28a13.28 13.28 0 0 1-3 2.79l-.29.2-.14-.32a2.74 2.74 0 0 0-5.24 1 2.63 2.63 0 0 0 .12.9l.1.34h-.35a13.8 13.8 0 0 1-2.05.09 14 14 0 0 1-2-.24l-.34-.07.13-.33a2.78 2.78 0 0 0 .18-.89 2.75 2.75 0 0 0-2.69-2.81 2.71 2.71 0 0 0-2.52 1.45l-.17.31-.28-.22a13 13 0 0 1-2.77-3l-.2-.29.34-.15a2.72 2.72 0 0 0 1.63-2.41 2.75 2.75 0 0 0-2.63-2.86 2.79 2.79 0 0 0-.9.12l-.33.1v-.35a13.79 13.79 0 0 1 .16-4.11m6.77 2.31a6.11 6.11 0 1 0 6.3-5.88 6.11 6.11 0 0 0-6.3 5.88M22.7 54.82l.07-.45.42.15a3.47 3.47 0 0 0 1.14.19 3.52 3.52 0 0 0 1.54-6.69l-.4-.2.26-.37a17.11 17.11 0 0 1 3.7-3.71l.37-.24.19.41a3.5 3.5 0 0 0 6.65-1.55 3.58 3.58 0 0 0-.14-1.16l-.15-.42.44-.07a17 17 0 0 1 5.23 0l.44.07-.15.42a3.58 3.58 0 0 0-.19 1.15 3.5 3.5 0 0 0 6.65 1.55l.19-.41.36.27a16.94 16.94 0 0 1 3.67 3.74l.26.36-.4.19a3.52 3.52 0 0 0 1.53 6.68 3.46 3.46 0 0 0 1.12-.23l.42-.15.07.45a17.07 17.07 0 0 1 0 5.25l-.07.44-.42-.12a3.45 3.45 0 0 0-1.14-.2 3.52 3.52 0 0 0-1.53 6.68l.4.2-.26.37a17 17 0 0 1-3.7 3.71l-.36.26-.19-.4a3.48 3.48 0 0 0-3.15-2 3.52 3.52 0 0 0-3.31 4.67l.15.43-.44.07a16.86 16.86 0 0 1-5.23 0l-.44-.07.15-.43a3.5 3.5 0 0 0-6.46-2.69l-.19.4-.37-.26a17.1 17.1 0 0 1-3.7-3.71l-.23-.35.4-.2a3.52 3.52 0 0 0-1.53-6.68 3.46 3.46 0 0 0-1.14.2l-.43.14-.07-.44a17.3 17.3 0 0 1 0-5.25m8.77 2.62a7.81 7.81 0 1 0 7.81-7.84 7.81 7.81 0 0 0-7.81 7.84"/></g></g></svg>