<svg id="Layer_1" data-name="Layer 1" xmlns="http://www.w3.org/2000/svg" viewBox="0 0 103 103"><defs><style>.cls-1{fill:#fff;stroke:#715eab;stroke-width:3px;}.cls-2{fill:#7c6bb2;}</style></defs><title>area-of-study-engineering-technologies-and-engineering-related-fields</title><g id="Area-of-Study_-Career-Cluster" data-name="Area-of-Study,-Career-Cluster"><g id="area-of-study-engineering-technologies-and-engineering-related-fields"><path id="Oval" class="cls-1" d="M51.5 101.5a50 50 0 1 0-50-50 50 50 0 0 0 50 50z"/><path id="Shape" class="cls-2" d="M44.24 66.64a5 5 0 0 1-.74-2.71 22.34 22.34 0 0 1 10.28-16c-4.54 4.14-7.52 11-8.68 19.31zm24.1 5l-.38-5 3.41-1.14 2.06 4.49c-1.25.48-2.66 1-4.14 1.48zm-21.52-3.2c1.83-15.22 10-25.88 23.1-22.22a.93.93 0 0 0 .48 0 15.85 15.85 0 0 1 3 1.45c-5.72-1.48-10.26-.3-13.29 3.26-3.61 4.2-5.29 11.52-5.61 21a29.44 29.44 0 0 1-7.72-3.49zm9.58 4c.25-9.6 1.93-16.43 5.14-20.06s7.85-4.44 15-1.48h.3a10.63 10.63 0 0 1 1.55 2.91c1.3 3.69 2.36 7.54 3.34 10.69 0 1.55-2.51 3.16-6.55 4.81l-2.51-5.22a.93.93 0 0 0-1.17-.44l-4.89 1.68a.93.93 0 0 0-.63 1l.52 5.82a.68.68 0 0 0 0 .13 24.1 24.1 0 0 1-10.1.22zm-13.84 5.81c-6.19-2.51-7.17-5.27-5-8.4a36.89 36.89 0 0 1 4.09-5.27 8.07 8.07 0 0 0 .25 1.28 4.36 4.36 0 0 0 1.2 2.21 33.2 33.2 0 0 0 11.51 5.74 27.58 27.58 0 0 0 15-.75c4.26-1.45 11.21-3.71 13.14-7 .8 1.23.3 2.51-1.55 4.09a148.43 148.43 0 0 1-24.45 9.13c-3.13 1.25-8 .73-14.22-1z"/><path id="Shape-2" data-name="Shape" class="cls-2" d="M42.03 29.29l.05-.28.27.1a2.26 2.26 0 0 0 1.87-4.1l-.25-.14.18-.23a10.83 10.83 0 0 1 2.46-2.29l.24-.16.12.26a2.25 2.25 0 0 0 4.21-1.57l-.08-.27h.28a10.84 10.84 0 0 1 3.36.13l.28.05-.1.27A2.25 2.25 0 0 0 59 22.94l.14-.25.23.18a10.84 10.84 0 0 1 2.29 2.47l.16.24-.26.12a2.26 2.26 0 0 0 .83 4.33 2.21 2.21 0 0 0 .74-.1l.28-.08v.29a10.54 10.54 0 0 1 .09 1.65 10.76 10.76 0 0 1-.2 1.71l-.06.29-.27-.1a2.21 2.21 0 0 0-.73-.15 2.26 2.26 0 0 0-1.15 4.25l.25.13-.18.23a10.91 10.91 0 0 1-2.46 2.3l-.24.16-.12-.27a2.25 2.25 0 0 0-4.31.83 2.16 2.16 0 0 0 .09.74l.09.28h-.29a11.34 11.34 0 0 1-1.68.07 11.53 11.53 0 0 1-1.67-.2l-.28-.06.1-.27a2.29 2.29 0 0 0 .15-.73 2.26 2.26 0 0 0-2.17-2.35 2.23 2.23 0 0 0-2.07 1.19l-.14.26-.23-.18a10.67 10.67 0 0 1-2.25-2.42l-.18-.29.27-.12a2.23 2.23 0 0 0 1.34-2 2.26 2.26 0 0 0-2.17-2.35 2.29 2.29 0 0 0-.74.1l-.27.08v-.29a11.33 11.33 0 0 1 .13-3.37m5.62 1.91a5 5 0 1 0 5.2-4.84 5 5 0 0 0-5.2 4.84m-30 10.93l.06-.37.35.12a2.85 2.85 0 0 0 .94.16 2.89 2.89 0 0 0 1.24-5.51l-.33-.16.21-.3a14.05 14.05 0 0 1 3-3.05l.3-.22.16.34a2.88 2.88 0 0 0 5.47-1.27 2.94 2.94 0 0 0-.16-.94l-.12-.35.36-.06a14 14 0 0 1 4.34.01l.36.06-.12.35a2.94 2.94 0 0 0-.16.94 2.88 2.88 0 0 0 5.47 1.27l.16-.34.3.22a13.91 13.91 0 0 1 3 3.06l.22.3-.33.16a2.89 2.89 0 0 0 1.26 5.49 2.84 2.84 0 0 0 .94-.16l.35-.12.06.37a14 14 0 0 1 0 4.32l-.06.36-.35-.12a2.83 2.83 0 0 0-.94-.16 2.89 2.89 0 0 0-1.26 5.49l.33.16-.23.35a13.94 13.94 0 0 1-3 3l-.3.22-.16-.33a2.86 2.86 0 0 0-2.54-1.61 2.89 2.89 0 0 0-2.72 3.83l.12.35-.36.05a13.85 13.85 0 0 1-4.3 0l-.36-.05.12-.35a2.88 2.88 0 0 0-5.31-2.21l-.16.33-.3-.22a14 14 0 0 1-3-3.05l-.21-.3.33-.16a2.89 2.89 0 0 0-1.34-5.5 2.84 2.84 0 0 0-.94.16l-.35.12-.06-.36a14.22 14.22 0 0 1 0-4.32m7.27 2.16a6.42 6.42 0 1 0 6.42-6.44 6.42 6.42 0 0 0-6.42 6.44"/></g></g></svg>