<svg id="Layer_1" data-name="Layer 1" xmlns="http://www.w3.org/2000/svg" viewBox="0 0 103 103"><defs><style>.cls-1{fill:#fff;stroke:#c44d4d;stroke-width:3px;}.cls-2{fill:#c44d4d;}</style></defs><title>area-of-study-health-professions-and-related-programs</title><g id="Area-of-Study_-Career-Cluster" data-name="Area-of-Study,-Career-Cluster"><g id="area-of-study-health-professions-and-related-programs"><path id="Oval" class="cls-1" d="M51.5 101.5a50 50 0 1 0-50-50 50 50 0 0 0 50 50z"/><g id="health-art"><path id="Shape" class="cls-2" d="M79.64 61.22A26.14 26.14 0 0 1 54 82.42h-.15a26.1 26.1 0 0 1-25.89-24.26c-5.46-1.3-6.66-8.42-6.71-8.74a2.24 2.24 0 0 1 .11-1.17c-1.33-3.93-2.69-8.08-4.05-12.32a8.83 8.83 0 0 1 .66-6.88 7.1 7.1 0 0 1 4.39-3.55 6.24 6.24 0 0 0 .91-.32 6 6 0 0 1 1.72-.48h.23a2.31 2.31 0 0 1 1.65.66 2.36 2.36 0 0 1 .63 1.72 2.62 2.62 0 0 1-2.76 2.42h-.1a3 3 0 0 1-1.14-.31 1.83 1.83 0 0 0-.43-.17c-.37-.09-.71.21-1.08.53a4.62 4.62 0 0 0-1.49 5.11c1.38 4.37 3 8.69 4.17 12l.52.75a2.26 2.26 0 0 1 .63 1.23 11.21 11.21 0 0 0 .71 2.27l.11.24.11.23c.74 1.46 1.68 2.23 2.76 2.27h.25c.68 0 3-.37 3.74-5a2.34 2.34 0 0 1 1.23-1.7l.39-1q1.07-2.85 2.14-5.72c.19-.53.41-1.09.65-1.66 1-2.43 2-4.94 1.09-7.12-.68-1.55-1.45-2.44-2.12-2.44a2.88 2.88 0 0 0-.75.21 3.42 3.42 0 0 1-1.28.31 2.18 2.18 0 0 1-1-.24 2.36 2.36 0 0 1-1.47-1.92 2.74 2.74 0 0 1 1.32-2.4 2 2 0 0 1 1.19-.38 4.75 4.75 0 0 1 2.31.85l.36.21a17.24 17.24 0 0 1 3.22 2.11 6.83 6.83 0 0 1 2.06 5.58 11.26 11.26 0 0 1-.54 3.06c-.64 1.91-1.31 3.83-2 5.67s-1.15 3.43-1.73 5.13c-.15.43-.29.87-.43 1.31a2.51 2.51 0 0 1 0 .9c-.94 5.67-3.91 7.73-5.79 8.47a14.33 14.33 0 0 0 .15 1.52A21.78 21.78 0 0 0 54 78.08a21.69 21.69 0 0 0 18-33.86 9.14 9.14 0 0 0 3.16-3.13c.41.55.78 1.13 1.14 1.71a26.09 26.09 0 0 1 3.3 18.43z"/><circle id="Oval-2" data-name="Oval" class="cls-2" cx="67.31" cy="36.3" r="6.79"/><path id="Shape-2" data-name="Shape" class="cls-2" d="M66.91 48.45c-1-.31-5.72-2-9.81-3.54a5.69 5.69 0 0 0-4 0c-4.09 1.51-8.8 3.23-9.81 3.54a1.87 1.87 0 0 0-1.33 1.93c0 .28 0 .53.06.69a27.42 27.42 0 0 0 12.48 20.9l.11.06.5.29.49-.29.11-.06c7.24-4.71 11.55-11.94 12.48-20.89 0-.16 0-.42.05-.69a1.86 1.86 0 0 0-1.33-1.93zm-4.72 11.42h-5.17v5.19H53.2v-5.13h-5.16v-3.82h5.1v-5.19H57v5.15h5.19v3.79z"/></g></g></g></svg>