<svg id="Layer_1" data-name="Layer 1" xmlns="http://www.w3.org/2000/svg" viewBox="0 0 103 103"><defs><style>.cls-1{fill:#fff;stroke:#b14694;stroke-width:3px;}.cls-2{fill:#be60a6;}</style></defs><title>area-of-study-mathematics-and-statistics</title><g id="Area-of-Study_-Career-Cluster" data-name="Area-of-Study,-Career-Cluster"><g id="area-of-study-mathematics-and-statistics"><path id="Oval" class="cls-1" d="M51.5 101.5a50 50 0 1 0-50-50 50 50 0 0 0 50 50z"/><g id="graph"><path id="Shape" class="cls-2" d="M79.5 72.57h-8.42l1.54-1.54a44 44 0 0 0 5.67.36v-2.37c-9.79 0-17.79-3.15-23.79-9.34-8.12-8.28-11.14-20.42-12.27-28.75l.17-.17-.23-.26a66.15 66.15 0 0 1-.61-8.87l-2.37-.06a65.42 65.42 0 0 0 .5 8.52l-1.68 1.71V19.26h-2.37v53.31H24.81v2.37h10.83v9.65h2.37v-9.65H79.5v-2.37zm-11.74 0h-3.79l2.79-2.79q1.47.44 3 .76l-2 2zm-5.68-4.59c.72.34 1.46.66 2.21 1l-3.39 3.39.25.25H57.5l4.59-4.59zm-7.98 4.59h-3.75l7.2-7.2q1.12.78 2.3 1.46l-5.75 5.74zm1.52-8.63l-8.39 8.39.25.25h-4.24l10.39-10.4q1 .93 2 1.76zM43.9 47.24l-5.89 5.89v-4.25l.25.25 4.62-4.63q.47 1.37 1 2.74zm-5.89-1.22v-3.76l3.27-3.27q.36 1.46.8 3l-4.07 4.07zm0 10l.25.25 6.64-6.64q.58 1.27 1.24 2.52l-8.13 8.13v-4.3zm0 7.6l9.34-9.34q.7 1.16 1.48 2.28L38.01 67.34v-3.76zm2.09-30.56c.16 1 .35 2.09.57 3.19l-2.66 2.66v-3.76l2.09-2.09zm-2.09 37.63L50.24 58.5c.55.69 1.13 1.37 1.73 2L39.89 72.57h-1.88v-1.88z"/><path id="Shape-2" data-name="Shape" class="cls-2" d="M54.6 53.5a4.13 4.13 0 0 0 1-.76 5.87 5.87 0 0 0 1-1.35 6.32 6.32 0 0 0 .66-2.09l1.14-7.2h2a1.31 1.31 0 0 0 .18-.92h-2l.18-.89a9.26 9.26 0 0 1 .41-1.46 3.16 3.16 0 0 1 .45-.83 1.28 1.28 0 0 1 .51-.4 5.6 5.6 0 0 1 .59-.2l1.34 1.1a1.69 1.69 0 0 0 .51-.72 3.21 3.21 0 0 0 .19-.81 2.52 2.52 0 0 0-.7-.21 4.4 4.4 0 0 0-.72-.07 5.57 5.57 0 0 0-1.37.16 3.1 3.1 0 0 0-1.17.58 3.69 3.69 0 0 0-.93 1.14 6.46 6.46 0 0 0-.63 1.82l-.12.62a6.63 6.63 0 0 0-.76.25 5.86 5.86 0 0 0-.76.36v.48h1.3l-1.15 7.55a7.6 7.6 0 0 1-.4 1.55 6.37 6.37 0 0 1-.55 1.13 3.61 3.61 0 0 1-.59.73 2.47 2.47 0 0 1-.52.38l.16.39a4.6 4.6 0 0 0 .75-.33z"/><path id="Shape-3" data-name="Shape" class="cls-2" d="M60.96 47.98a7.33 7.33 0 0 0 .65 3.06 8.11 8.11 0 0 0 2.18 2.75l.52-.36a7.36 7.36 0 0 1-1.44-2.67 10.61 10.61 0 0 1-.37-3 9.9 9.9 0 0 1 .45-3.15 12.67 12.67 0 0 1 1.22-2.71 15.07 15.07 0 0 1 1.65-2.25 19.09 19.09 0 0 1 1.78-1.76l-.3-.32a18.65 18.65 0 0 0-2.19 1.64 12.83 12.83 0 0 0-2 2.25 12.12 12.12 0 0 0-1.51 2.9 10.35 10.35 0 0 0-.6 3.61z"/><path id="Shape-4" data-name="Shape" class="cls-2" d="M66.98 41.73v.44l1.14.14 1.21 3.27-.85.76q-.57.51-1.17 1.13a13.81 13.81 0 0 0-1.1 1.28 3.94 3.94 0 0 0-.71 1.19 1.9 1.9 0 0 0 1 .23 3.54 3.54 0 0 0 .6-.05 2.87 2.87 0 0 0 .61-.18 2 2 0 0 1 0-.33v-.97a1.59 1.59 0 0 1 0-.36 3.35 3.35 0 0 1 .34-.5c.14-.18.3-.36.46-.53s.33-.35.51-.51l.45-.46 1.03 3.22a1.15 1.15 0 0 0 .29.48.79.79 0 0 0 .58.2 2.09 2.09 0 0 0 .51-.07 3.29 3.29 0 0 0 .52-.18l.45-.21.31-.18v-.44l-1.15-.14-1.26-3.46.49-.43q.31-.28.67-.62l.74-.75q.38-.4.72-.81a7.21 7.21 0 0 0 .59-.82 3.38 3.38 0 0 0 .36-.76 2.07 2.07 0 0 0-1-.23 2.87 2.87 0 0 0-.6.06 4.69 4.69 0 0 0-.6.17v1.3a2.69 2.69 0 0 1 0 .36 4.7 4.7 0 0 1-.74 1l-.9.92-.87-3.09a1.63 1.63 0 0 0-.29-.47.73.73 0 0 0-.57-.2 2 2 0 0 0-.52.07 4.22 4.22 0 0 0-.53.18 4 4 0 0 0-.47.22l-.31.19z"/><path id="Shape-5" data-name="Shape" class="cls-2" d="M77.35 40.61a7.13 7.13 0 0 1 .28 1.3 11.78 11.78 0 0 1 .08 1.42 10.77 10.77 0 0 1-.51 3.34 14.39 14.39 0 0 1-1.26 2.83 13.9 13.9 0 0 1-1.65 2.28 15.56 15.56 0 0 1-1.68 1.63l.36.36a13.22 13.22 0 0 0 2.25-1.66 13 13 0 0 0 2-2.3 12.09 12.09 0 0 0 1.44-2.89 10.45 10.45 0 0 0 .55-3.42 7.25 7.25 0 0 0-.71-3.1 9.06 9.06 0 0 0-2.19-2.82l-.46.32a11.91 11.91 0 0 1 .91 1.4 7.62 7.62 0 0 1 .56 1.3z"/></g></g></g></svg>