<svg id="Layer_1" data-name="Layer 1" xmlns="http://www.w3.org/2000/svg" viewBox="0 0 103 103"><defs><style>.cls-1{fill:#fff;stroke:#d7b100;stroke-width:3px;}.cls-2{fill:#d7b100;}</style></defs><title>area-of-study-multi-inter-disciplinary-studies</title><g id="Area-of-Study_-Career-Cluster" data-name="Area-of-Study,-Career-Cluster"><g id="area-of-study-multi-inter-disciplinary-studies"><path id="Oval" class="cls-1" d="M51.5 101.5a50 50 0 1 0-50-50 50 50 0 0 0 50 50z"/><g id="books"><path id="Shape" class="cls-2" d="M51.65 19.73a.84.84 0 0 0-.48.17c-.3.19-22.67 20.41-23.67 21.43a2.89 2.89 0 0 0-.72 1 18.43 18.43 0 0 0 .17 3.52c.25 2.77.32 3.19.59 3.75a5.55 5.55 0 0 0 1.89 2.13c.29.17 5.38 2.16 11.31 4.41s10.91 4.11 11.08 4.11.51-.17.93-.54c5.72-5.07 23.62-21.43 23.66-21.62a2.67 2.67 0 0 0-1.47-2.36 2.56 2.56 0 0 1-1.14-2.06c-.07-1.07.1-1.43 1.09-2.36.75-.7.87-.86.87-1.2a3 3 0 0 0-1.13-1.89c-.24-.15-5.3-2.12-11.24-4.38-8.89-3.34-10.96-4.14-11.74-4.11zm20.5 14.19a.56.56 0 0 1 .09.37 5.3 5.3 0 0 0 1 2.09c.18.21.3.4.28.42-8.77 8-21.9 19.82-22.15 20a1.28 1.28 0 0 1-1.11.13c-5-1.87-19.19-7.3-19.41-7.41-.66-.34-.74-.54-.89-2.25a12.69 12.69 0 0 1-.1-1.77.83.83 0 0 1 .64-.6c.14 0 4.72 1.7 10.19 3.78 6.5 2.46 10.11 3.82 10.39 3.82s1-.51 10.7-9.3c5.65-5.12 10.31-9.28 10.36-9.24z"/><path id="Shape-2" data-name="Shape" class="cls-2" d="M75.38 40.5s-4.71 4.23-10.37 9.35L53.5 60.24c-1.12 1-1.22 1.07-1.71 1.07s-3-.95-11.24-4.07c-5.9-2.24-10.92-4.18-11.16-4.3a5 5 0 0 1-.79-.52 1.71 1.71 0 0 0-.43-.3 3.71 3.71 0 0 0-.65.48c-1 .81-1 .91-.64 4.56.25 2.75.32 3.19.59 3.77A4.91 4.91 0 0 0 29.2 63c.38.25 4.41 1.84 11.07 4.37 5.76 2.19 10.68 4 10.94 4.13l.49.16c.22.08 2.28-1.72 11.12-9.73l12-10.85a9.78 9.78 0 0 0 1.55-1.58 2 2 0 0 0-.79-1.8c-1.37-1.26-1.54-1.45-1.68-1.91a4 4 0 0 1 0-1.95 6 6 0 0 1 1-1.15c.93-.9 1-1.08.75-1.82-.07-.2-.17-.36-.22-.34zm-3.25 4.81a.34.34 0 0 1 .11.26A3.77 3.77 0 0 0 73 47.4l.51.76-10.94 9.92c-6 5.45-11.1 10-11.31 10.12a1.48 1.48 0 0 1-.55.2c-.23 0 .4.22-10.47-3.91-6.53-2.48-9.68-3.73-9.87-3.92s-.29-.46-.43-1.89c-.16-1.73-.12-2 .32-2.31.27-.17.7 0 10.39 3.66 5.56 2.11 10.27 3.84 10.46 3.84s.55-.18 1.22-.79l10.28-9.31c5.18-4.69 9.46-8.49 9.52-8.46z"/><path id="Shape-3" data-name="Shape" class="cls-2" d="M75.38 51.91s-4.71 4.23-10.37 9.35L53.5 71.65c-1.12 1-1.22 1.07-1.71 1.07s-3-.95-11.24-4.07c-5.9-2.24-10.92-4.18-11.16-4.3a5 5 0 0 1-.79-.52 1.71 1.71 0 0 0-.43-.3 3.71 3.71 0 0 0-.65.48c-1 .81-1 .91-.64 4.56.25 2.75.32 3.19.59 3.77a4.91 4.91 0 0 0 1.73 2.07c.38.25 4.41 1.84 11.07 4.37 5.76 2.19 10.68 4 10.94 4.13l.49.16c.22.08 2.28-1.72 11.12-9.73l12-10.84a9.77 9.77 0 0 0 1.55-1.61 2 2 0 0 0-.79-1.8c-1.37-1.26-1.54-1.45-1.68-1.91a4 4 0 0 1 0-1.95 6 6 0 0 1 1-1.15c.93-.9 1-1.08.75-1.82-.07-.2-.17-.36-.22-.34zm-3.25 4.81a.34.34 0 0 1 .11.26 3.77 3.77 0 0 0 .76 1.83l.51.76-10.94 9.93c-6 5.45-11.1 10-11.31 10.12a1.48 1.48 0 0 1-.55.2c-.23 0 .4.22-10.47-3.91-6.53-2.48-9.68-3.73-9.87-3.92s-.29-.46-.43-1.89c-.16-1.73-.12-2 .32-2.31.27-.17.7 0 10.39 3.66 5.56 2.11 10.27 3.84 10.46 3.84s.55-.18 1.22-.79l10.28-9.31c5.18-4.69 9.46-8.49 9.52-8.46z"/></g></g></g></svg>