<svg id="Layer_1" data-name="Layer 1" xmlns="http://www.w3.org/2000/svg" viewBox="0 0 103 103"><defs><style>.cls-1{fill:#fff;stroke:#2f9929;stroke-width:3px;}.cls-2{fill:#24901c;}</style></defs><title>area-of-study-natural-resources-and-conservation</title><g id="Area-of-Study_-Career-Cluster" data-name="Area-of-Study,-Career-Cluster"><g id="area-of-study-natural-resources-and-conservation"><path id="Oval" class="cls-1" d="M51.5 101.5a50 50 0 1 0-50-50 50 50 0 0 0 50 50z"/><g id="natural-resources"><path id="Shape" class="cls-2" d="M21.01 63.92c-1.11-1.11-2.13-1.43-3.19-.86l-.57.44-.75-1.94v-.18l.49-.36a4.67 4.67 0 0 1 5.57 1.35 2.59 2.59 0 0 0 4.28 0 4.72 4.72 0 0 1 7.39 0 2.59 2.59 0 0 0 4.28 0 4.72 4.72 0 0 1 7.39 0 2.59 2.59 0 0 0 4.28 0l.65-.57 1.27 1.79-.36.34a4.72 4.72 0 0 1-7.39 0 2.59 2.59 0 0 0-4.28 0 4.72 4.72 0 0 1-7.39 0 2.59 2.59 0 0 0-4.28 0 4.72 4.72 0 0 1-7.39 0zm0 5.83a4.77 4.77 0 0 0-1.09-.86l-.83-1.06-.65-1.33h.31a5.19 5.19 0 0 1 3.75 1.75 2.59 2.59 0 0 0 4.28 0 4.72 4.72 0 0 1 7.39 0 2.59 2.59 0 0 0 4.28 0 4.72 4.72 0 0 1 7.39 0 2.59 2.59 0 0 0 4.28 0 5.19 5.19 0 0 1 3.9-1.75l3.06 4.3a7.29 7.29 0 0 1-1.19-1 2.59 2.59 0 0 0-4.28 0 4.72 4.72 0 0 1-7.39 0 2.59 2.59 0 0 0-4.28 0 4.72 4.72 0 0 1-7.39 0 2.59 2.59 0 0 0-4.28 0 4.72 4.72 0 0 1-7.26-.05zm11.67 5.83a2.59 2.59 0 0 0-4.28 0 6.64 6.64 0 0 1-1.81 1.35h-.19l-1.14-1.06-.75-.8h.21a3.14 3.14 0 0 0 2.15-1.06 4.72 4.72 0 0 1 7.39 0 2.59 2.59 0 0 0 4.28 0 4.72 4.72 0 0 1 7.39 0 2.59 2.59 0 0 0 4.28 0 4.72 4.72 0 0 1 7.39 0 2.59 2.59 0 0 0 2.59 1l1.31 1.88a4.64 4.64 0 0 1-5.57-1.32 2.59 2.59 0 0 0-4.28 0 4.72 4.72 0 0 1-7.39 0 2.59 2.59 0 0 0-4.28 0 4.72 4.72 0 0 1-7.29 0z"/><path id="Shape-2" data-name="Shape" class="cls-2" d="M45.93 39.06a.91.91 0 1 0-.91.86.88.88 0 0 0 .91-.86zM26.09 53.89c9.57-5.65 17.06-20.17 22.48-18.15 1.3 7.26-11.17 22-22.48 18.15z"/><path id="Shape-3" data-name="Shape" class="cls-2" d="M29.98 53.37l-10.71-3.24 2.88 5.11-3.29 4.82 11.12-6.69z"/><path id="Shape-4" data-name="Shape" class="cls-2" d="M31.04 48.19l6.82-7.29-5.44-.88c1.69 1.32-1.45 6.22-1.37 8.17z"/><path id="Shape-5" data-name="Shape" class="cls-2" d="M47.09 45.18l-3.32 4.04 3.84 2.02-.52-6.06z"/><path id="Shape-6" data-name="Shape" class="cls-2" d="M56.82 55.08l4.68-10.89h-3.13l4.8-9.36h-3.11l6.09-9.33 4 6.07-7.36 11h3.6l-4.67 9.33h3.32l-1.35 3.14zm27.51 6.25l-3.53-8.22h5a27 27 0 0 1-1.43 8.22zM63.58 76.45L48.03 53.11h7.47l-1.69 3.91h9l-2.59 5.81h9.28v5.83h6.22v-5.83h8.22a49.26 49.26 0 0 1-8.53 13.61z"/><path id="Shape-7" data-name="Shape" class="cls-2" d="M63.35 60.89L68.02 50h-3.11l4.66-9.36h-3.11l6.22-9.33 6.23 9.33h-3.09L80.49 50h-3.11l4.66 10.89H63.35z"/><path id="Rectangle-path" class="cls-2" d="M71.13 62.45h3.11v4.67h-3.11z"/></g></g></g></svg>