<svg id="Layer_1" data-name="Layer 1" xmlns="http://www.w3.org/2000/svg" viewBox="0 0 103 103"><defs><style>.cls-1{fill:#fff;stroke:#b14694;stroke-width:3px;}.cls-2{fill:#b14694;}</style></defs><title>area-of-study-physical-sciences</title><g id="Area-of-Study_-Career-Cluster" data-name="Area-of-Study,-Career-Cluster"><g id="area-of-study-physical-sciences"><path id="Oval" class="cls-1" d="M51.5 101.5a50 50 0 1 0-50-50 50 50 0 0 0 50 50z"/><g id="science-art"><path id="Shape" class="cls-2" d="M49.63 37.18v-.11zm19.15 15.88l-.28-.8c-.41-1.16-.79-2.18-1.09-2.88 4.1-5.08 5.89-9.6 4-12.18s-5.7-2.18-10.91-.52c-.52-.7-1-1.37-1.59-2l-.44-.5-.68-.72c7-2 12.9-1.31 15.58 2.33 3 4.19 1.07 11.19-4.36 18.09zM44.3 51.6a6.9 6.9 0 1 1 1.75 5 6.87 6.87 0 0 1-1.75-5zm17.59 9.51s-.09-.17 0 0zm-23-2.95c-.5-1-1-2-1.4-3 .31-.35.63-.72.44-.48l.89-1 .68-.7 1-1 .44-.41c.61 1.48 1.29 3 2.05 4.52s1.22 2.36 3.82 6.68l-.61.31-1.2.68-.83.37-1.09.46-.39.15a51.47 51.47 0 0 1-3.8-6.59zm-9.91 10c-4.48-6.15 1.79-18.39 14.06-27.36a52.7 52.7 0 0 1 6.28-3.88l1 1.16.39.5v.13l1.09 1.44.22.28a54.83 54.83 0 0 0-6.52 4.17c-11 8.27-17.61 18.15-14.62 22.23s14.49.79 25.7-7.4c1.4-1 2.73-2.18 3.86-3.05l.61 1.9c-.48-1.61-.15-.55.17.55-.15-.59 0 .17.46 1.66a3.2 3.2 0 0 0 .15.65c1.18-1 .59-.48 0 0l-.13-.55.13.55c-.81.7-1.68 1.35-2.57 2-12.26 8.95-25.83 11.24-30.33 5zm19.6 3.34l1.46-.59-1.44.59 1.44-.57a16.52 16.52 0 0 0 2-.89l.41-.17c3.84 3.93 7.53 5.78 10 4.56s3.25-5.63 2.18-11.41l-.33-1.92a55.29 55.29 0 0 0-2.8-8.76l-2.18-4.65c-.61-1.2-1.22-2.36-1.85-3.47l-1.57-2.38-.4-.58a54.68 54.68 0 0 0-5.83-7.35l-1.68-1.55-.41-.41-1.7-1.24-1.68-.89h-.24l-.57-.15a4.36 4.36 0 0 0-3.38 0c-2.73 1.35-3.34 6.2-2 12.52l-.22.2a38.1 38.1 0 0 0-3.05 2.77c2-2 .83-.89-.26.26-1.66-8.6-.17-15.69 4.36-18a7.35 7.35 0 0 1 5-.52h.87a22 22 0 0 1 8.73 5.21l.35.28c-1-.89-.85-.79 0 0-.17-.15-.33-.31 0 0a35.06 35.06 0 0 1 5.94 7c.35.5.68 1 1.68 2.62-1.31-2.18-.59-1 .17.28.13.17 1.07 1.83 1.94 3.58l1.37 3a50.38 50.38 0 0 1 3 9.82 18.16 18.16 0 0 0 .26 1.81c-.35-2.18-.13-1 0 .17 1 7.62-.57 13.79-4.8 15.88s-9.54 0-14.79-5z"/></g></g></g></svg>