<svg id="Layer_1" xmlns="http://www.w3.org/2000/svg" viewBox="0 0 104 104"><style>.st0{fill:#FFFFFF;stroke:#DB7A27;stroke-width:3;} .st1{fill:#DB7A27;} .st2{fill:#FFFFFF;stroke:#D86F15;stroke-width:2;} .st3{fill:#D86F15;}</style><title>area-of-study-science-technologies-technicians</title><g id="Area-of-Study_x2C_-Career-Cluster"><g id="area-of-study-science-technologies-technicians"><path id="Oval" class="st0" d="M52 102c27.6 0 50-22.4 50-50S79.6 2 52 2 2 24.4 2 52s22.4 50 50 50z"/><g id="art"><g id="test-tube"><g id="Group" transform="translate(69 43)"><path id="Shape" class="st1" d="M4.8 24.6v10.1c0 1.3 1.1 2.4 2.4 2.4 1.3 0 2.4-1.1 2.4-2.4V24.6H4.8z"/><ellipse id="Oval_1_" class="st1" cx="8.1" cy="22" rx="1.5" ry="1.5"/><ellipse id="Oval_2_" class="st1" cx="5.7" cy="16.6" rx=".9" ry=".9"/><path id="Shape_1_" class="st1" d="M12.9 1.6l-1.6 1.7v31.5s0 4-4 4-4-4-4-4V3.3L1.6 1.6h11.3zM12.7 0H1.6C1 0 .4.4.1 1S0 2.2.5 2.7L1.6 4v30.8c0 2.3 1.5 5.6 5.6 5.6s5.6-3.4 5.6-5.6V4L14 2.7c.4-.5.5-1.2.3-1.7-.3-.6-.9-1-1.6-1z"/></g></g><g id="technician"><g id="Group_1_"><path id="Shape_2_" class="st1" d="M67.4 63.3l-.2-.1c-3-.8-4-1.6-5.3-2.1-1-.4-1.9-.7-2.6-1.1 1.9-.3 3.6-.7 5.1-1.2 3.4-1.1 4.7-2.2 4.8-2.3l1-.9-1-.9c-2.6-2.1-3.1-7.1-3.6-12.4-.5-5.2-1.1-10.6-3.5-14.9-3.1-4.9-8-7.4-15.4-7.4s-12.3 2.5-15.2 7.6c-2.5 4.3-3 9.7-3.5 14.9-.5 5.3-1 10.2-3.6 12.4l-1 .9 1 .9c.1.1 1.4 1.2 4.8 2.3 1.5.5 3.2.9 5.1 1.2-.7.3-1.6.7-2.6 1.1-1.3.5-2.3 1.3-5.3 2.1l-.2.1c-2.7.9-4.6 3.4-4.6 6.2v7.9H72v-7.9c-.1-3-1.9-5.5-4.6-6.4zm-11-.5l-1.9 1.8c-.4.4-.5 1-.2 1.5l.9 1.5-5.1 4.8 3.4-13.7c.4.6.9 1.1 1.6 1.6l1.3 2.5zM46.7 75h-.3l-2.8-11.2c1 .3 2 .4 3.1.4s2.1-.1 3.1-.4L47 75h-.3zm-7.8-10.4L37 62.8l1.3-2.4c.7-.5 1.2-1.1 1.6-1.6l3.5 13.7-5.2-4.8.9-1.6c.3-.5.2-1.1-.2-1.5zm9.6-31.4c.3-.3.6-.6.9-.8 1.9 1.4 5.5 3.8 10 4.9.2 1 .4 2 .4 3h-.5c-.3-1.7-1.7-3-5.9-3s-5.6 1.3-5.9 3H46c-.3-1.3-1.1-2.3-3.2-2.8 1.9-1.2 3.8-2.6 5.7-4.3zm8.5 8.3c0 1-.1 1.2-.1 1.2s-.6.6-3.5.6-3.5-.5-3.5-.6c0 0-.1-.2-.1-1.2 0-.9.2-1.1.3-1.2.2-.1.9-.6 3.3-.6s3.2.5 3.3.6c.1.1.3.3.3 1.2zm-13.6-1.2c.1.1.3.2.3 1.2s-.1 1.2-.1 1.2-.6.6-3.5.6-3.5-.5-3.5-.6c0 0-.1-.2-.1-1.2 0-.5 0-.7.1-.9.7-.2 1.4-.5 2.1-.8.4 0 .9-.1 1.4-.1 2.4 0 3.1.5 3.3.6zm-9.3 2.4c.2 1.7 1.3 3 6 3s5.7-1.3 6-3h1.4c.2 1.7 1.3 3 6 3s5.7-1.3 6-3h.5c-.3 3.6-2.1 7.3-4.9 10.5-1.4 1.6-2.9 2.9-4.5 3.8-1.4.8-2.7 1.3-3.7 1.3s-2.3-.4-3.7-1.3c-1.5-.9-3.1-2.2-4.5-3.8-2.8-3.2-4.5-6.9-4.9-10.5h.3zM50.5 61c-.5.3-1.9.9-3.8.9-2 0-3.3-.6-3.8-.8l-.4-1.5c1.5.8 2.9 1.2 4.2 1.2 1.3 0 2.7-.4 4.2-1.2l-.4 1.4zm-26.6 8.5c0-1.8 1.1-3.4 2.9-3.9h.1c2.3-.6 3.5-1.2 4.5-1.7.4-.2.7-.3 1-.5.6-.2 1.3-.5 1.9-.8-.2.4 0 .9.3 1.3l1.9 1.8-.9 1.6c-.3.5-.2 1.1.2 1.5l6.7 6.3H23.9v-5.6zM69.5 75H50.9l6.7-6.3c.4-.4.5-1 .2-1.5l-.9-1.5 1.9-1.8c.3-.3.5-.8.3-1.3.7.3 1.3.5 1.9.8.3.1.7.3 1 .5 1 .5 2.2 1.1 4.5 1.7h.1c1.7.6 2.9 2.2 2.9 3.9V75z"/></g><g id="goggles"><path id="Shape_3_" class="st2" d="M61.9 43.3c0-5.7-3-6.2-5.9-6.2-.5-.1-1.1-.1-1.7-.1H38.2c-3.1 0-6.6.1-6.6 6.3 0 1.8.5 3.3 1.6 4.3 1.2 1.2 2.8 1.6 3.7 1.7.6.1 1.4.2 2.2.2h2.3c3.2 0 3.8-2.3 4.2-3.7.4-1.4.5-1.6 1.2-1.6.6 0 .8.2 1.2 1.6.4 1.5 1 3.7 4.2 3.7h2.3c.6 0 1.2 0 1.7-.1.7 0 2.8-.3 4.3-1.8.9-1 1.4-2.5 1.4-4.3z"/><path id="Shape_4_" class="st3" d="M38.8 39c-.1-.1-.2-.1-.3 0l-3.7 3.7c-.1.1-.1.3 0 .3 0 0 .1.1.2.1s.1 0 .2-.1l3.8-3.8c-.1 0-.1-.2-.2-.2z"/><path id="Shape_5_" class="st3" d="M39.3 41.9l-3.4 3.4c-.1.1-.1.2 0 .3 0 0 .1.1.2.1s.1 0 .2-.1l3.3-3.3c.1-.1.1-.2 0-.3-.1-.2-.2-.2-.3-.1z"/><path id="Shape_6_" class="st3" d="M40 44.9l-1.7 1.7c-.1.1-.1.2 0 .3 0 0 .1.1.2.1s0 0 .1-.1l1.7-1.7c.1-.1.1-.2 0-.3H40z"/></g></g></g></g></g></svg>