<?xml version="1.0" encoding="UTF-8" standalone="no"?>
<svg width="110px" height="82px" viewBox="0 0 110 82" version="1.1" xmlns="http://www.w3.org/2000/svg" xmlns:xlink="http://www.w3.org/1999/xlink">
    <!-- Generator: Sketch 40.1 (33804) - http://www.bohemiancoding.com/sketch -->
    <title>jobs</title>
    <desc>Created with Sketch.</desc>
    <defs></defs>
    <g id="Utility-design" stroke="none" stroke-width="1" fill="none" fill-rule="evenodd">
        <g id="SMOJ-white" transform="translate(-287.000000, -298.000000)" fill="#FFFFFF">
            <g id="jobs" transform="translate(287.000000, 298.000000)">
                <g id="Group">
                    <g transform="translate(0.000000, 0.338600)" id="Shape">
                        <path d="M46.75,0.328066667 C41.1833877,0.328066667 36.6666667,4.91982197 36.6666667,10.518822 L36.6666667,11.3280667 L33,11.3280667 L18.3333333,11.3280667 L11,11.3280667 C4.9376822,11.3280667 0,16.2659667 0,22.3280667 L0,33.3280667 L0,44.3280667 L0,69.9947333 L0,75.4947333 C0,77.0226333 0.707362333,78.3364587 1.6829428,79.311792 C2.65852327,80.287492 3.9722221,80.9947333 5.5,80.9947333 L104.5,80.9947333 C106.027779,80.9947333 107.341476,80.287492 108.317059,79.311792 C109.292638,78.3364587 110,77.0226333 110,75.4947333 L110,69.9947333 L110,44.3280667 L110,33.3280667 L110,22.3280667 C110,16.2659667 105.062316,11.3280667 99,11.3280667 L91.6666667,11.3280667 L77,11.3280667 L73.3333333,11.3280667 L73.3333333,10.518822 C73.3333333,4.91982197 68.8166123,0.328066667 63.25,0.328066667 L46.75,0.328066667 L46.75,0.328066667 Z M46.75,3.99473333 L63.25,3.99473333 C66.8243877,3.99473333 69.6666667,6.86388863 69.6666667,10.518822 L69.6666667,11.3280667 L40.3333333,11.3280667 L40.3333333,10.518822 C40.3333333,6.86388863 43.1756123,3.99473333 46.75,3.99473333 L46.75,3.99473333 Z M11,14.9947333 L18.3333333,14.9947333 L18.3333333,36.9947333 C17.3208532,36.9948346 16.5001012,37.8155866 16.5,38.8280667 L16.5,40.6614 L11,40.6614 C6.9055778,40.6614 3.66666667,37.4226333 3.66666667,33.3280667 L3.66666667,22.3280667 C3.66666667,18.2338667 6.9055778,14.9947333 11,14.9947333 L11,14.9947333 Z M22,14.9947333 L29.3333333,14.9947333 L29.3333333,36.9947333 L22,36.9947333 L22,14.9947333 L22,14.9947333 Z M33,14.9947333 L77,14.9947333 L77,36.9947333 C75.9875199,36.9948346 75.1667679,37.8155866 75.1666667,38.8280667 L75.1666667,40.6614 L55,40.6614 L34.8333333,40.6614 L34.8333333,38.8280667 C34.8332321,37.8155866 34.0124801,36.9948346 33,36.9947333 L33,14.9947333 L33,14.9947333 Z M80.6666667,14.9947333 L88,14.9947333 L88,36.9947333 L80.6666667,36.9947333 L80.6666667,14.9947333 L80.6666667,14.9947333 Z M91.6666667,14.9947333 L99,14.9947333 C103.094424,14.9947333 106.333333,18.2338667 106.333333,22.3280667 L106.333333,33.3280667 C106.333333,37.4226333 103.094424,40.6614 99,40.6614 L93.5,40.6614 L93.5,38.8280667 C93.4998988,37.8155866 92.6791468,36.9948346 91.6666667,36.9947333 L91.6666667,14.9947333 L91.6666667,14.9947333 Z M20.1666667,40.6614 L31.1666667,40.6614 L31.1666667,47.9947333 L27.5,47.9947333 L27.5,44.3280667 L23.8333333,44.3280667 L23.8333333,47.9947333 L20.1666667,47.9947333 L20.1666667,40.6614 L20.1666667,40.6614 Z M78.8333333,40.6614 L89.8333333,40.6614 L89.8333333,47.9947333 L86.1666667,47.9947333 L86.1666667,44.3280667 L82.5,44.3280667 L82.5,47.9947333 L78.8333333,47.9947333 L78.8333333,40.6614 L78.8333333,40.6614 Z M3.66666667,41.4634833 C5.61781807,43.2239783 8.17326363,44.3280667 11,44.3280667 L16.5,44.3280667 L16.5,49.8280667 C16.5001012,50.8405468 17.3208532,51.6612988 18.3333333,51.6614 L18.3333333,62.6614 L18.3333333,77.3280667 L5.5,77.3280667 C5.19444567,77.3280667 4.67481007,77.119008 4.27539053,76.7193413 C3.875971,76.3200413 3.66666667,75.8005333 3.66666667,75.4947333 L3.66666667,69.9947333 L3.66666667,44.3280667 L3.66666667,41.4634833 L3.66666667,41.4634833 Z M106.333333,41.4634833 L106.333333,44.3280667 L106.333333,69.9947333 L106.333333,75.4947333 C106.333333,75.7990667 106.12404,76.3200413 105.724608,76.7193413 C105.325191,77.1186413 104.805554,77.3280667 104.5,77.3280667 L91.6666667,77.3280667 L91.6666667,62.6614 L91.6666667,51.6614 C92.6791468,51.6612988 93.4998988,50.8405468 93.5,49.8280667 L93.5,44.3280667 L99,44.3280667 C101.826736,44.3280667 104.382183,43.2239783 106.333333,41.4634833 L106.333333,41.4634833 Z M34.8333333,44.3280667 L55,44.3280667 L75.1666667,44.3280667 L75.1666667,49.8280667 C75.1667679,50.8405468 75.9875199,51.6612988 77,51.6614 L77,62.6614 L77,77.3280667 L33,77.3280667 L33,62.6614 L33,51.6614 C34.0124801,51.6612988 34.8332321,50.8405468 34.8333333,49.8280667 L34.8333333,44.3280667 L34.8333333,44.3280667 Z M22,51.6614 L29.3333333,51.6614 L29.3333333,62.6614 L29.3333333,77.3280667 L22,77.3280667 L22,62.6614 L22,51.6614 L22,51.6614 Z M80.6666667,51.6614 L88,51.6614 L88,62.6614 L88,77.3280667 L80.6666667,77.3280667 L80.6666667,62.6614 L80.6666667,51.6614 L80.6666667,51.6614 Z"></path>
                    </g>
                </g>
            </g>
        </g>
    </g>
</svg>