<?xml version="1.0" encoding="UTF-8" standalone="no"?>
<svg width="115px" height="94px" viewBox="0 0 115 94" version="1.1" xmlns="http://www.w3.org/2000/svg" xmlns:xlink="http://www.w3.org/1999/xlink">
    <!-- Generator: Sketch 40.1 (33804) - http://www.bohemiancoding.com/sketch -->
    <title>majors</title>
    <desc>Created with Sketch.</desc>
    <defs></defs>
    <g id="Utility-design" stroke="none" stroke-width="1" fill="none" fill-rule="evenodd">
        <g id="SMOJ-white" transform="translate(-287.000000, -128.000000)" fill="#FFFFFF">
            <g id="majors" transform="translate(287.000000, 128.000000)">
                <g id="Layer_1">
                    <g id="Utility-design">
                        <g id="navigation">
                            <g id="majors">
                                <polygon id="Shape" points="114.57 76.47 68.85 76.47 69.81 71.06 109.16 71.06 109.16 5.41 5.41 5.41 5.41 71.06 45.43 71.06 46.56 76.47 0 76.47 0 0 114.57 0"></polygon>
                                <polygon id="Shape" points="91.32 67.41 69.27 67.41 69.27 64.69 90.18 64.69 101.94 52.8 101.94 11.79 12.63 11.79 12.63 64.69 45.43 64.69 45.43 67.41 9.91 67.41 9.91 9.07 104.66 9.07 104.66 53.92"></polygon>
                                <polygon id="Stroke-6" points="39.09 19.97 79.33 19.97 79.33 22.69 39.09 22.69"></polygon>
                                <polygon id="Stroke-7" points="27.96 28.74 90.46 28.74 90.46 31.46 27.96 31.46"></polygon>
                                <polygon id="Stroke-8" points="27.96 37.31 90.46 37.31 90.46 40.03 27.96 40.03"></polygon>
                                <polygon id="Stroke-9" points="27.96 45.86 90.46 45.86 90.46 48.58 27.96 48.58"></polygon>
                                <polygon id="Stroke-11" points="60.65 93.26 56.95 82.65 59.43 81.78 61.67 88.22 64.24 85.39 68.01 86 65.63 79.17 68.11 78.3 71.95 89.32 65.23 88.21 60.65 93.26"></polygon>
                                <g id="Group-24" transform="translate(43.000000, 55.000000)">
                                    <polygon id="Stroke-14" points="11.88 38.26 7.3 33.21 0.57 34.32 4.39 23.36 6.88 24.22 4.51 31 8.29 30.39 10.85 33.22 13.22 26.42 15.71 27.28"></polygon>
                                    <path d="M17.9,28.94 C17.6690042,28.9387742 17.4396013,28.9016649 17.22,28.83 L14.46,27.93 L11.62,28.72 C10.7664929,28.9469931 9.85911505,28.6536597 9.3,27.97 L7.45,25.7 L4.67,24.79 C3.84172217,24.520238 3.2449535,23.7947546 3.14,22.93 L2.83,20 L1.02,17.73 C0.472708518,17.0543571 0.363694744,16.1238467 0.74,15.34 L2.02,12.72 L1.68,9.72 C1.59191242,8.86208993 2.00416799,8.02980037 2.74,7.58 L5.26,6.06 L6.55,3.44 C6.92298028,2.63481381 7.7326548,2.12241109 8.62,2.13 L11.53,2.22 L14.02,0.74 C14.7470186,0.28126405 15.6729814,0.28126405 16.4,0.74 L18.85,2.42 L21.77,2.5 C22.6443533,2.52601792 23.4243786,3.05643511 23.77,3.86 L24.91,6.56 L27.32,8.21 C28.0387849,8.70391177 28.4055525,9.57010755 28.26,10.43 L27.76,13.32 L28.9,16.02 C29.2324773,16.8228888 29.0728758,17.7454634 28.49,18.39 L26.49,20.55 L26.02,23.51 C25.8563785,24.3788224 25.1991097,25.071302 24.34,25.28 L21.52,26.06 L19.52,28.22 C19.1012882,28.6715864 18.5157782,28.9318131 17.9,28.94 L17.9,28.94 Z M14.47,25.24 C14.6832034,25.24 14.8953247,25.270303 15.1,25.33 L17.76,26.2 L19.62,24.2 C19.9052615,23.8880648 20.2726243,23.6627952 20.68,23.55 L23.4,22.8 L23.88,20.04 C23.95566,19.6178262 24.14989,19.2258977 24.44,18.91 L26.3,16.91 L25.23,14.38 C25.0615289,13.9862413 25.0094725,13.5524385 25.08,13.13 L25.55,10.41 L23.28,8.85 C22.9208925,8.60248784 22.6426468,8.2546807 22.48,7.85 L21.44,5.23 L18.64,5.13 C18.2099798,5.11415974 17.7935204,4.97533994 17.44,4.73 L15.19,3.19 L12.82,4.65 C12.454469,4.87623319 12.0295128,4.98769712 11.6,4.97 L8.83,4.89 L7.62,7.36 C7.42608532,7.74764354 7.12386977,8.07070154 6.75,8.29 L4.4,9.7 L4.72,12.54 C4.76847114,12.9616299 4.69561878,13.3883367 4.51,13.77 L3.29,16.24 L5.02,18.39 C5.28867707,18.7193558 5.45856779,19.118079 5.51,19.54 L5.81,22.29 L8.43,23.15 C8.82289264,23.2890301 9.16920733,23.5349136 9.43,23.86 L11.18,26.01 L13.84,25.28 C14.0476125,25.2180732 14.2633603,25.1877337 14.48,25.19 L14.47,25.24 Z" id="Stroke-18"></path>
                                    <path d="M14.54,23.04 C10.2929303,23.04 6.85,19.5970697 6.85,15.35 C6.85,11.1029303 10.2929303,7.66 14.54,7.66 C18.7870697,7.66 22.23,11.1029303 22.23,15.35 C22.2244909,19.5947857 18.7847857,23.0344909 14.54,23.04 L14.54,23.04 Z M14.54,10.38 C11.7785763,10.38 9.54,12.6185763 9.54,15.38 C9.54,18.1414237 11.7785763,20.38 14.54,20.38 C17.3014237,20.38 19.54,18.1414237 19.54,15.38 C19.54,12.6185763 17.3014237,10.38 14.54,10.38 L14.54,10.38 Z" id="Stroke-22"></path>
                                </g>
                            </g>
                        </g>
                    </g>
                </g>
            </g>
        </g>
    </g>
</svg>