<?xml version="1.0" encoding="UTF-8" standalone="no"?>
<svg width="144px" height="116px" viewBox="0 0 144 116" version="1.1" xmlns="http://www.w3.org/2000/svg" xmlns:xlink="http://www.w3.org/1999/xlink">
    <!-- Generator: Sketch 40.1 (33804) - http://www.bohemiancoding.com/sketch -->
    <title>occupations</title>
    <desc>Created with Sketch.</desc>
    <defs></defs>
    <g id="Utility-design" stroke="none" stroke-width="1" fill="none" fill-rule="evenodd">
        <g id="SMOJ-white" transform="translate(-96.000000, -281.000000)" fill="#FFFFFF">
            <g id="occupations" transform="translate(96.000000, 281.000000)">
                <g id="Group">
                    <g id="Shape">
                        <path d="M44.762037,44.0198148 C51.7560494,44.0198148 57.4450617,38.4668519 57.4450617,31.6429012 C57.4450617,25.404321 52.5848765,21.5287037 44.762037,21.5287037 C36.9391975,21.5287037 32.0790123,25.404321 32.0790123,31.6429012 C32.0790123,38.4668519 37.7698148,44.0198148 44.762037,44.0198148 L44.762037,44.0198148 Z M44.762037,24.1619753 C53.8325926,24.1619753 54.8117901,29.392716 54.8117901,31.6429012 C54.8117901,37.0150617 50.3024691,41.3865432 44.762037,41.3865432 C39.2216049,41.3865432 34.712284,37.0168519 34.712284,31.6429012 C34.7140741,29.3945062 35.6914815,24.1619753 44.762037,24.1619753 L44.762037,24.1619753 Z"></path>
                        <path d="M45.1254321,27.5327778 C45.5675926,27.5327778 46.0025926,27.5542593 46.4196914,27.6008025 C46.4680247,27.6061728 46.516358,27.607963 46.5629012,27.607963 C47.227037,27.607963 47.7962963,27.1067284 47.8696914,26.4318519 C47.9466667,25.708642 47.4239506,25.0588272 46.7025309,24.9818519 C46.1905556,24.926358 45.6588889,24.897716 45.1254321,24.897716 C44.398642,24.897716 43.8096914,25.4884568 43.8096914,26.2152469 C43.8096914,26.942037 44.3968519,27.5327778 45.1254321,27.5327778 L45.1254321,27.5327778 Z"></path>
                        <path d="M49.3483333,28.492284 C50.5799383,29.2459259 51.315679,30.567037 51.315679,32.0277778 C51.315679,32.7545679 51.9046296,33.3435185 52.6314198,33.3435185 L52.6314198,33.3435185 C53.3582099,33.3435185 53.9489506,32.7527778 53.9471605,32.0259877 C53.9471605,29.6415432 52.7406173,27.4808642 50.721358,26.245679 C50.1001852,25.8661728 49.2910494,26.0612963 48.9115432,26.680679 C48.532037,27.3018519 48.7289506,28.1127778 49.3483333,28.492284 L49.3483333,28.492284 Z"></path>
                        <path d="M141.897716,0.521604938 L86.9158642,0.521604938 C86.1890741,0.521604938 85.6001235,1.11055556 85.6001235,1.83734568 L85.6001235,40.9962963 C85.1866049,40.9246914 84.7605556,40.8853086 84.3291358,40.8853086 L58.187963,40.8853086 C60.2412346,38.1106173 61.4603086,34.6807407 61.4603086,30.9716049 C61.4603086,21.765 53.9704321,14.2751235 44.7638272,14.2751235 C35.5572222,14.2751235 28.0673457,21.765 28.0673457,30.9716049 C28.0673457,34.6807407 29.2846296,38.1106173 31.3379012,40.8853086 L29.3114815,40.8853086 C26.3488272,40.8853086 23.4506173,42.0864815 21.3561728,44.1809259 L2.15530864,63.3782099 C-0.714259259,66.251358 -0.714259259,70.9235802 2.15530864,73.7931481 C3.54802469,75.1840741 5.39901235,75.952037 7.36277778,75.952037 C9.33191358,75.952037 11.1811111,75.1840741 12.5702469,73.7931481 L23.9983951,62.3685802 L23.9983951,102.948889 C20.8585185,103.349877 18.4239506,106.038642 18.4239506,109.284136 L18.4239506,114.312593 C18.4239506,115.039383 19.0146914,115.628333 19.7414815,115.628333 L41.5147531,115.628333 C42.2164815,115.628333 42.7946914,115.078765 42.8304938,114.378827 L44.1784568,87.9762963 L45.732284,87.9762963 L47.0802469,114.378827 C47.1160494,115.080556 47.6942593,115.628333 48.3959877,115.628333 L69.7808025,115.628333 C70.5075926,115.628333 71.0983333,115.039383 71.0983333,114.312593 L71.0983333,109.284136 C71.0983333,106.214074 68.9215432,103.643457 66.032284,103.034815 L66.032284,55.6144444 L84.4741358,55.6144444 C84.8554321,55.6144444 85.231358,55.5858025 85.6001235,55.5303086 L85.6001235,114.312593 C85.6001235,115.039383 86.1890741,115.628333 86.9158642,115.628333 C87.6426543,115.628333 88.2333951,115.039383 88.2333951,114.312593 L88.2333951,54.5833333 C88.7919136,54.2503704 89.3092593,53.8422222 89.7729012,53.360679 C91.1727778,51.9088889 91.9031481,49.9988272 91.8297531,47.9831481 C91.7402469,45.4590741 90.3081481,43.2411111 88.2316049,41.9826543 L88.2316049,40.2802469 L141.895926,40.2802469 C142.622716,40.2802469 143.211667,39.6895062 143.211667,38.962716 L143.211667,1.83734568 C143.213457,1.11055556 142.624506,0.521604938 141.897716,0.521604938 L141.897716,0.521604938 Z M83.0116049,52.9793827 L73.1337037,52.9793827 L73.1337037,43.5167901 L83.0116049,43.5167901 L83.0116049,52.9793827 L83.0116049,52.9793827 Z M49.8406173,54.8339506 C49.6580247,54.3237654 49.1764815,53.9567901 48.603642,53.9567901 L40.9222222,53.9567901 C40.1954321,53.9567901 39.6064815,54.5475309 39.6064815,55.274321 L39.6064815,56.6992593 L34.3023457,56.6992593 C32.5981481,56.6992593 31.2125926,55.3137037 31.2125926,53.6095062 L31.2125926,43.5167901 L33.7670988,43.5167901 C36.7064815,46.096358 40.5552469,47.6662963 44.7638272,47.6662963 C47.8679012,47.6662963 50.7768519,46.8124074 53.2687037,45.3301852 L53.2687037,51.8480247 C53.2687037,53.4931481 51.9296914,54.8321605 50.2845679,54.8321605 L49.8406173,54.8321605 L49.8406173,54.8339506 Z M48.6931481,94.3383951 L63.3972222,94.3383951 L63.3972222,96.5330864 L48.8059259,96.5330864 L48.6931481,94.3383951 L48.6931481,94.3383951 Z M63.3972222,74.1440123 C61.132716,74.1046296 59.3032099,72.2518519 59.3032099,69.9783951 C59.3032099,66.2262963 56.2510494,63.1741358 52.4989506,63.1741358 L49.9193827,63.1741358 L49.9193827,61.6489506 L63.3972222,61.6489506 L63.3972222,74.1440123 L63.3972222,74.1440123 L63.3972222,74.1440123 Z M47.2879012,56.5900617 L47.2879012,66.0258025 L42.2397531,66.0258025 L42.2397531,56.5900617 L47.2879012,56.5900617 L47.2879012,56.5900617 Z M44.762037,16.9083951 C52.5168519,16.9083951 58.8252469,23.2167901 58.8252469,30.9716049 C58.8252469,38.7264198 52.5168519,45.0330247 44.762037,45.0330247 C37.0072222,45.0330247 30.6988272,38.7246296 30.6988272,30.9716049 C30.6988272,23.2167901 37.0090123,16.9083951 44.762037,16.9083951 L44.762037,16.9083951 Z M11.6393827,70.9987654 L4.94969136,64.3090741 L12.3053086,56.9534568 L18.995,63.6449383 L11.6393827,70.9987654 L11.6393827,70.9987654 Z M4.01882716,71.9296296 C2.49901235,70.4080247 2.2358642,68.1005556 3.22222222,66.3032716 L9.64697531,72.7280247 C8.95598765,73.1111111 8.17728395,73.3169753 7.3645679,73.3169753 C6.10074074,73.3187654 4.91388889,72.8246914 4.01882716,71.9296296 L4.01882716,71.9296296 Z M20.8585185,61.7814198 L14.1688272,55.0899383 L23.2179012,46.0408642 C24.6482099,44.6105556 26.5708025,43.7262346 28.5775309,43.5508025 L28.5775309,53.6095062 C28.5775309,56.7654938 31.146358,59.3325309 34.3005556,59.3325309 L39.6046914,59.3325309 L39.6046914,67.3451235 C39.6046914,68.0719136 40.193642,68.6608642 40.9204321,68.6608642 L48.6018519,68.6608642 C49.328642,68.6608642 49.9193827,68.0719136 49.9193827,67.3451235 L49.9193827,65.8091975 L52.4989506,65.8091975 C54.7974691,65.8091975 56.6681481,67.6798765 56.6681481,69.9783951 C56.6681481,73.703642 59.6809259,76.7361111 63.3972222,76.7790741 L63.3972222,78.9791358 L26.6298765,78.9791358 L26.6298765,64.932037 L27.1490123,64.932037 C29.2058642,64.932037 30.8796296,66.6058025 30.8796296,68.6626543 C30.8796296,72.1730864 33.7348765,75.0283333 37.2453086,75.0283333 L41.0421605,75.0283333 C41.586358,76.5588889 43.0470988,77.6616049 44.762037,77.6616049 C46.9406173,77.6616049 48.7128395,75.8911728 48.7128395,73.7125926 C48.7128395,71.5322222 46.9406173,69.7617901 44.762037,69.7617901 C43.0470988,69.7617901 41.586358,70.862716 41.0421605,72.3950617 L37.2453086,72.3950617 C35.1884568,72.3950617 33.5146914,70.7212963 33.5146914,68.6644444 C33.5146914,65.1540123 30.6594444,62.2987654 27.1490123,62.2987654 L26.6298765,62.2987654 L26.6298765,59.1929012 C26.6298765,58.6594444 26.3094444,58.1796914 25.8171605,57.9756173 C25.3266667,57.7715432 24.7591975,57.884321 24.3814815,58.2602469 L20.8585185,61.7814198 L20.8585185,61.7814198 Z M41.1048148,96.5312963 L26.6316667,96.5312963 L26.6316667,94.3366049 L41.2158025,94.3366049 L41.1048148,96.5312963 L41.1048148,96.5312963 Z M43.4462963,73.7072222 C43.4462963,72.9822222 44.037037,72.3914815 44.7638272,72.3914815 C45.4906173,72.3914815 46.081358,72.9822222 46.081358,73.7072222 C46.081358,74.4340123 45.4906173,75.0247531 44.7638272,75.0247531 C44.037037,75.0247531 43.4462963,74.4358025 43.4462963,73.7072222 L43.4462963,73.7072222 Z M24.7932099,105.532037 L32.0897531,105.532037 C32.8165432,105.532037 33.407284,104.943086 33.407284,104.216296 C33.407284,103.489506 32.8165432,102.898765 32.0897531,102.898765 L26.6334568,102.898765 L26.6334568,99.1681481 L40.9723457,99.1681481 L40.4800617,108.825864 L21.0930247,108.825864 C21.3167901,106.976667 22.8885185,105.542778 24.7932099,105.532037 L24.7932099,105.532037 Z M29.202284,111.455556 L29.202284,112.993272 L26.0194444,112.993272 L26.0194444,111.455556 L29.202284,111.455556 L29.202284,111.455556 Z M31.8373457,111.455556 L35.0201852,111.455556 L35.0201852,112.993272 L31.8373457,112.993272 L31.8373457,111.455556 L31.8373457,111.455556 Z M21.0590123,111.455556 L23.387963,111.455556 L23.387963,112.993272 L21.0590123,112.993272 L21.0590123,111.455556 L21.0590123,111.455556 L21.0590123,111.455556 Z M37.6534568,112.995062 L37.6534568,111.457346 L40.3422222,111.457346 L40.2634568,112.995062 L37.6534568,112.995062 L37.6534568,112.995062 Z M42.9271605,85.3394444 C42.2254321,85.3394444 41.6490123,85.8890123 41.6132099,86.5889506 L41.3518519,91.7015432 L26.6316667,91.7015432 L26.6316667,81.607037 L63.3972222,81.607037 L63.3972222,91.7015432 L48.5588889,91.7015432 L48.2975309,86.5889506 C48.2617284,85.8872222 47.6835185,85.3394444 46.9835802,85.3394444 L42.9271605,85.3394444 L42.9271605,85.3394444 Z M49.5685185,111.455556 L51.9171605,111.455556 L51.9171605,112.993272 L49.6454938,112.993272 L49.5685185,111.455556 L49.5685185,111.455556 Z M63.5493827,111.455556 L63.5493827,112.993272 L60.3665432,112.993272 L60.3665432,111.455556 L63.5493827,111.455556 L63.5493827,111.455556 Z M57.7332716,112.995062 L54.5504321,112.995062 L54.5504321,111.457346 L57.7332716,111.457346 L57.7332716,112.995062 L57.7332716,112.995062 Z M66.1844444,112.995062 L66.1844444,111.457346 L68.4650617,111.457346 L68.4650617,112.995062 L66.1844444,112.995062 L66.1844444,112.995062 Z M68.4328395,108.824074 L49.4342593,108.824074 L48.9419753,99.166358 L63.3990123,99.166358 L63.3990123,102.896975 L57.2929012,102.896975 C56.5661111,102.896975 55.9753704,103.487716 55.9753704,104.214506 C55.9753704,104.941296 56.5661111,105.530247 57.2929012,105.530247 L64.7344444,105.530247 C66.6373457,105.542778 68.2054938,106.976667 68.4328395,108.824074 L68.4328395,108.824074 Z M64.7147531,52.9793827 C63.987963,52.9793827 63.3972222,53.5683333 63.3972222,54.2951235 L63.3972222,59.0138889 L49.9211728,59.0138889 L49.9211728,57.4672222 L50.2845679,57.4672222 C53.3814815,57.4672222 55.9019753,54.9467284 55.9019753,51.8480247 L55.9019753,43.5167901 L70.5022222,43.5167901 L70.5022222,52.9793827 L64.7147531,52.9793827 L64.7147531,52.9793827 Z M87.8771605,51.532963 C87.2559877,52.1756173 86.4880247,52.6141975 85.6448765,52.8290123 L85.6448765,43.7011728 C87.6247531,44.2525309 89.1248765,46.0032716 89.1982716,48.0762346 C89.2448148,49.372284 88.7758025,50.6003086 87.8771605,51.532963 L87.8771605,51.532963 Z M140.578395,37.6451852 L88.2333951,37.6451852 L88.2333951,3.15487654 L140.578395,3.15487654 L140.578395,37.6451852 L140.578395,37.6451852 Z"></path>
                    </g>
                </g>
            </g>
        </g>
    </g>
</svg>