<svg xmlns="http://www.w3.org/2000/svg" width="23" height="23" viewBox="0 0 23 23">
  <defs>
    <style>
      .cls-1 {
        fill: #008CD1;
        fill-rule: evenodd;
      }
    </style>
  </defs>
  <path id="relationship.svg" class="cls-1" d="M1112.78,416.891a3.034,3.034,0,0,1,4.29,4.291l-1.43,1.431h0l-5.73,5.722,1.44,1.43,5.72-5.722,0.71-.715,0.72-.715a5.057,5.057,0,0,0-7.15-7.153l-1.41,1.4,1.44,1.431Zm-8.59,17.166a3.034,3.034,0,0,1-4.29-4.292l7.15-7.152-1.43-1.431-7.15,7.153a5.057,5.057,0,0,0,7.15,7.152l1.43-1.43-1.43-1.431Zm-4.29-10.014,1.43-1.43-1.43-1.431a3.034,3.034,0,0,1,4.29-4.291l7.16,7.152,1.43-1.43-7.16-7.153a5.057,5.057,0,0,0-7.15,7.153Zm17.2,2.891-1.43,1.431,1.4,1.4a3.034,3.034,0,0,1-4.29,4.292l-7.19-7.183-1.43,1.431,7.19,7.182a5.057,5.057,0,1,0,7.15-7.152Z" transform="translate(-1097 -414)"/>
</svg>
