<?xml version="1.0" encoding="utf-8"?>
<!-- Generator: Adobe Illustrator 21.0.2, SVG Export Plug-In . SVG Version: 6.00 Build 0)  -->
<svg version="1.1" id="Layer_1" xmlns="http://www.w3.org/2000/svg" xmlns:xlink="http://www.w3.org/1999/xlink" x="0px" y="0px"
	 viewBox="0 0 64.7 110.8" style="enable-background:new 0 0 64.7 110.8;" xml:space="preserve">
<style type="text/css">
	.st0{fill:#008CD1;}
</style>
<title>scholarship</title>
<path id="Price_ribbon" class="st0" d="M48.6,59.2c0.9-1.6,2.4-2.8,4.2-3.1c1.7-0.3,3.1-1.6,3.3-3.3c0.3-1.8,1.5-3.4,3.1-4.2
	c1.6-0.8,2.4-2.5,2.2-4.2c-0.3-1.8,0.3-3.7,1.6-5c1.2-1.2,1.5-3.1,0.7-4.7c-0.8-1.6-0.8-3.6,0-5.2c0.8-1.6,0.5-3.4-0.7-4.7
	c-1.3-1.3-1.9-3.2-1.6-5c0.3-1.7-0.6-3.4-2.2-4.2c-1.6-0.9-2.8-2.4-3.1-4.2c-0.3-1.7-1.6-3.1-3.3-3.3c-1.8-0.3-3.4-1.5-4.2-3.1
	c-0.8-1.6-2.5-2.4-4.2-2.1c-1.8,0.3-3.7-0.3-5-1.6c-1.2-1.2-3.1-1.5-4.7-0.7c-1.7,0.8-3.6,0.8-5.2,0c-1.5-0.8-3.4-0.5-4.7,0.7
	c-1.3,1.3-3.2,1.9-5,1.6c-1.7-0.3-3.4,0.6-4.2,2.1c-0.9,1.6-2.4,2.8-4.2,3.1C9.6,8.2,8.2,9.6,8,11.3c-0.3,1.8-1.5,3.4-3.1,4.2
	c-1.6,0.8-2.4,2.5-2.1,4.2c0.3,1.8-0.3,3.7-1.6,5c-1.2,1.2-1.5,3.1-0.7,4.7c0.8,1.6,0.8,3.6,0,5.2c-0.8,1.6-0.5,3.4,0.7,4.7
	c1.3,1.3,1.9,3.2,1.6,5c-0.3,1.7,0.6,3.4,2.1,4.2C6.5,49.4,7.6,51,8,52.8c0.3,1.7,1.6,3.1,3.3,3.3c1.8,0.3,3.4,1.5,4.2,3.1
	c0.8,1.6,2.5,2.4,4.2,2.1c1.8-0.3,3.7,0.3,5,1.6c1.2,1.2,3.1,1.5,4.7,0.7c1.7-0.8,3.6-0.8,5.2,0c1.6,0.8,3.4,0.5,4.7-0.7
	c1.3-1.3,3.2-1.9,5-1.6C46.1,61.6,47.8,60.8,48.6,59.2z M32.1,51.9c-11,0-19.8-8.9-19.8-19.8c0-11,8.9-19.8,19.8-19.8
	c11,0,19.8,8.9,19.8,19.8S43,51.9,32.1,51.9L32.1,51.9z M8.6,63.6l-7.3,41.1l18.2-2.7l16.2,8.8l7.3-41C31.2,73.4,18.5,71.1,8.6,63.6
	z M55.2,63.9c-1.8,1.3-3.8,2.5-5.8,3.5l-4.3,24.7l19.6-10.6L55.2,63.9z M33.6,42.7v3.4h-3v-3.2c-2.4,0-4.7-1-6.4-2.7l2.6-2.6
	c1.3,1.2,3.1,1.9,4.9,1.7c2.4,0,3.6-0.9,3.6-2.5c0-0.6-0.2-1.3-0.6-1.7c-0.5-0.4-1.1-0.7-1.8-0.7l-2.5-0.3c-1.5-0.1-2.9-0.7-4-1.7
	c-1-1.1-1.5-2.6-1.5-4.1c0-3.2,2.1-5.6,5.6-6.1v-2.9h3V22c1.9,0.1,3.7,1,5.1,2.3l-2.5,2.5c-1.1-1-2.7-1.5-4.2-1.4
	c-2.1,0-3.1,1.2-3.1,2.6c0,0.6,0.2,1.1,0.6,1.5c0.5,0.5,1.2,0.7,1.9,0.8l2.4,0.4c1.4,0.1,2.8,0.7,3.9,1.6c1.1,1.2,1.7,2.8,1.6,4.4
	C39.2,40,36.9,42.1,33.6,42.7L33.6,42.7z"/>
</svg>
