<svg width="111" height="96" viewBox="0 0 111 96" xmlns="http://www.w3.org/2000/svg"><title>level-of-prep-3</title><g stroke="#00476C" fill="none" fill-rule="evenodd"><g stroke-width="2.5"><path d="M101.2486 54.7358h-79.722c-10.8853 0-19.5936 8.812-19.5936 19.5936v.4146c0 10.8854 8.812 19.5936 19.5936 19.5936h79.6184l-2.799-7.7752V61.267l2.9026-6.5312z" fill="#FFD800"/><path d="M10.6413 74.433v.2074c0 6.5312 5.287 11.8183 11.8183 11.8183h75.99v-23.844H22.356c-6.4276 0-11.7147 5.287-11.7147 11.8183z" fill="#FFF"/></g><path d="M16.1358 54.5284h82.1064c6.2202 0 11.3-5.0798 11.3-11.1963v-.2072c0-6.2202-4.976-11.3-11.1963-11.3H16.1357l3.3174 4.1468v14.721l-3.3174 3.8358z" stroke-width="2.63" fill="#38D231"/><path d="M104.877 43.2284v-.1036c0-3.732-3.0064-6.7386-6.7385-6.7386h-78.789V49.967h78.789c3.732 0 6.7386-3.0064 6.7386-6.7386z" stroke-width="2.5" fill="#FFF"/><g stroke-width="2.5"><path d="M92.442 1.5464H33.2425c-8.083 0-14.5497 6.5435-14.5497 14.5497v.308c0 8.083 6.5436 14.5497 14.5497 14.5497H92.365L90.2866 25.18V6.3963l2.1555-4.85z" fill="#F4590D"/><path d="M25.1594 16.173v.154c0 4.85 3.926 8.776 8.776 8.776h56.428V7.397h-56.505c-4.773 0-8.699 3.926-8.699 8.776z" fill="#FFF"/></g><path stroke-width="2.63" fill="#38D231" d="M25.1183 81.1477l5.5982-4.7688 5.9092 4.7687V68.0853H25.1183z"/><g stroke-width="2.5"><path fill="#008CD1" d="M98.2248 77.921l7.257 4.6652-7.257 4.3542H58.4156v-9.123z"/><path d="M59.9706 77.921h-3.0064c-2.488 0-4.4578 1.9698-4.4578 4.458v.1036c0 2.488 1.9697 4.4578 4.4578 4.5614h3.0064v-9.123z" fill="#FFD800"/><path fill="#FFF" d="M60.178 77.8174h4.4578v9.0193H60.178zM98.0174 86.9404h.2074l7.257-4.3542-7.257-4.665h-.2074z"/></g></g></svg>