<svg width="108" height="43" viewBox="0 0 108 43" xmlns="http://www.w3.org/2000/svg"><title>level-of-prep-1</title><g stroke="#00476C" fill="none" fill-rule="evenodd"><g stroke-width="2.5"><path d="M101.2486 1.7358h-79.722c-10.8853 0-19.5936 8.812-19.5936 19.5936v.4146c0 10.8854 8.812 19.5936 19.5936 19.5936h79.6184l-2.799-7.7752V8.267l2.9026-6.5312z" fill="#FFD800"/><path d="M10.6413 21.433v.2074c0 6.5312 5.287 11.8183 11.8183 11.8183h75.99V9.6147H22.356c-6.4276 0-11.7147 5.287-11.7147 11.8183z" fill="#FFF"/></g><path stroke-width="2.63" fill="#38D231" d="M25.1183 28.1477l5.5982-4.7688 5.9092 4.7687V15.0853H25.1183z"/><g stroke-width="2.5"><path fill="#008CD1" d="M98.2248 24.921l7.257 4.6652-7.257 4.3542H58.4156v-9.123z"/><path d="M59.9706 24.921h-3.0064c-2.488 0-4.4578 1.9698-4.4578 4.458v.1036c0 2.488 1.9697 4.4578 4.4578 4.5614h3.0064v-9.123z" fill="#FFD800"/><path fill="#FFF" d="M60.178 24.8174h4.4578v9.0193H60.178zM98.0174 33.9404h.2074l7.257-4.3542-7.257-4.665h-.2074z"/></g></g></svg>